SplineFontDB: 3.0
FontName: IstokWeb-BoldItalic
FullName: Istok Web Bold Italic
FamilyName: Istok Web
Weight: Bold
Copyright: (C) 2009, 2010, 2011 Andrey V. Panov
Version: 0.4.2.1
ItalicAngle: -13
UnderlinePosition: -204
UnderlineWidth: 102
Ascent: 1548
Descent: 500
sfntRevision: 0x00006666
LayerCount: 2
Layer: 0 1 "Back"  1
Layer: 1 1 "Fore"  0
XUID: [1021 288 713564382 14089224]
FSType: 0
OS2Version: 4
OS2_WeightWidthSlopeOnly: 0
OS2_UseTypoMetrics: 1
CreationTime: 1225286394
ModificationTime: 1310106256
PfmFamily: 33
TTFWeight: 700
TTFWidth: 5
LineGap: 0
VLineGap: 0
Panose: 2 0 7 3 3 4 3 9 2 4
OS2TypoAscent: 2061
OS2TypoAOffset: 0
OS2TypoDescent: -887
OS2TypoDOffset: 0
OS2TypoLinegap: 0
OS2WinAscent: 2061
OS2WinAOffset: 0
OS2WinDescent: 887
OS2WinDOffset: 0
HheadAscent: 2061
HheadAOffset: 0
HheadDescent: -887
HheadDOffset: 0
OS2SubXSize: 1331
OS2SubYSize: 1433
OS2SubXOff: 64
OS2SubYOff: 286
OS2SupXSize: 1331
OS2SupYSize: 1433
OS2SupXOff: -221
OS2SupYOff: 983
OS2StrikeYSize: 102
OS2StrikeYPos: 530
OS2FamilyClass: 2048
OS2Vendor: 'PfEd'
OS2CodePages: 00000016.00000000
OS2UnicodeRanges: a00002ff.5000405b.00000000.00000000
Lookup: 4 0 1 "'liga' Standard Ligatures in Cyrillic lookup 0"  {"'liga' Standard Ligatures in Cyrillic lookup 0 subtable"  } ['liga' ('cyrl' <'MKD ' 'SRB ' 'dflt' > ) ]
Lookup: 4 0 1 "'liga' Standard Ligatures in Latin lookup 1"  {"'liga' Standard Ligatures in Latin lookup 1 subtable"  } ['liga' ('latn' <'NLD ' 'VIT ' 'dflt' > ) ]
Lookup: 4 0 1 "'liga' Standard Ligatures in Latin lookup 2"  {"'liga' Standard Ligatures in Latin lookup 2 subtable"  } ['liga' ('latn' <'AZE ' 'NLD ' 'TRK ' 'VIT ' 'dflt' > ) ]
Lookup: 1 0 0 "'tnum' Tabular Numbers lookup 3"  {"'tnum' Tabular Numbers lookup 3 subtable"  } ['tnum' ('cyrl' <'dflt' > 'grek' <'dflt' > 'latn' <'dflt' > ) ]
Lookup: 1 0 0 "'onum' Oldstyle Figures lookup 4"  {"'onum' Oldstyle Figures lookup 4 subtable" ("oldstyle" ) } ['onum' ('cyrl' <'dflt' > 'grek' <'dflt' > 'latn' <'dflt' > ) ]

StartChar: .notdef
Encoding: 0 -1 0
AltUni2: 000000.ffffffff.0
Width: 1260
Flags: W
LayerCount: 2
Fore
SplineSet
200 0 m 2,0,1
 140 0 140 0 140 60 c 2,2,-1
 140 1374 l 2,3,4
 140 1434 140 1434 192 1434 c 2,5,-1
 1060 1434 l 2,6,7
 1120 1434 1120 1434 1120 1374 c 2,8,-1
 1120 60 l 2,9,10
 1120 0 1120 0 1060 0 c 2,11,-1
 200 0 l 2,0,1
320 180 m 1,12,-1
 940 180 l 1,13,-1
 940 1254 l 1,14,-1
 320 1254 l 1,15,-1
 320 180 l 1,12,-1
EndSplineSet
EndChar

StartChar: exclam
Encoding: 33 33 4
Width: 668
GlyphClass: 2
Flags: W
LayerCount: 2
Fore
SplineSet
378 1359 m 2,0,1
 393 1434 393 1434 465 1434 c 2,2,-1
 625 1434 l 2,3,4
 697 1434 697 1434 678 1359 c 2,5,-1
 449 485 l 2,6,7
 432 420 432 420 369 420 c 2,8,-1
 253 420 l 2,9,10
 190 420 190 420 203 485 c 2,11,-1
 378 1359 l 2,0,1
138 0 m 2,12,13
 68 0 68 0 85 75 c 2,14,-1
 116 209 l 2,15,16
 133 284 133 284 204 284 c 2,17,-1
 356 284 l 2,18,19
 426 284 426 284 408 209 c 2,20,-1
 377 75 l 2,21,22
 360 0 360 0 290 0 c 2,23,-1
 138 0 l 2,12,13
EndSplineSet
EndChar

StartChar: numbersign
Encoding: 35 35 6
Width: 1416
GlyphClass: 2
Flags: W
LayerCount: 2
Fore
SplineSet
173 344 m 2,0,1
 113 344 113 344 121 394 c 1,2,-1
 136 474 l 2,3,4
 145 524 145 524 204 524 c 2,5,-1
 385 524 l 1,6,-1
 450 898 l 1,7,-1
 270 898 l 2,8,9
 211 898 211 898 219 948 c 2,10,-1
 233 1028 l 2,11,12
 242 1078 242 1078 302 1078 c 2,13,-1
 482 1078 l 1,14,-1
 532 1362 l 2,15,16
 543 1422 543 1422 593 1422 c 2,17,-1
 679 1422 l 2,18,19
 729 1422 729 1422 718 1362 c 2,20,-1
 668 1078 l 1,21,-1
 966 1078 l 1,22,-1
 1016 1362 l 2,23,24
 1027 1422 1027 1422 1077 1422 c 2,25,-1
 1163 1422 l 2,26,27
 1213 1422 1213 1422 1202 1362 c 2,28,-1
 1152 1078 l 1,29,-1
 1332 1078 l 2,30,31
 1391 1078 1391 1078 1383 1028 c 2,32,-1
 1369 948 l 2,33,34
 1360 898 1360 898 1300 898 c 2,35,-1
 1120 898 l 1,36,-1
 1055 524 l 1,37,-1
 1234 524 l 2,38,39
 1294 524 1294 524 1286 474 c 1,40,-1
 1271 394 l 2,41,42
 1262 344 1262 344 1203 344 c 2,43,-1
 1023 344 l 1,44,-1
 973 60 l 2,45,46
 962 0 962 0 912 0 c 2,47,-1
 826 0 l 2,48,49
 776 0 776 0 787 60 c 2,50,-1
 837 344 l 1,51,-1
 539 344 l 1,52,-1
 489 60 l 2,53,54
 478 0 478 0 428 0 c 2,55,-1
 342 0 l 2,56,57
 292 0 292 0 303 60 c 2,58,-1
 353 344 l 1,59,-1
 173 344 l 2,0,1
571 524 m 1,60,-1
 869 524 l 1,61,-1
 934 898 l 1,62,-1
 636 898 l 1,63,-1
 571 524 l 1,60,-1
EndSplineSet
EndChar

StartChar: dollar
Encoding: 36 36 7
Width: 1200
GlyphClass: 2
Flags: W
LayerCount: 2
Fore
SplineSet
57 102 m 1,0,1
 -1 154 -1 154 32 200 c 2,2,-1
 102 298 l 2,3,4
 136 346 136 346 206 288 c 0,5,6
 260 243 260 243 334.5 219 c 128,-1,7
 409 195 409 195 452 188 c 1,8,-1
 552 618 l 1,9,10
 492 646 492 646 470 660 c 0,11,12
 401 704 401 704 356.5 757 c 128,-1,13
 312 810 312 810 288 869 c 128,-1,14
 264 928 264 928 264 1037 c 256,15,16
 264 1146 264 1146 333 1258 c 128,-1,17
 402 1370 402 1370 526.5 1412.5 c 128,-1,18
 651 1455 651 1455 746 1455 c 1,19,-1
 769 1556 l 2,20,21
 783 1616 783 1616 833 1616 c 2,22,-1
 913 1616 l 2,23,24
 963 1616 963 1616 949 1556 c 2,25,-1
 924 1450 l 1,26,27
 1010 1436 1010 1436 1056 1411 c 128,-1,28
 1102 1386 1102 1386 1147 1347 c 0,29,30
 1206 1296 1206 1296 1174 1257 c 2,31,-1
 1088 1151 l 2,32,33
 1041 1094 1041 1094 1002 1143 c 0,34,35
 982 1168 982 1168 947 1191 c 128,-1,36
 912 1214 912 1214 872 1224 c 1,37,-1
 775 806 l 1,38,39
 808 787 808 787 842 772 c 0,40,41
 916 738 916 738 972 681 c 128,-1,42
 1028 624 1028 624 1050.5 547 c 128,-1,43
 1073 470 1073 470 1073 406 c 0,44,45
 1073 273 1073 273 990.5 161.5 c 128,-1,46
 908 50 908 50 794.5 9 c 128,-1,47
 681 -32 681 -32 582 -32 c 1,48,-1
 555 -150 l 2,49,50
 541 -210 541 -210 492 -210 c 2,51,-1
 412 -210 l 2,52,53
 361 -210 361 -210 375 -150 c 2,54,-1
 403 -27 l 1,55,56
 327 -18 327 -18 224.5 12 c 128,-1,57
 122 42 122 42 57 102 c 1,0,1
520 1039 m 0,58,59
 520 1009 520 1009 530 973.5 c 128,-1,60
 540 938 540 938 588 901 c 0,61,62
 604 889 604 889 614 883 c 1,63,-1
 694 1233 l 1,64,65
 612 1224 612 1224 566 1163 c 128,-1,66
 520 1102 520 1102 520 1039 c 0,58,59
634 196 m 1,67,68
 695 210 695 210 754 264 c 128,-1,69
 813 318 813 318 813 402 c 0,70,71
 813 437 813 437 799.5 473 c 128,-1,72
 786 509 786 509 746 534 c 0,73,74
 737 540 737 540 717 550 c 1,75,-1
 634 196 l 1,67,68
EndSplineSet
EndChar

StartChar: ampersand
Encoding: 38 38 9
Width: 1416
GlyphClass: 2
Flags: W
LayerCount: 2
Fore
SplineSet
69 279 m 0,0,1
 69 452 69 452 175.5 577 c 128,-1,2
 282 702 282 702 508 829 c 1,3,4
 455 909 455 909 431 971.5 c 128,-1,5
 407 1034 407 1034 407 1134 c 0,6,7
 407 1272 407 1272 521 1370 c 128,-1,8
 635 1468 635 1468 833 1468 c 0,9,10
 995 1468 995 1468 1086.5 1384 c 128,-1,11
 1178 1300 1178 1300 1178 1185 c 0,12,13
 1178 1061 1178 1061 1090 960.5 c 128,-1,14
 1002 860 1002 860 848 769 c 1,15,-1
 1010 459 l 1,16,17
 1060 504 1060 504 1093 544 c 128,-1,18
 1126 584 1126 584 1164 645 c 0,19,20
 1204 710 1204 710 1258 675 c 2,21,-1
 1355 613 l 2,22,23
 1375 601 1375 601 1344 538 c 0,24,25
 1304 456 1304 456 1254 392.5 c 128,-1,26
 1204 329 1204 329 1114 264 c 1,27,-1
 1218 66 l 2,28,29
 1253 0 1253 0 1172 0 c 2,30,-1
 1017 0 l 2,31,32
 946 0 946 0 914 59 c 2,33,-1
 884 115 l 1,34,35
 801 42 801 42 681.5 4 c 128,-1,36
 562 -34 562 -34 449 -34 c 0,37,38
 244 -34 244 -34 156.5 57 c 128,-1,39
 69 148 69 148 69 279 c 0,0,1
369 314 m 0,40,41
 369 254 369 254 402 219 c 128,-1,42
 435 184 435 184 505 184 c 0,43,44
 588 184 588 184 650.5 216 c 128,-1,45
 713 248 713 248 784 303 c 1,46,-1
 614 624 l 1,47,48
 500 546 500 546 434.5 476 c 128,-1,49
 369 406 369 406 369 314 c 0,40,41
677 1133 m 0,50,51
 677 1086 677 1086 686.5 1048 c 128,-1,52
 696 1010 696 1010 738 954 c 1,53,54
 836 1010 836 1010 872 1051 c 128,-1,55
 908 1092 908 1092 908 1145 c 0,56,57
 908 1184 908 1184 884 1211 c 128,-1,58
 860 1238 860 1238 801 1238 c 0,59,60
 746 1238 746 1238 711.5 1201 c 128,-1,61
 677 1164 677 1164 677 1133 c 0,50,51
EndSplineSet
EndChar

StartChar: quotesingle
Encoding: 39 39 10
Width: 560
GlyphClass: 2
Flags: W
LayerCount: 2
Fore
SplineSet
346 1404 m 2,0,1
 358 1469 358 1469 412 1469 c 2,2,-1
 586 1469 l 2,3,4
 640 1469 640 1469 622 1404 c 2,5,-1
 478 884 l 2,6,7
 461 824 461 824 414 824 c 2,8,-1
 286 824 l 2,9,10
 239 824 239 824 250 884 c 2,11,-1
 346 1404 l 2,0,1
EndSplineSet
EndChar

StartChar: parenleft
Encoding: 40 40 11
Width: 740
GlyphClass: 2
Flags: W
LayerCount: 2
Fore
SplineSet
77 339 m 0,0,1
 77 768 77 768 310.5 1096 c 128,-1,2
 544 1424 544 1424 738 1531 c 0,3,4
 788 1558 788 1558 809 1540 c 1,5,-1
 895 1458 l 2,6,7
 928 1426 928 1426 878 1386 c 0,8,9
 708 1248 708 1248 542.5 994 c 128,-1,10
 377 740 377 740 377 327 c 0,11,12
 377 76 377 76 398.5 -59.5 c 128,-1,13
 420 -195 420 -195 473 -315 c 0,14,15
 499 -373 499 -373 460 -398 c 2,16,-1
 379 -450 l 2,17,18
 337 -477 337 -477 301 -426 c 0,19,20
 204 -291 204 -291 140.5 -95.5 c 128,-1,21
 77 100 77 100 77 339 c 0,0,1
EndSplineSet
EndChar

StartChar: parenright
Encoding: 41 41 12
Width: 740
GlyphClass: 2
Flags: W
LayerCount: 2
Fore
SplineSet
-143 -370 m 2,0,1
 -176 -338 -176 -338 -126 -298 c 0,2,3
 44 -160 44 -160 209.5 94 c 128,-1,4
 375 348 375 348 375 761 c 0,5,6
 375 1012 375 1012 353.5 1147.5 c 128,-1,7
 332 1283 332 1283 279 1403 c 0,8,9
 253 1461 253 1461 292 1486 c 2,10,-1
 373 1538 l 2,11,12
 415 1565 415 1565 451 1514 c 0,13,14
 548 1379 548 1379 611.5 1183.5 c 128,-1,15
 675 988 675 988 675 749 c 0,16,17
 675 320 675 320 441.5 -8 c 128,-1,18
 208 -336 208 -336 14 -443 c 0,19,20
 -36 -470 -36 -470 -57 -452 c 1,21,-1
 -143 -370 l 2,0,1
EndSplineSet
EndChar

StartChar: asterisk
Encoding: 42 42 13
Width: 960
GlyphClass: 2
Flags: W
LayerCount: 2
Fore
SplineSet
472 1058 m 1,0,-1
 296 1142 l 2,1,2
 219 1179 219 1179 277 1253 c 1,3,-1
 302 1284 l 2,4,5
 361 1356 361 1356 423 1300 c 2,6,-1
 565 1172 l 1,7,-1
 589 1385 l 2,8,9
 599 1478 599 1478 683 1478 c 2,10,-1
 719 1478 l 2,11,12
 803 1478 803 1478 771 1385 c 2,13,-1
 697 1172 l 1,14,-1
 897 1300 l 2,15,16
 986 1357 986 1357 1011 1283 c 1,17,-1
 1022 1252 l 2,18,19
 1047 1179 1047 1179 952 1142 c 2,20,-1
 736 1058 l 1,21,-1
 914 973 l 2,22,23
 991 936 991 936 932 864 c 2,24,-1
 907 833 l 2,25,26
 848 760 848 760 786 816 c 2,27,-1
 644 944 l 1,28,-1
 620 732 l 2,29,30
 609 638 609 638 524 638 c 2,31,-1
 489 638 l 2,32,33
 405 638 405 638 438 732 c 2,34,-1
 512 944 l 1,35,-1
 311 816 l 2,36,37
 222 759 222 759 197 832 c 2,38,-1
 186 863 l 2,39,40
 160 936 160 936 257 974 c 2,41,-1
 472 1058 l 1,0,-1
EndSplineSet
EndChar

StartChar: plus
Encoding: 43 43 14
Width: 1280
GlyphClass: 2
Flags: W
LayerCount: 2
Fore
SplineSet
182 632 m 2,0,1
 122 632 122 632 122 682 c 2,2,-1
 122 768 l 2,3,4
 122 818 122 818 182 818 c 2,5,-1
 594 818 l 1,6,-1
 594 1230 l 2,7,8
 594 1290 594 1290 644 1290 c 2,9,-1
 730 1290 l 2,10,11
 780 1290 780 1290 780 1230 c 2,12,-1
 780 818 l 1,13,-1
 1192 818 l 2,14,15
 1252 818 1252 818 1252 768 c 2,16,-1
 1252 682 l 2,17,18
 1252 632 1252 632 1192 632 c 2,19,-1
 780 632 l 1,20,-1
 780 220 l 2,21,22
 780 160 780 160 730 160 c 2,23,-1
 644 160 l 2,24,25
 594 160 594 160 594 220 c 2,26,-1
 594 632 l 1,27,-1
 182 632 l 2,0,1
EndSplineSet
Substitution2: "'tnum' Tabular Numbers lookup 3 subtable" plus.tab
EndChar

StartChar: comma
Encoding: 44 44 15
Width: 668
GlyphClass: 2
Flags: W
LayerCount: 2
Fore
SplineSet
136 0 m 2,0,1
 66 0 66 0 83 75 c 2,2,-1
 114 209 l 2,3,4
 131 284 131 284 202 284 c 2,5,-1
 358 284 l 2,6,7
 428 284 428 284 410 209 c 2,8,-1
 379 75 l 2,9,10
 354 -34 354 -34 320 -122 c 128,-1,11
 286 -210 286 -210 197 -282 c 0,12,13
 145 -324 145 -324 115 -290 c 1,14,-1
 80 -253 l 2,15,16
 51 -223 51 -223 109 -178 c 0,17,18
 146 -149 146 -149 169 -103.5 c 128,-1,19
 192 -58 192 -58 205 0 c 1,20,-1
 136 0 l 2,0,1
EndSplineSet
EndChar

StartChar: hyphen
Encoding: 45 45 16
Width: 700
GlyphClass: 2
Flags: W
LayerCount: 2
Fore
SplineSet
96 446 m 2,0,1
 36 446 36 446 48 496 c 2,2,-1
 74 610 l 2,3,4
 86 660 86 660 145 660 c 2,5,-1
 619 660 l 2,6,7
 679 660 679 660 668 610 c 2,8,-1
 642 496 l 2,9,10
 630 446 630 446 570 446 c 2,11,-1
 96 446 l 2,0,1
EndSplineSet
EndChar

StartChar: period
Encoding: 46 46 17
Width: 668
GlyphClass: 2
Flags: W
LayerCount: 2
Fore
SplineSet
138 0 m 2,0,1
 68 0 68 0 85 75 c 2,2,-1
 116 209 l 2,3,4
 133 284 133 284 204 284 c 2,5,-1
 356 284 l 2,6,7
 426 284 426 284 408 209 c 2,8,-1
 377 75 l 2,9,10
 360 0 360 0 290 0 c 2,11,-1
 138 0 l 2,0,1
EndSplineSet
EndChar

StartChar: slash
Encoding: 47 47 18
Width: 856
GlyphClass: 2
Flags: W
LayerCount: 2
Fore
SplineSet
-177 -368 m 2,0,1
 -217 -345 -217 -345 -185 -294 c 2,2,-1
 878 1432 l 2,3,4
 915 1493 915 1493 955 1470 c 2,5,-1
 1037 1423 l 2,6,7
 1077 1400 1077 1400 1045 1349 c 2,8,-1
 -19 -377 l 2,9,10
 -56 -437 -56 -437 -95 -415 c 2,11,-1
 -177 -368 l 2,0,1
EndSplineSet
EndChar

StartChar: zero
Encoding: 48 48 19
Width: 1200
GlyphClass: 2
Flags: W
LayerCount: 2
Fore
SplineSet
100 489 m 0,0,1
 100 809 100 809 242.5 1132.5 c 128,-1,2
 385 1456 385 1456 760 1456 c 0,3,4
 950 1456 950 1456 1069 1339.5 c 128,-1,5
 1188 1223 1188 1223 1188 933 c 0,6,7
 1188 613 1188 613 1045.5 289.5 c 128,-1,8
 903 -34 903 -34 528 -34 c 0,9,10
 338 -34 338 -34 219 82.5 c 128,-1,11
 100 199 100 199 100 489 c 0,0,1
396 449 m 0,12,13
 396 309 396 309 433.5 246.5 c 128,-1,14
 471 184 471 184 546 184 c 0,15,16
 721 184 721 184 806.5 466 c 128,-1,17
 892 748 892 748 892 973 c 0,18,19
 892 1113 892 1113 854.5 1175.5 c 128,-1,20
 817 1238 817 1238 742 1238 c 0,21,22
 567 1238 567 1238 481.5 956 c 128,-1,23
 396 674 396 674 396 449 c 0,12,13
EndSplineSet
Substitution2: "'onum' Oldstyle Figures lookup 4 subtable" zero.oldstyle
EndChar

StartChar: one
Encoding: 49 49 20
Width: 907
GlyphClass: 2
Flags: W
LayerCount: 2
Fore
SplineSet
293 1138 m 2,0,1
 275 1186 275 1186 345 1214 c 0,2,3
 409 1240 409 1240 485.5 1287 c 128,-1,4
 562 1334 562 1334 614 1384 c 0,5,6
 672 1440 672 1440 712 1440 c 2,7,-1
 871 1440 l 2,8,9
 932 1440 932 1440 918 1380 c 2,10,-1
 613 60 l 2,11,12
 599 0 599 0 539 0 c 2,13,-1
 379 0 l 2,14,15
 319 0 319 0 333 60 c 2,16,-1
 547 991 l 2,17,18
 557 1033 557 1033 570 1071 c 1,19,-1
 566 1071 l 1,20,21
 535 1034 535 1034 495.5 1011 c 128,-1,22
 456 988 456 988 411 972 c 0,23,24
 362 955 362 955 346 998 c 2,25,-1
 293 1138 l 2,0,1
EndSplineSet
Substitution2: "'onum' Oldstyle Figures lookup 4 subtable" one.oldstyle
Substitution2: "'tnum' Tabular Numbers lookup 3 subtable" one.tab
EndChar

StartChar: two
Encoding: 50 50 21
Width: 1200
GlyphClass: 2
Flags: W
LayerCount: 2
Fore
SplineSet
43 0 m 2,0,1
 -32 0 -32 0 -17 65 c 2,2,-1
 -6 113 l 2,3,4
 6 165 6 165 66 216 c 2,5,-1
 438 531 l 2,6,7
 627 691 627 691 771 839 c 128,-1,8
 915 987 915 987 915 1075 c 0,9,10
 915 1170 915 1170 870 1201 c 128,-1,11
 825 1232 825 1232 764 1232 c 0,12,13
 645 1232 645 1232 573 1180 c 128,-1,14
 501 1128 501 1128 447 1031 c 0,15,16
 406 958 406 958 363 980 c 2,17,-1
 268 1029 l 2,18,19
 210 1059 210 1059 240 1123 c 0,20,21
 309 1269 309 1269 435 1362.5 c 128,-1,22
 561 1456 561 1456 801 1456 c 0,23,24
 996 1456 996 1456 1105.5 1359.5 c 128,-1,25
 1215 1263 1215 1263 1215 1094 c 0,26,27
 1215 910 1215 910 997 721 c 128,-1,28
 779 532 779 532 655 429 c 2,29,-1
 440 250 l 1,30,-1
 438 244 l 1,31,32
 499 248 499 248 539 248 c 2,33,-1
 972 248 l 2,34,35
 1047 248 1047 248 1032 183 c 2,36,-1
 1005 65 l 2,37,38
 990 0 990 0 915 0 c 2,39,-1
 43 0 l 2,0,1
EndSplineSet
Substitution2: "'onum' Oldstyle Figures lookup 4 subtable" two.oldstyle
EndChar

StartChar: three
Encoding: 51 51 22
Width: 1200
GlyphClass: 2
Flags: W
LayerCount: 2
Fore
SplineSet
48 95 m 1,0,1
 -3 137 -3 137 22 183 c 2,2,-1
 74 280 l 2,3,4
 107 342 107 342 181 289 c 0,5,6
 237 249 237 249 315.5 219.5 c 128,-1,7
 394 190 394 190 491 190 c 0,8,9
 646 190 646 190 720.5 267 c 128,-1,10
 795 344 795 344 795 442 c 0,11,12
 795 544 795 544 731.5 601 c 128,-1,13
 668 658 668 658 569 658 c 2,14,-1
 504 658 l 2,15,16
 438 658 438 658 451 711 c 2,17,-1
 477 821 l 2,18,19
 490 876 490 876 554 876 c 2,20,-1
 604 876 l 2,21,22
 728 876 728 876 812.5 940 c 128,-1,23
 897 1004 897 1004 897 1096 c 0,24,25
 897 1156 897 1156 850.5 1194 c 128,-1,26
 804 1232 804 1232 699 1232 c 0,27,28
 610 1232 610 1232 544 1203 c 128,-1,29
 478 1174 478 1174 428 1136 c 0,30,31
 363 1087 363 1087 325 1141 c 2,32,-1
 271 1217 l 2,33,34
 235 1267 235 1267 291 1315 c 0,35,36
 363 1377 363 1377 484.5 1416.5 c 128,-1,37
 606 1456 606 1456 752 1456 c 0,38,39
 976 1456 976 1456 1082.5 1354 c 128,-1,40
 1189 1252 1189 1252 1189 1123 c 0,41,42
 1189 978 1189 978 1077.5 889 c 128,-1,43
 966 800 966 800 834 778 c 1,44,-1
 834 774 l 1,45,46
 946 748 946 748 1020.5 655 c 128,-1,47
 1095 562 1095 562 1095 427 c 0,48,49
 1095 260 1095 260 949.5 113 c 128,-1,50
 804 -34 804 -34 473 -34 c 0,51,52
 359 -34 359 -34 240.5 -1 c 128,-1,53
 122 32 122 32 48 95 c 1,0,1
EndSplineSet
Substitution2: "'onum' Oldstyle Figures lookup 4 subtable" three.oldstyle
EndChar

StartChar: four
Encoding: 52 52 23
Width: 1200
GlyphClass: 2
Flags: W
LayerCount: 2
Fore
SplineSet
79 312 m 2,0,1
 14 312 14 312 29 377 c 2,2,-1
 60 509 l 2,3,4
 73 565 73 565 112 608 c 2,5,-1
 830 1388 l 2,6,7
 878 1440 878 1440 935 1440 c 2,8,-1
 1098 1440 l 2,9,10
 1164 1440 1164 1440 1149 1375 c 2,11,-1
 961 560 l 1,12,-1
 1082 560 l 2,13,14
 1147 560 1147 560 1132 495 c 2,15,-1
 1105 377 l 2,16,17
 1090 312 1090 312 1026 312 c 2,18,-1
 904 312 l 1,19,-1
 847 65 l 2,20,21
 832 0 832 0 767 0 c 2,22,-1
 617 0 l 2,23,24
 552 0 552 0 567 65 c 2,25,-1
 624 312 l 1,26,-1
 79 312 l 2,0,1
380 560 m 1,27,-1
 681 560 l 1,28,-1
 764 917 l 2,29,30
 773 957 773 957 786 997 c 1,31,-1
 782 997 l 1,32,-1
 380 560 l 1,27,-1
EndSplineSet
Substitution2: "'onum' Oldstyle Figures lookup 4 subtable" four.oldstyle
EndChar

StartChar: five
Encoding: 53 53 24
Width: 1200
GlyphClass: 2
Flags: W
LayerCount: 2
Fore
SplineSet
32 105 m 0,0,1
 -7 145 -7 145 23 181 c 2,2,-1
 101 276 l 2,3,4
 146 331 146 331 203 279 c 0,5,6
 258 228 258 228 310.5 209 c 128,-1,7
 363 190 363 190 465 190 c 0,8,9
 600 190 600 190 697 278 c 128,-1,10
 794 366 794 366 794 527 c 0,11,12
 794 642 794 642 742 672 c 128,-1,13
 690 702 690 702 635 702 c 0,14,15
 582 702 582 702 545.5 692 c 128,-1,16
 509 682 509 682 434 635 c 0,17,18
 382 602 382 602 334 602 c 2,19,-1
 225 602 l 2,20,21
 160 602 160 602 175 667 c 2,22,-1
 334 1357 l 2,23,24
 349 1422 349 1422 414 1422 c 2,25,-1
 1134 1422 l 2,26,27
 1199 1422 1199 1422 1184 1357 c 2,28,-1
 1157 1239 l 2,29,30
 1142 1174 1142 1174 1077 1174 c 2,31,-1
 572 1174 l 1,32,-1
 515 929 l 2,33,34
 505 886 505 886 488 849 c 1,35,-1
 499 849 l 1,36,37
 564 894 564 894 623 910 c 128,-1,38
 682 926 682 926 760 926 c 0,39,40
 906 926 906 926 1000 821.5 c 128,-1,41
 1094 717 1094 717 1094 513 c 0,42,43
 1094 300 1094 300 923.5 133 c 128,-1,44
 753 -34 753 -34 478 -34 c 0,45,46
 333 -34 333 -34 222 -5 c 128,-1,47
 111 24 111 24 32 105 c 0,0,1
EndSplineSet
Substitution2: "'onum' Oldstyle Figures lookup 4 subtable" five.oldstyle
EndChar

StartChar: six
Encoding: 54 54 25
Width: 1200
GlyphClass: 2
Flags: W
LayerCount: 2
Fore
SplineSet
112 491 m 0,0,1
 112 909 112 909 311 1182.5 c 128,-1,2
 510 1456 510 1456 827 1456 c 0,3,4
 947 1456 947 1456 1031.5 1434.5 c 128,-1,5
 1116 1413 1116 1413 1184 1356 c 0,6,7
 1236 1312 1236 1312 1205 1272 c 2,8,-1
 1128 1173 l 2,9,10
 1097 1133 1097 1133 1035 1173 c 0,11,12
 981 1208 981 1208 929.5 1220 c 128,-1,13
 878 1232 878 1232 818 1232 c 0,14,15
 693 1232 693 1232 580.5 1126 c 128,-1,16
 468 1020 468 1020 417 797 c 1,17,-1
 421 797 l 1,18,19
 484 872 484 872 572 899 c 128,-1,20
 660 926 660 926 741 926 c 0,21,22
 933 926 933 926 1024.5 818.5 c 128,-1,23
 1116 711 1116 711 1116 525 c 0,24,25
 1116 291 1116 291 949.5 128.5 c 128,-1,26
 783 -34 783 -34 529 -34 c 0,27,28
 309 -34 309 -34 210.5 92.5 c 128,-1,29
 112 219 112 219 112 491 c 0,0,1
398 383 m 0,30,31
 398 279 398 279 446.5 234.5 c 128,-1,32
 495 190 495 190 566 190 c 0,33,34
 668 190 668 190 742 296 c 128,-1,35
 816 402 816 402 816 550 c 0,36,37
 816 630 816 630 768 666 c 128,-1,38
 720 702 720 702 660 702 c 0,39,40
 537 702 537 702 467.5 600 c 128,-1,41
 398 498 398 498 398 383 c 0,30,31
EndSplineSet
Substitution2: "'onum' Oldstyle Figures lookup 4 subtable" six.oldstyle
EndChar

StartChar: seven
Encoding: 55 55 26
Width: 1112
GlyphClass: 2
Flags: W
LayerCount: 2
Fore
SplineSet
299 1174 m 2,0,1
 234 1174 234 1174 249 1239 c 2,2,-1
 276 1357 l 2,3,4
 291 1422 291 1422 356 1422 c 2,5,-1
 1172 1422 l 2,6,7
 1237 1422 1237 1422 1222 1357 c 2,8,-1
 1196 1244 l 2,9,10
 1184 1191 1184 1191 1121 1137 c 0,11,12
 869 921 869 921 733 695 c 128,-1,13
 597 469 597 469 518 121 c 2,14,-1
 504 59 l 2,15,16
 489 -6 489 -6 424 -6 c 2,17,-1
 274 -6 l 2,18,19
 210 -6 210 -6 224 59 c 2,20,-1
 230 86 l 2,21,22
 319 489 319 489 501.5 738 c 128,-1,23
 684 987 684 987 897 1174 c 1,24,-1
 898 1178 l 1,25,26
 857 1174 857 1174 817 1174 c 2,27,-1
 299 1174 l 2,0,1
EndSplineSet
Substitution2: "'onum' Oldstyle Figures lookup 4 subtable" seven.oldstyle
Substitution2: "'tnum' Tabular Numbers lookup 3 subtable" seven.tab
EndChar

StartChar: eight
Encoding: 56 56 27
Width: 1200
GlyphClass: 2
Flags: W
LayerCount: 2
Fore
SplineSet
54 331 m 0,0,1
 54 516 54 516 172.5 633 c 128,-1,2
 291 750 291 750 432 767 c 1,3,-1
 432 772 l 1,4,5
 369 801 369 801 312.5 858 c 128,-1,6
 256 915 256 915 256 1025 c 0,7,8
 256 1209 256 1209 405 1332.5 c 128,-1,9
 554 1456 554 1456 774 1456 c 0,10,11
 1012 1456 1012 1456 1109.5 1361 c 128,-1,12
 1207 1266 1207 1266 1207 1123 c 0,13,14
 1207 978 1207 978 1095.5 888 c 128,-1,15
 984 798 984 798 886 772 c 1,16,-1
 886 767 l 1,17,18
 969 729 969 729 1030 661.5 c 128,-1,19
 1091 594 1091 594 1091 443 c 0,20,21
 1091 267 1091 267 945.5 116.5 c 128,-1,22
 800 -34 800 -34 526 -34 c 0,23,24
 303 -34 303 -34 178.5 48 c 128,-1,25
 54 130 54 130 54 331 c 0,0,1
354 381 m 0,26,27
 354 266 354 266 405 228 c 128,-1,28
 456 190 456 190 546 190 c 0,29,30
 646 190 646 190 718.5 264.5 c 128,-1,31
 791 339 791 339 791 453 c 0,32,33
 791 537 791 537 751 590.5 c 128,-1,34
 711 644 711 644 625 644 c 0,35,36
 510 644 510 644 432 560 c 128,-1,37
 354 476 354 476 354 381 c 0,26,27
548 1035 m 0,38,39
 548 952 548 952 589 919 c 128,-1,40
 630 886 630 886 683 886 c 0,41,42
 801 886 801 886 858 950 c 128,-1,43
 915 1014 915 1014 915 1093 c 0,44,45
 915 1156 915 1156 873.5 1194 c 128,-1,46
 832 1232 832 1232 754 1232 c 0,47,48
 668 1232 668 1232 608 1176 c 128,-1,49
 548 1120 548 1120 548 1035 c 0,38,39
EndSplineSet
Substitution2: "'onum' Oldstyle Figures lookup 4 subtable" eight.oldstyle
EndChar

StartChar: nine
Encoding: 57 57 28
Width: 1200
GlyphClass: 2
Flags: W
LayerCount: 2
Fore
SplineSet
171 897 m 0,0,1
 171 1131 171 1131 337.5 1293.5 c 128,-1,2
 504 1456 504 1456 758 1456 c 0,3,4
 978 1456 978 1456 1076.5 1329.5 c 128,-1,5
 1175 1203 1175 1203 1175 931 c 0,6,7
 1175 513 1175 513 976 239.5 c 128,-1,8
 777 -34 777 -34 460 -34 c 0,9,10
 340 -34 340 -34 255.5 -12.5 c 128,-1,11
 171 9 171 9 103 66 c 0,12,13
 51 110 51 110 82 150 c 2,14,-1
 159 249 l 2,15,16
 190 289 190 289 252 249 c 0,17,18
 306 214 306 214 357.5 202 c 128,-1,19
 409 190 409 190 469 190 c 0,20,21
 594 190 594 190 706.5 296 c 128,-1,22
 819 402 819 402 870 625 c 1,23,-1
 866 625 l 1,24,25
 803 550 803 550 715 523 c 128,-1,26
 627 496 627 496 546 496 c 0,27,28
 354 496 354 496 262.5 603.5 c 128,-1,29
 171 711 171 711 171 897 c 0,0,1
471 872 m 0,30,31
 471 792 471 792 519 756 c 128,-1,32
 567 720 567 720 627 720 c 0,33,34
 750 720 750 720 819.5 822 c 128,-1,35
 889 924 889 924 889 1039 c 0,36,37
 889 1143 889 1143 840.5 1187.5 c 128,-1,38
 792 1232 792 1232 721 1232 c 0,39,40
 619 1232 619 1232 545 1126 c 128,-1,41
 471 1020 471 1020 471 872 c 0,30,31
EndSplineSet
Substitution2: "'onum' Oldstyle Figures lookup 4 subtable" nine.oldstyle
EndChar

StartChar: less
Encoding: 60 60 31
Width: 1327
GlyphClass: 2
Flags: W
LayerCount: 2
Fore
SplineSet
175 634 m 2,0,1
 135 655 135 655 135 689 c 2,2,-1
 135 781 l 2,3,4
 135 815 135 815 175 836 c 2,5,-1
 1116 1337 l 2,6,7
 1169 1365 1169 1365 1193 1321 c 2,8,-1
 1230 1250 l 2,9,10
 1253 1206 1253 1206 1201 1178 c 2,11,-1
 367 736 l 1,12,-1
 367 734 l 1,13,-1
 1201 292 l 2,14,15
 1253 264 1253 264 1230 220 c 2,16,-1
 1193 149 l 2,17,18
 1169 105 1169 105 1116 133 c 2,19,-1
 175 634 l 2,0,1
EndSplineSet
EndChar

StartChar: greater
Encoding: 62 62 33
Width: 1327
GlyphClass: 2
Flags: W
LayerCount: 2
Fore
SplineSet
144 220 m 2,0,1
 121 264 121 264 173 292 c 2,2,-1
 1007 734 l 1,3,-1
 1007 736 l 1,4,-1
 173 1178 l 2,5,6
 121 1206 121 1206 144 1250 c 2,7,-1
 181 1321 l 2,8,9
 205 1365 205 1365 258 1337 c 2,10,-1
 1199 836 l 2,11,12
 1239 815 1239 815 1239 781 c 2,13,-1
 1239 689 l 2,14,15
 1239 655 1239 655 1199 634 c 2,16,-1
 258 133 l 2,17,18
 205 105 205 105 181 149 c 2,19,-1
 144 220 l 2,0,1
EndSplineSet
EndChar

StartChar: question
Encoding: 63 63 34
Width: 1106
GlyphClass: 2
Flags: W
LayerCount: 2
Fore
SplineSet
258 1164 m 2,0,1
 199 1217 199 1217 245 1266 c 0,2,3
 312 1338 312 1338 423 1403 c 128,-1,4
 534 1468 534 1468 704 1468 c 0,5,6
 900 1468 900 1468 1018 1395.5 c 128,-1,7
 1136 1323 1136 1323 1136 1158 c 0,8,9
 1136 948 1136 948 919 788 c 128,-1,10
 702 628 702 628 669 494 c 2,11,-1
 665 478 l 2,12,13
 649 413 649 413 585 413 c 2,14,-1
 435 413 l 2,15,16
 370 413 370 413 385 478 c 2,17,-1
 392 508 l 2,18,19
 444 730 444 730 640 873.5 c 128,-1,20
 836 1017 836 1017 836 1134 c 0,21,22
 836 1180 836 1180 802 1212 c 128,-1,23
 768 1244 768 1244 684 1244 c 0,24,25
 614 1244 614 1244 547 1202.5 c 128,-1,26
 480 1161 480 1161 434 1105 c 0,27,28
 387 1048 387 1048 345 1086 c 2,29,-1
 258 1164 l 2,0,1
339 0 m 2,30,31
 269 0 269 0 286 75 c 2,32,-1
 317 209 l 2,33,34
 334 284 334 284 405 284 c 2,35,-1
 557 284 l 2,36,37
 627 284 627 284 609 209 c 2,38,-1
 578 75 l 2,39,40
 561 0 561 0 491 0 c 2,41,-1
 339 0 l 2,30,31
EndSplineSet
EndChar

StartChar: at
Encoding: 64 64 35
Width: 2074
GlyphClass: 2
Flags: W
LayerCount: 2
Fore
SplineSet
112 564 m 0,0,1
 112 964 112 964 375.5 1232 c 128,-1,2
 639 1500 639 1500 1063 1500 c 0,3,4
 1451 1500 1451 1500 1706.5 1288 c 128,-1,5
 1962 1076 1962 1076 1962 700 c 0,6,7
 1962 406 1962 406 1818.5 253 c 128,-1,8
 1675 100 1675 100 1439 100 c 0,9,10
 1337 100 1337 100 1275 133.5 c 128,-1,11
 1213 167 1213 167 1189 271 c 1,12,-1
 1187 271 l 1,13,14
 1126 194 1126 194 1058 147 c 128,-1,15
 990 100 990 100 872 100 c 0,16,17
 755 100 755 100 659.5 188 c 128,-1,18
 564 276 564 276 564 487 c 0,19,20
 564 714 564 714 715.5 878.5 c 128,-1,21
 867 1043 867 1043 1075 1043 c 0,22,23
 1215 1043 1215 1043 1266 897 c 1,24,-1
 1270 897 l 1,25,-1
 1284 958 l 2,26,27
 1295 1006 1295 1006 1343 1006 c 2,28,-1
 1482 1006 l 2,29,30
 1533 1006 1533 1006 1521 954 c 2,31,-1
 1401 422 l 2,32,33
 1384 347 1384 347 1392.5 313.5 c 128,-1,34
 1401 280 1401 280 1450 280 c 0,35,36
 1595 280 1595 280 1684.5 378 c 128,-1,37
 1774 476 1774 476 1774 661 c 0,38,39
 1774 972 1774 972 1586.5 1145 c 128,-1,40
 1399 1318 1399 1318 1063 1318 c 0,41,42
 731 1318 731 1318 515.5 1105 c 128,-1,43
 300 892 300 892 300 570 c 0,44,45
 300 244 300 244 513.5 34 c 128,-1,46
 727 -176 727 -176 1061 -176 c 0,47,48
 1211 -176 1211 -176 1324.5 -153 c 128,-1,49
 1438 -130 1438 -130 1582 -50 c 0,50,51
 1627 -25 1627 -25 1641 -47 c 2,52,-1
 1703 -140 l 2,53,54
 1730 -181 1730 -181 1687 -206 c 0,55,56
 1539 -294 1539 -294 1363.5 -326 c 128,-1,57
 1188 -358 1188 -358 1050 -358 c 0,58,59
 647 -358 647 -358 379.5 -95 c 128,-1,60
 112 168 112 168 112 564 c 0,0,1
806 433 m 0,61,62
 806 366 806 366 838 323 c 128,-1,63
 870 280 870 280 924 280 c 0,64,65
 1017 280 1017 280 1099 376.5 c 128,-1,66
 1181 473 1181 473 1196 582 c 0,67,68
 1205 648 1205 648 1205 704 c 0,69,70
 1205 768 1205 768 1169 815.5 c 128,-1,71
 1133 863 1133 863 1079 863 c 0,72,73
 987 863 987 863 896.5 757 c 128,-1,74
 806 651 806 651 806 433 c 0,61,62
EndSplineSet
EndChar

StartChar: A
Encoding: 65 65 36
Width: 1394
GlyphClass: 2
Flags: W
AnchorPoint: "Anchor-3" 890 1468 basechar 0
AnchorPoint: "Anchor-2" 576 0 basechar 0
AnchorPoint: "Anchor-1" 1127 0 basechar 0
LayerCount: 2
Fore
SplineSet
-30 0 m 2,0,1
 -102 0 -102 0 -63 66 c 2,2,-1
 701 1353 l 2,3,4
 749 1434 749 1434 812 1434 c 2,5,-1
 952 1434 l 2,6,7
 1015 1434 1015 1434 1029 1353 c 2,8,-1
 1245 66 l 2,9,10
 1256 0 1256 0 1184 0 c 2,11,-1
 1045 0 l 2,12,13
 979 0 979 0 968 69 c 2,14,-1
 923 338 l 1,15,-1
 415 338 l 1,16,-1
 256 69 l 2,17,18
 215 0 215 0 149 0 c 2,19,-1
 -30 0 l 2,0,1
561 586 m 1,20,-1
 883 586 l 1,21,-1
 827 904 l 2,22,23
 819 951 819 951 819 981.5 c 128,-1,24
 819 1012 819 1012 825 1061 c 1,25,-1
 821 1061 l 1,26,27
 805 1012 805 1012 795.5 987 c 128,-1,28
 786 962 786 962 751 904 c 2,29,-1
 561 586 l 1,20,-1
EndSplineSet
EndChar

StartChar: B
Encoding: 66 66 37
Width: 1379
GlyphClass: 2
Flags: W
AnchorPoint: "Anchor-3" 894 1468 basechar 0
AnchorPoint: "Anchor-2" 555 0 basechar 0
LayerCount: 2
Fore
SplineSet
120 0 m 2,0,1
 40 0 40 0 57 75 c 2,2,-1
 354 1359 l 2,3,4
 371 1434 371 1434 451 1434 c 2,5,-1
 771 1434 l 2,6,7
 1068 1434 1068 1434 1193 1335 c 128,-1,8
 1318 1236 1318 1236 1318 1076 c 0,9,10
 1318 920 1318 920 1193 840 c 128,-1,11
 1068 760 1068 760 948 750 c 1,12,-1
 948 747 l 1,13,14
 1064 736 1064 736 1158 658 c 128,-1,15
 1252 580 1252 580 1252 423 c 0,16,17
 1252 244 1252 244 1068 122 c 128,-1,18
 884 0 884 0 530 0 c 2,19,-1
 120 0 l 2,0,1
388 244 m 1,20,-1
 554 244 l 2,21,22
 784 244 784 244 862 290 c 128,-1,23
 940 336 940 336 940 452 c 0,24,25
 940 544 940 544 864.5 581 c 128,-1,26
 789 618 789 618 601 618 c 2,27,-1
 475 618 l 1,28,-1
 388 244 l 1,20,-1
529 854 m 1,29,-1
 680 854 l 2,30,31
 840 854 840 854 931 913 c 128,-1,32
 1022 972 1022 972 1022 1056 c 0,33,34
 1022 1132 1022 1132 957 1161 c 128,-1,35
 892 1190 892 1190 718 1190 c 2,36,-1
 607 1190 l 1,37,-1
 529 854 l 1,29,-1
EndSplineSet
EndChar

StartChar: C
Encoding: 67 67 38
Width: 1404
GlyphClass: 2
Flags: W
AnchorPoint: "Anchor-3" 892 1468 basechar 0
AnchorPoint: "Anchor-2" 744 0 basechar 0
LayerCount: 2
Fore
SplineSet
100 588 m 0,0,1
 100 936 100 936 302 1202 c 128,-1,2
 504 1468 504 1468 892 1468 c 0,3,4
 1072 1468 1072 1468 1198 1405.5 c 128,-1,5
 1324 1343 1324 1343 1380 1251 c 0,6,7
 1420 1185 1420 1185 1363 1147 c 2,8,-1
 1239 1064 l 2,9,10
 1193 1033 1193 1033 1143 1100 c 0,11,12
 1093 1166 1093 1166 1018 1199 c 128,-1,13
 943 1232 943 1232 871 1232 c 0,14,15
 660 1232 660 1232 536 1040 c 128,-1,16
 412 848 412 848 412 550 c 0,17,18
 412 399 412 399 490 300.5 c 128,-1,19
 568 202 568 202 757 202 c 0,20,21
 865 202 865 202 937 243.5 c 128,-1,22
 1009 285 1009 285 1050 342 c 0,23,24
 1103 415 1103 415 1150 389 c 2,25,-1
 1277 319 l 2,26,27
 1339 285 1339 285 1295 221 c 0,28,29
 1219 111 1219 111 1078 38.5 c 128,-1,30
 937 -34 937 -34 736 -34 c 0,31,32
 436 -34 436 -34 268 119.5 c 128,-1,33
 100 273 100 273 100 588 c 0,0,1
EndSplineSet
EndChar

StartChar: D
Encoding: 68 68 39
Width: 1402
GlyphClass: 2
Flags: W
AnchorPoint: "Anchor-3" 935 1468 basechar 0
AnchorPoint: "Anchor-2" 596 0 basechar 0
LayerCount: 2
Fore
SplineSet
110 0 m 2,0,1
 40 0 40 0 57 75 c 2,2,-1
 354 1359 l 2,3,4
 371 1434 371 1434 441 1434 c 2,5,-1
 740 1434 l 2,6,7
 1098 1434 1098 1434 1254 1269 c 128,-1,8
 1410 1104 1410 1104 1410 831 c 0,9,10
 1410 471 1410 471 1183 235.5 c 128,-1,11
 956 0 956 0 489 0 c 2,12,-1
 110 0 l 2,0,1
389 248 m 1,13,-1
 527 248 l 2,14,15
 828 248 828 248 963 408 c 128,-1,16
 1098 568 1098 568 1098 852 c 0,17,18
 1098 1005 1098 1005 1024.5 1096.5 c 128,-1,19
 951 1188 951 1188 684 1188 c 2,20,-1
 606 1188 l 1,21,-1
 389 248 l 1,13,-1
EndSplineSet
EndChar

StartChar: E
Encoding: 69 69 40
Width: 1280
GlyphClass: 2
Flags: W
AnchorPoint: "Anchor-3" 896 1468 basechar 0
AnchorPoint: "Anchor-2" 557 0 basechar 0
AnchorPoint: "Anchor-1" 557 0 basechar 0
LayerCount: 2
Fore
SplineSet
110 0 m 2,0,1
 40 0 40 0 57 75 c 2,2,-1
 354 1359 l 2,3,4
 371 1434 371 1434 441 1434 c 2,5,-1
 1299 1434 l 2,6,7
 1374 1434 1374 1434 1359 1369 c 2,8,-1
 1332 1251 l 2,9,10
 1317 1186 1317 1186 1242 1186 c 2,11,-1
 606 1186 l 1,12,-1
 532 868 l 1,13,-1
 1115 868 l 2,14,15
 1190 868 1190 868 1175 803 c 2,16,-1
 1148 685 l 2,17,18
 1133 620 1133 620 1058 620 c 2,19,-1
 475 620 l 1,20,-1
 389 248 l 1,21,-1
 1057 248 l 2,22,23
 1132 248 1132 248 1117 183 c 2,24,-1
 1090 65 l 2,25,26
 1075 0 1075 0 1000 0 c 2,27,-1
 110 0 l 2,0,1
EndSplineSet
EndChar

StartChar: F
Encoding: 70 70 41
Width: 1176
GlyphClass: 2
Flags: W
AnchorPoint: "Anchor-3" 847 1468 basechar 0
AnchorPoint: "Anchor-2" 508 0 basechar 0
LayerCount: 2
Fore
SplineSet
110 0 m 2,0,1
 40 0 40 0 57 75 c 2,2,-1
 354 1359 l 2,3,4
 371 1434 371 1434 441 1434 c 2,5,-1
 1232 1434 l 2,6,7
 1307 1434 1307 1434 1292 1369 c 2,8,-1
 1265 1251 l 2,9,10
 1250 1186 1250 1186 1175 1186 c 2,11,-1
 606 1186 l 1,12,-1
 525 838 l 1,13,-1
 1012 838 l 2,14,15
 1087 838 1087 838 1072 773 c 2,16,-1
 1045 655 l 2,17,18
 1030 590 1030 590 955 590 c 2,19,-1
 468 590 l 1,20,-1
 349 75 l 2,21,22
 332 0 332 0 262 0 c 2,23,-1
 110 0 l 2,0,1
EndSplineSet
EndChar

StartChar: G
Encoding: 71 71 42
Width: 1510
GlyphClass: 2
Flags: W
AnchorPoint: "Anchor-3" 902 1468 basechar 0
AnchorPoint: "Anchor-2" 753 0 basechar 0
LayerCount: 2
Fore
SplineSet
100 588 m 0,0,1
 100 951 100 951 300.5 1209.5 c 128,-1,2
 501 1468 501 1468 902 1468 c 0,3,4
 1082 1468 1082 1468 1213 1410.5 c 128,-1,5
 1344 1353 1344 1353 1400 1261 c 0,6,7
 1440 1195 1440 1195 1383 1157 c 2,8,-1
 1259 1074 l 2,9,10
 1213 1043 1213 1043 1163 1110 c 0,11,12
 1113 1176 1113 1176 1033 1204 c 128,-1,13
 953 1232 953 1232 881 1232 c 0,14,15
 657 1232 657 1232 534.5 1054 c 128,-1,16
 412 876 412 876 412 550 c 0,17,18
 412 399 412 399 485 300.5 c 128,-1,19
 558 202 558 202 766 202 c 0,20,21
 859 202 859 202 937 233 c 128,-1,22
 1015 264 1015 264 1078 312 c 1,23,-1
 1116 476 l 1,24,-1
 899 476 l 2,25,26
 824 476 824 476 839 541 c 2,27,-1
 866 659 l 2,28,29
 881 724 881 724 956 724 c 2,30,-1
 1390 724 l 2,31,32
 1465 724 1465 724 1450 659 c 2,33,-1
 1330 138 l 1,34,35
 1207 66 1207 66 1055.5 16 c 128,-1,36
 904 -34 904 -34 745 -34 c 0,37,38
 447 -34 447 -34 273.5 119.5 c 128,-1,39
 100 273 100 273 100 588 c 0,0,1
EndSplineSet
EndChar

StartChar: H
Encoding: 72 72 43
Width: 1442
GlyphClass: 2
Flags: W
AnchorPoint: "Anchor-3" 939 1468 basechar 0
AnchorPoint: "Anchor-2" 600 0 basechar 0
LayerCount: 2
Fore
SplineSet
110 0 m 2,0,1
 40 0 40 0 57 75 c 2,2,-1
 354 1359 l 2,3,4
 371 1434 371 1434 441 1434 c 2,5,-1
 593 1434 l 2,6,7
 663 1434 663 1434 646 1359 c 2,8,-1
 533 870 l 1,9,-1
 1071 870 l 1,10,-1
 1184 1359 l 2,11,12
 1201 1434 1201 1434 1271 1434 c 2,13,-1
 1423 1434 l 2,14,15
 1493 1434 1493 1434 1476 1359 c 2,16,-1
 1179 75 l 2,17,18
 1162 0 1162 0 1092 0 c 2,19,-1
 940 0 l 2,20,21
 870 0 870 0 887 75 c 2,22,-1
 1014 622 l 1,23,-1
 476 622 l 1,24,-1
 349 75 l 2,25,26
 332 0 332 0 262 0 c 2,27,-1
 110 0 l 2,0,1
EndSplineSet
EndChar

StartChar: I
Encoding: 73 73 44
Width: 612
GlyphClass: 2
Flags: W
AnchorPoint: "Anchor-3" 524 1468 basechar 0
AnchorPoint: "Anchor-2" 185 0 basechar 0
AnchorPoint: "Anchor-1" 186 0 basechar 0
LayerCount: 2
Fore
SplineSet
110 0 m 2,0,1
 40 0 40 0 57 75 c 2,2,-1
 354 1359 l 2,3,4
 371 1434 371 1434 441 1434 c 2,5,-1
 593 1434 l 2,6,7
 663 1434 663 1434 646 1359 c 2,8,-1
 349 75 l 2,9,10
 332 0 332 0 262 0 c 2,11,-1
 110 0 l 2,0,1
EndSplineSet
EndChar

StartChar: J
Encoding: 74 74 45
Width: 947
GlyphClass: 2
Flags: W
AnchorPoint: "Anchor-3" 859 1468 basechar 0
AnchorPoint: "Anchor-2" 298 0 basechar 0
LayerCount: 2
Fore
SplineSet
-26 22 m 0,0,1
 -66 47 -66 47 -48 97 c 2,2,-1
 2 231 l 2,3,4
 23 287 23 287 92 243 c 0,5,6
 156 202 156 202 228 202 c 0,7,8
 343 202 343 202 401 282.5 c 128,-1,9
 459 363 459 363 498 531 c 2,10,-1
 689 1359 l 2,11,12
 706 1434 706 1434 776 1434 c 2,13,-1
 928 1434 l 2,14,15
 998 1434 998 1434 981 1359 c 2,16,-1
 794 551 l 2,17,18
 709 183 709 183 569 74.5 c 128,-1,19
 429 -34 429 -34 207 -34 c 0,20,21
 66 -34 66 -34 -26 22 c 0,0,1
EndSplineSet
EndChar

StartChar: K
Encoding: 75 75 46
Width: 1361
GlyphClass: 2
Flags: W
AnchorPoint: "Anchor-3" 961 1468 basechar 0
AnchorPoint: "Anchor-2" 622 0 basechar 0
LayerCount: 2
Fore
SplineSet
110 0 m 2,0,1
 40 0 40 0 57 75 c 2,2,-1
 354 1359 l 2,3,4
 371 1434 371 1434 441 1434 c 2,5,-1
 593 1434 l 2,6,7
 663 1434 663 1434 646 1359 c 2,8,-1
 561 993 l 2,9,10
 547 935 547 935 523 873 c 1,11,-1
 530 873 l 1,12,-1
 1103 1375 l 2,13,14
 1170 1434 1170 1434 1209 1434 c 2,15,-1
 1449 1434 l 2,16,17
 1565 1434 1565 1434 1467 1348 c 2,18,-1
 894 845 l 1,19,-1
 1203 86 l 2,20,21
 1238 0 1238 0 1145 0 c 2,22,-1
 989 0 l 2,23,24
 937 0 937 0 913 59 c 2,25,-1
 673 652 l 1,26,-1
 434 443 l 1,27,-1
 349 75 l 2,28,29
 332 0 332 0 262 0 c 2,30,-1
 110 0 l 2,0,1
EndSplineSet
EndChar

StartChar: L
Encoding: 76 76 47
Width: 1162
GlyphClass: 2
Flags: W
AnchorPoint: "Anchor-3" 854 1468 basechar 0
AnchorPoint: "Anchor-2" 515 0 basechar 0
LayerCount: 2
Fore
SplineSet
110 0 m 2,0,1
 40 0 40 0 57 75 c 2,2,-1
 354 1359 l 2,3,4
 371 1434 371 1434 441 1434 c 2,5,-1
 603 1434 l 2,6,7
 663 1434 663 1434 646 1359 c 2,8,-1
 389 248 l 1,9,-1
 972 248 l 2,10,11
 1047 248 1047 248 1032 183 c 2,12,-1
 1005 65 l 2,13,14
 990 0 990 0 915 0 c 2,15,-1
 110 0 l 2,0,1
EndSplineSet
EndChar

StartChar: M
Encoding: 77 77 48
Width: 1828
GlyphClass: 2
Flags: W
AnchorPoint: "Anchor-3" 1132 1468 basechar 0
AnchorPoint: "Anchor-2" 793 0 basechar 0
LayerCount: 2
Fore
SplineSet
110 0 m 2,0,1
 40 0 40 0 57 75 c 2,2,-1
 354 1359 l 2,3,4
 371 1434 371 1434 441 1434 c 2,5,-1
 717 1434 l 2,6,7
 776 1434 776 1434 782 1354 c 2,8,-1
 850 477 l 2,9,10
 855 415 855 415 853.5 381 c 128,-1,11
 852 347 852 347 846 297 c 1,12,-1
 852 297 l 1,13,14
 869 347 869 347 883.5 383 c 128,-1,15
 898 419 898 419 930 477 c 2,16,-1
 1404 1354 l 2,17,18
 1447 1434 1447 1434 1505 1434 c 2,19,-1
 1809 1434 l 2,20,21
 1879 1434 1879 1434 1862 1359 c 2,22,-1
 1565 75 l 2,23,24
 1548 0 1548 0 1478 0 c 2,25,-1
 1326 0 l 2,26,27
 1256 0 1256 0 1273 75 c 2,28,-1
 1464 901 l 2,29,30
 1478 960 1478 960 1497 1021 c 1,31,-1
 1490 1021 l 1,32,-1
 984 81 l 2,33,34
 940 0 940 0 879 0 c 2,35,-1
 709 0 l 2,36,37
 648 0 648 0 642 81 c 2,38,-1
 570 1021 l 1,39,-1
 563 1021 l 1,40,41
 554 963 554 963 540 901 c 2,42,-1
 349 75 l 2,43,44
 332 0 332 0 262 0 c 2,45,-1
 110 0 l 2,0,1
EndSplineSet
EndChar

StartChar: N
Encoding: 78 78 49
Width: 1472
GlyphClass: 2
Flags: W
AnchorPoint: "Anchor-3" 954 1468 basechar 0
AnchorPoint: "Anchor-2" 615 0 basechar 0
LayerCount: 2
Fore
SplineSet
110 0 m 2,0,1
 40 0 40 0 57 75 c 2,2,-1
 354 1359 l 2,3,4
 371 1434 371 1434 441 1434 c 2,5,-1
 576 1434 l 2,6,7
 662 1434 662 1434 690 1364 c 2,8,-1
 1019 524 l 1,9,-1
 1026 524 l 1,10,11
 1035 584 1035 584 1049 644 c 2,12,-1
 1214 1359 l 2,13,14
 1231 1434 1231 1434 1301 1434 c 2,15,-1
 1453 1434 l 2,16,17
 1523 1434 1523 1434 1506 1359 c 2,18,-1
 1209 75 l 2,19,20
 1192 0 1192 0 1122 0 c 2,21,-1
 997 0 l 2,22,23
 911 0 911 0 883 70 c 2,24,-1
 548 926 l 1,25,-1
 541 926 l 1,26,27
 532 866 532 866 518 806 c 2,28,-1
 349 75 l 2,29,30
 332 0 332 0 262 0 c 2,31,-1
 110 0 l 2,0,1
EndSplineSet
EndChar

StartChar: O
Encoding: 79 79 50
Width: 1532
GlyphClass: 2
Flags: W
AnchorPoint: "Anchor-3" 880 1468 basechar 0
AnchorPoint: "Anchor-2" 750 0 basechar 0
AnchorPoint: "Anchor-1" 750 0 basechar 0
LayerCount: 2
Fore
SplineSet
104 587 m 0,0,1
 104 957 104 957 317 1212.5 c 128,-1,2
 530 1468 530 1468 880 1468 c 0,3,4
 1180 1468 1180 1468 1349 1312.5 c 128,-1,5
 1518 1157 1518 1157 1518 847 c 0,6,7
 1518 477 1518 477 1305 221.5 c 128,-1,8
 1092 -34 1092 -34 742 -34 c 0,9,10
 442 -34 442 -34 273 121.5 c 128,-1,11
 104 277 104 277 104 587 c 0,0,1
416 545 m 0,12,13
 416 385 416 385 501 293.5 c 128,-1,14
 586 202 586 202 756 202 c 0,15,16
 956 202 956 202 1081 390.5 c 128,-1,17
 1206 579 1206 579 1206 889 c 0,18,19
 1206 1049 1206 1049 1121 1140.5 c 128,-1,20
 1036 1232 1036 1232 866 1232 c 0,21,22
 666 1232 666 1232 541 1043.5 c 128,-1,23
 416 855 416 855 416 545 c 0,12,13
EndSplineSet
EndChar

StartChar: P
Encoding: 80 80 51
Width: 1328
GlyphClass: 2
Flags: W
AnchorPoint: "Anchor-3" 873 1468 basechar 0
AnchorPoint: "Anchor-2" 534 0 basechar 0
LayerCount: 2
Fore
SplineSet
110 0 m 2,0,1
 40 0 40 0 57 75 c 2,2,-1
 354 1359 l 2,3,4
 371 1434 371 1434 441 1434 c 2,5,-1
 795 1434 l 2,6,7
 1076 1434 1076 1434 1212 1341 c 128,-1,8
 1348 1248 1348 1248 1348 1047 c 0,9,10
 1348 820 1348 820 1168 678 c 128,-1,11
 988 536 988 536 628 536 c 2,12,-1
 456 536 l 1,13,-1
 349 75 l 2,14,15
 332 0 332 0 262 0 c 2,16,-1
 110 0 l 2,0,1
512 780 m 1,17,-1
 683 780 l 2,18,19
 892 780 892 780 972 846 c 128,-1,20
 1052 912 1052 912 1052 1011 c 0,21,22
 1052 1113 1052 1113 984 1151.5 c 128,-1,23
 916 1190 916 1190 738 1190 c 2,24,-1
 607 1190 l 1,25,-1
 512 780 l 1,17,-1
EndSplineSet
EndChar

StartChar: Q
Encoding: 81 81 52
Width: 1532
GlyphClass: 2
Flags: W
AnchorPoint: "Anchor-3" 880 1468 basechar 0
AnchorPoint: "Anchor-2" 553 -400 basechar 0
LayerCount: 2
Fore
SplineSet
104 587 m 0,0,1
 104 957 104 957 317 1212.5 c 128,-1,2
 530 1468 530 1468 880 1468 c 0,3,4
 1180 1468 1180 1468 1349 1312.5 c 128,-1,5
 1518 1157 1518 1157 1518 847 c 0,6,7
 1518 478 1518 478 1305 222 c 0,8,9
 1140 24 1140 24 892 -21 c 1,10,11
 898 -111 898 -111 930 -156.5 c 128,-1,12
 962 -202 962 -202 1069 -202 c 0,13,14
 1119 -202 1119 -202 1173 -185 c 0,15,16
 1221 -170 1221 -170 1231 -207 c 2,17,-1
 1264 -323 l 2,18,19
 1274 -358 1274 -358 1228 -373 c 0,20,21
 1125 -407 1125 -407 1007 -407 c 0,22,23
 790 -407 790 -407 698.5 -305 c 128,-1,24
 607 -203 607 -203 599 -24 c 1,25,26
 399 6 399 6 273 122 c 0,27,28
 104 278 104 278 104 587 c 0,0,1
416 545 m 0,29,30
 416 385 416 385 501 293.5 c 128,-1,31
 586 202 586 202 756 202 c 0,32,33
 956 202 956 202 1081 390.5 c 128,-1,34
 1206 579 1206 579 1206 889 c 0,35,36
 1206 1049 1206 1049 1121 1140.5 c 128,-1,37
 1036 1232 1036 1232 866 1232 c 0,38,39
 666 1232 666 1232 541 1043.5 c 128,-1,40
 416 855 416 855 416 545 c 0,29,30
EndSplineSet
EndChar

StartChar: R
Encoding: 82 82 53
Width: 1428
GlyphClass: 2
Flags: W
AnchorPoint: "Anchor-3" 873 1468 basechar 0
AnchorPoint: "Anchor-2" 534 0 basechar 0
LayerCount: 2
Fore
SplineSet
110 0 m 2,0,1
 40 0 40 0 57 75 c 2,2,-1
 354 1359 l 2,3,4
 371 1434 371 1434 441 1434 c 2,5,-1
 851 1434 l 2,6,7
 1152 1434 1152 1434 1279.5 1339.5 c 128,-1,8
 1407 1245 1407 1245 1407 1077 c 0,9,10
 1407 917 1407 917 1276.5 797.5 c 128,-1,11
 1146 678 1146 678 908 647 c 1,12,-1
 908 645 l 1,13,14
 987 612 987 612 1022 549 c 128,-1,15
 1057 486 1057 486 1078 433 c 2,16,-1
 1212 86 l 2,17,18
 1245 0 1245 0 1154 0 c 2,19,-1
 1001 0 l 2,20,21
 946 0 946 0 925 59 c 2,22,-1
 806 396 l 2,23,24
 779 473 779 473 713.5 526 c 128,-1,25
 648 579 648 579 560 579 c 2,26,-1
 466 579 l 1,27,-1
 349 75 l 2,28,29
 332 0 332 0 262 0 c 2,30,-1
 110 0 l 2,0,1
523 827 m 1,31,-1
 732 827 l 2,32,33
 876 827 876 827 998.5 883 c 128,-1,34
 1121 939 1121 939 1121 1049 c 0,35,36
 1121 1137 1121 1137 1034.5 1163.5 c 128,-1,37
 948 1190 948 1190 794 1190 c 2,38,-1
 607 1190 l 1,39,-1
 523 827 l 1,31,-1
EndSplineSet
EndChar

StartChar: S
Encoding: 83 83 54
Width: 1299
GlyphClass: 2
Flags: W
AnchorPoint: "Anchor-3" 799 1468 basechar 0
AnchorPoint: "Anchor-2" 567 0 basechar 0
LayerCount: 2
Fore
SplineSet
84 114 m 0,0,1
 26 165 26 165 64 212 c 2,2,-1
 151 319 l 2,3,4
 191 368 191 368 262 314 c 0,5,6
 318 272 318 272 405.5 237 c 128,-1,7
 493 202 493 202 595 202 c 256,8,9
 697 202 697 202 761.5 229 c 128,-1,10
 826 256 826 256 853.5 299 c 128,-1,11
 881 342 881 342 881 397 c 0,12,13
 881 436 881 436 860.5 473 c 128,-1,14
 840 510 840 510 803.5 530 c 128,-1,15
 767 550 767 550 720 567 c 0,16,17
 660 589 660 589 603 611.5 c 128,-1,18
 546 634 546 634 468 672 c 0,19,20
 405 703 405 703 361.5 735.5 c 128,-1,21
 318 768 318 768 279 844 c 128,-1,22
 240 920 240 920 240 1035 c 0,23,24
 240 1162 240 1162 325.5 1277.5 c 128,-1,25
 411 1393 411 1393 537.5 1430.5 c 128,-1,26
 664 1468 664 1468 799 1468 c 0,27,28
 935 1468 935 1468 1052.5 1431 c 128,-1,29
 1170 1394 1170 1394 1228 1337 c 256,30,31
 1286 1280 1286 1280 1249 1238 c 2,32,-1
 1161 1138 l 2,33,34
 1118 1089 1118 1089 1051 1141 c 1,35,36
 1000 1182 1000 1182 929 1207 c 128,-1,37
 858 1232 858 1232 773 1232 c 256,38,39
 688 1232 688 1232 638.5 1214 c 128,-1,40
 589 1196 589 1196 559.5 1154 c 128,-1,41
 530 1112 530 1112 530 1068 c 0,42,43
 530 1033 530 1033 542 1000.5 c 128,-1,44
 554 968 554 968 579 941 c 128,-1,45
 604 914 604 914 650 892 c 0,46,47
 714 862 714 862 797 837.5 c 128,-1,48
 880 813 880 813 933 791 c 0,49,50
 1011 759 1011 759 1067.5 706.5 c 128,-1,51
 1124 654 1124 654 1150.5 580 c 128,-1,52
 1177 506 1177 506 1177 416 c 0,53,54
 1177 292 1177 292 1111.5 197 c 128,-1,55
 1046 102 1046 102 913 34 c 128,-1,56
 780 -34 780 -34 559 -34 c 0,57,58
 381 -34 381 -34 278.5 -0.5 c 128,-1,59
 176 33 176 33 84 114 c 0,0,1
EndSplineSet
EndChar

StartChar: T
Encoding: 84 84 55
Width: 1246
GlyphClass: 2
Flags: W
AnchorPoint: "Anchor-3" 841 1468 basechar 0
AnchorPoint: "Anchor-2" 502 0 basechar 0
LayerCount: 2
Fore
SplineSet
261 1178 m 2,0,1
 186 1178 186 1178 201 1243 c 2,2,-1
 230 1369 l 2,3,4
 245 1434 245 1434 320 1434 c 2,5,-1
 1348 1434 l 2,6,7
 1423 1434 1423 1434 1408 1369 c 2,8,-1
 1379 1243 l 2,9,10
 1364 1178 1364 1178 1289 1178 c 2,11,-1
 921 1178 l 1,12,-1
 662 55 l 2,13,14
 649 0 649 0 599 0 c 2,15,-1
 407 0 l 2,16,17
 357 0 357 0 370 55 c 2,18,-1
 629 1178 l 1,19,-1
 261 1178 l 2,0,1
EndSplineSet
EndChar

StartChar: U
Encoding: 85 85 56
Width: 1422
GlyphClass: 2
Flags: W
AnchorPoint: "Anchor-3" 929 1468 basechar 0
AnchorPoint: "Anchor-2" 615 0 basechar 0
AnchorPoint: "Anchor-1" 615 0 basechar 0
LayerCount: 2
Fore
SplineSet
178 597 m 2,0,-1
 358 1379 l 2,1,2
 371 1434 371 1434 441 1434 c 2,3,-1
 593 1434 l 2,4,5
 663 1434 663 1434 650 1379 c 2,6,-1
 472 607 l 2,7,8
 410 339 410 339 465 270.5 c 128,-1,9
 520 202 520 202 637 202 c 0,10,11
 738 202 738 202 836.5 284.5 c 128,-1,12
 935 367 935 367 990 607 c 2,13,-1
 1168 1379 l 2,14,15
 1181 1434 1181 1434 1251 1434 c 2,16,-1
 1403 1434 l 2,17,18
 1473 1434 1473 1434 1460 1379 c 2,19,-1
 1280 597 l 2,20,21
 1196 233 1196 233 1042 99.5 c 128,-1,22
 888 -34 888 -34 607 -34 c 0,23,24
 366 -34 366 -34 233.5 114.5 c 128,-1,25
 101 263 101 263 178 597 c 2,0,-1
EndSplineSet
EndChar

StartChar: V
Encoding: 86 86 57
Width: 1370
GlyphClass: 2
Flags: W
AnchorPoint: "Anchor-3" 903 1468 basechar 0
AnchorPoint: "Anchor-2" 565 0 basechar 0
LayerCount: 2
Fore
SplineSet
239 1368 m 2,0,1
 230 1434 230 1434 301 1434 c 2,2,-1
 440 1434 l 2,3,4
 507 1434 507 1434 516 1365 c 2,5,-1
 629 530 l 1,6,7
 636 470 636 470 636 446 c 128,-1,8
 636 422 636 422 629 373 c 1,9,-1
 633 373 l 1,10,11
 650 422 650 422 660.5 447 c 128,-1,12
 671 472 671 472 705 530 c 2,13,-1
 1204 1365 l 2,14,15
 1245 1434 1245 1434 1312 1434 c 2,16,-1
 1491 1434 l 2,17,18
 1563 1434 1563 1434 1523 1368 c 2,19,-1
 748 81 l 2,20,21
 699 0 699 0 635 0 c 2,22,-1
 495 0 l 2,23,24
 431 0 431 0 420 81 c 2,25,-1
 239 1368 l 2,0,1
EndSplineSet
EndChar

StartChar: W
Encoding: 87 87 58
Width: 2022
GlyphClass: 2
Flags: W
AnchorPoint: "Anchor-3" 1229 1468 basechar 0
AnchorPoint: "Anchor-2" 890 0 basechar 0
LayerCount: 2
Fore
SplineSet
238 1354 m 2,0,1
 235 1434 235 1434 302 1434 c 2,2,-1
 472 1434 l 2,3,4
 519 1434 519 1434 520 1368 c 2,5,-1
 528 582 l 2,6,7
 529 491 529 491 528.5 462 c 128,-1,8
 528 433 528 433 517 363 c 1,9,-1
 522 363 l 1,10,11
 543 433 543 433 556.5 469.5 c 128,-1,12
 570 506 570 506 613 588 c 2,13,-1
 1014 1360 l 2,14,15
 1052 1434 1052 1434 1115 1434 c 2,16,-1
 1299 1434 l 2,17,18
 1362 1434 1362 1434 1366 1360 c 2,19,-1
 1411 588 l 2,20,21
 1416 504 1416 504 1412.5 468.5 c 128,-1,22
 1409 433 1409 433 1398 363 c 1,23,-1
 1403 363 l 1,24,25
 1424 433 1424 433 1443.5 476.5 c 128,-1,26
 1463 520 1463 520 1492 582 c 2,27,-1
 1864 1368 l 2,28,29
 1895 1434 1895 1434 1942 1434 c 2,30,-1
 2142 1434 l 2,31,32
 2210 1434 2210 1434 2170 1354 c 2,33,-1
 1539 97 l 2,34,35
 1490 0 1490 0 1423 0 c 2,36,-1
 1248 0 l 2,37,38
 1190 0 1190 0 1185 96 c 2,39,-1
 1139 934 l 2,40,41
 1135 1004 1135 1004 1136.5 1023.5 c 128,-1,42
 1138 1043 1138 1043 1146 1099 c 1,43,-1
 1144 1099 l 1,44,45
 1126 1043 1126 1043 1117.5 1021.5 c 128,-1,46
 1109 1000 1109 1000 1075 934 c 2,47,-1
 641 96 l 2,48,49
 591 0 591 0 534 0 c 2,50,-1
 359 0 l 2,51,52
 291 0 291 0 287 97 c 2,53,-1
 238 1354 l 2,0,1
EndSplineSet
EndChar

StartChar: X
Encoding: 88 88 59
Width: 1392
GlyphClass: 2
Flags: W
AnchorPoint: "Anchor-3" 916 1468 basechar 0
AnchorPoint: "Anchor-2" 577 0 basechar 0
LayerCount: 2
Fore
SplineSet
-12 0 m 2,0,1
 -109 0 -109 0 -30 86 c 2,2,-1
 594 764 l 1,3,-1
 297 1348 l 2,4,5
 253 1434 253 1434 355 1434 c 2,6,-1
 531 1434 l 2,7,8
 582 1434 582 1434 607 1375 c 2,9,-1
 782 958 l 1,10,-1
 1120 1375 l 2,11,12
 1168 1434 1168 1434 1224 1434 c 2,13,-1
 1459 1434 l 2,14,15
 1557 1434 1557 1434 1477 1348 c 2,16,-1
 898 722 l 1,17,-1
 1222 86 l 2,18,19
 1266 0 1266 0 1164 0 c 2,20,-1
 985 0 l 2,21,22
 934 0 934 0 909 59 c 2,23,-1
 709 528 l 1,24,-1
 330 59 l 2,25,26
 282 0 282 0 226 0 c 2,27,-1
 -12 0 l 2,0,1
EndSplineSet
EndChar

StartChar: Y
Encoding: 89 89 60
Width: 1368
GlyphClass: 2
Flags: W
AnchorPoint: "Anchor-3" 902 1468 basechar 0
AnchorPoint: "Anchor-2" 563 0 basechar 0
LayerCount: 2
Fore
SplineSet
242 1348 m 2,0,1
 211 1434 211 1434 309 1434 c 2,2,-1
 454 1434 l 2,3,4
 506 1434 506 1434 530 1365 c 2,5,-1
 657 994 l 2,6,7
 674 943 674 943 692.5 885.5 c 128,-1,8
 711 828 711 828 711 748 c 1,9,-1
 715 748 l 1,10,11
 734 819 734 819 778.5 877.5 c 128,-1,12
 823 936 823 936 869 994 c 2,13,-1
 1168 1365 l 2,14,15
 1224 1434 1224 1434 1276 1434 c 2,16,-1
 1481 1434 l 2,17,18
 1579 1434 1579 1434 1508 1348 c 2,19,-1
 831 525 l 1,20,-1
 723 55 l 2,21,22
 710 0 710 0 640 0 c 2,23,-1
 488 0 l 2,24,25
 418 0 418 0 431 55 c 2,26,-1
 539 525 l 1,27,-1
 242 1348 l 2,0,1
EndSplineSet
EndChar

StartChar: Z
Encoding: 90 90 61
Width: 1252
GlyphClass: 2
Flags: W
AnchorPoint: "Anchor-3" 845 1468 basechar 0
AnchorPoint: "Anchor-2" 506 0 basechar 0
LayerCount: 2
Fore
SplineSet
16 0 m 2,0,1
 -59 0 -59 0 -44 65 c 2,2,-1
 -25 147 l 2,3,4
 -8 219 -8 219 58 290 c 2,5,-1
 894 1184 l 1,6,-1
 896 1191 l 1,7,8
 835 1186 835 1186 775 1186 c 2,9,-1
 330 1186 l 2,10,11
 255 1186 255 1186 270 1251 c 2,12,-1
 297 1369 l 2,13,14
 312 1434 312 1434 387 1434 c 2,15,-1
 1299 1434 l 2,16,17
 1374 1434 1374 1434 1359 1369 c 2,18,-1
 1344 1302 l 2,19,20
 1332 1247 1332 1247 1285 1197 c 2,21,-1
 398 250 l 1,22,-1
 396 243 l 1,23,24
 457 248 457 248 517 248 c 2,25,-1
 1053 248 l 2,26,27
 1128 248 1128 248 1113 183 c 2,28,-1
 1086 65 l 2,29,30
 1071 0 1071 0 996 0 c 2,31,-1
 16 0 l 2,0,1
EndSplineSet
EndChar

StartChar: bracketleft
Encoding: 91 91 62
Width: 694
GlyphClass: 2
Flags: W
LayerCount: 2
Fore
SplineSet
6 -408 m 2,0,1
 -54 -408 -54 -408 -40 -348 c 2,2,-1
 372 1436 l 2,3,4
 386 1496 386 1496 445 1496 c 2,5,-1
 793 1496 l 2,6,7
 853 1496 853 1496 842 1446 c 2,8,-1
 819 1346 l 2,9,10
 807 1296 807 1296 747 1296 c 2,11,-1
 619 1296 l 1,12,-1
 272 -208 l 1,13,-1
 400 -208 l 2,14,15
 460 -208 460 -208 448 -258 c 2,16,-1
 425 -358 l 2,17,18
 413 -408 413 -408 354 -408 c 2,19,-1
 6 -408 l 2,0,1
EndSplineSet
EndChar

StartChar: backslash
Encoding: 92 92 63
Width: 856
GlyphClass: 2
Flags: W
LayerCount: 2
Fore
SplineSet
138 1365 m 2,0,1
 124 1424 124 1424 173 1439 c 2,2,-1
 253 1464 l 2,3,4
 302 1479 302 1479 315 1426 c 2,5,-1
 738 -310 l 2,6,7
 752 -369 752 -369 703 -384 c 2,8,-1
 623 -409 l 2,9,10
 574 -424 574 -424 561 -371 c 2,11,-1
 138 1365 l 2,0,1
EndSplineSet
EndChar

StartChar: bracketright
Encoding: 93 93 64
Width: 694
GlyphClass: 2
Flags: W
LayerCount: 2
Fore
SplineSet
-88 -408 m 2,0,1
 -148 -408 -148 -408 -137 -358 c 2,2,-1
 -114 -258 l 2,3,4
 -102 -208 -102 -208 -42 -208 c 2,5,-1
 86 -208 l 1,6,-1
 433 1296 l 1,7,-1
 305 1296 l 2,8,9
 245 1296 245 1296 257 1346 c 2,10,-1
 280 1446 l 2,11,12
 292 1496 292 1496 351 1496 c 2,13,-1
 699 1496 l 2,14,15
 759 1496 759 1496 745 1436 c 2,16,-1
 333 -348 l 2,17,18
 319 -408 319 -408 260 -408 c 2,19,-1
 -88 -408 l 2,0,1
EndSplineSet
EndChar

StartChar: asciicircum
Encoding: 94 94 65
Width: 920
GlyphClass: 2
Flags: W
LayerCount: 2
Fore
SplineSet
185 929 m 2,0,1
 145 958 145 958 180 1007 c 2,2,-1
 470 1405 l 2,3,4
 496 1441 496 1441 542 1441 c 2,5,-1
 578 1441 l 2,6,7
 624 1441 624 1441 650 1405 c 2,8,-1
 940 1007 l 2,9,10
 976 958 976 958 935 929 c 2,11,-1
 873 885 l 2,12,13
 832 856 832 856 798 904 c 2,14,-1
 561 1233 l 1,15,-1
 559 1233 l 1,16,-1
 322 904 l 2,17,18
 288 856 288 856 247 885 c 2,19,-1
 185 929 l 2,0,1
EndSplineSet
EndChar

StartChar: underscore
Encoding: 95 95 66
Width: 1200
GlyphClass: 2
Flags: W
LayerCount: 2
Fore
SplineSet
-160 -425 m 2,0,1
 -220 -425 -220 -425 -220 -375 c 2,2,-1
 -220 -275 l 2,3,4
 -220 -225 -220 -225 -160 -225 c 2,5,-1
 970 -225 l 2,6,7
 1030 -225 1030 -225 1030 -275 c 2,8,-1
 1030 -375 l 2,9,10
 1030 -425 1030 -425 970 -425 c 2,11,-1
 -160 -425 l 2,0,1
EndSplineSet
EndChar

StartChar: grave
Encoding: 96 96 67
Width: 614
GlyphClass: 2
Flags: W
LayerCount: 2
Fore
SplineSet
328 1376 m 2,0,1
 279 1435 279 1435 363 1435 c 2,2,-1
 515 1435 l 2,3,4
 587 1435 587 1435 610 1388 c 2,5,-1
 697 1209 l 2,6,7
 726 1150 726 1150 662 1150 c 2,8,-1
 576 1150 l 2,9,10
 515 1150 515 1150 484 1187 c 2,11,-1
 328 1376 l 2,0,1
EndSplineSet
EndChar

StartChar: a
Encoding: 97 97 68
Width: 1178
GlyphClass: 2
Flags: W
AnchorPoint: "Anchor-3" 652 1070 basechar 0
AnchorPoint: "Anchor-2" 405 0 basechar 0
AnchorPoint: "Anchor-1" 403 0 basechar 0
LayerCount: 2
Fore
SplineSet
62 379 m 0,0,1
 62 660 62 660 244.5 865 c 128,-1,2
 427 1070 427 1070 652 1070 c 0,3,4
 697 1070 697 1070 756 1047 c 128,-1,5
 815 1024 815 1024 863 954 c 1,6,-1
 867 954 l 1,7,-1
 884 990 l 2,8,9
 912 1050 912 1050 951 1050 c 2,10,-1
 1104 1050 l 2,11,12
 1165 1050 1165 1050 1151 990 c 2,13,-1
 936 60 l 2,14,15
 922 0 922 0 862 0 c 2,16,-1
 709 0 l 2,17,18
 653 0 653 0 664 60 c 2,19,-1
 678 138 l 1,20,-1
 674 138 l 1,21,22
 615 66 615 66 549 23 c 128,-1,23
 483 -20 483 -20 398 -20 c 0,24,25
 239 -20 239 -20 150.5 101 c 128,-1,26
 62 222 62 222 62 379 c 0,0,1
358 360 m 0,27,28
 358 274 358 274 396.5 225 c 128,-1,29
 435 176 435 176 483 176 c 0,30,31
 569 176 569 176 645.5 262.5 c 128,-1,32
 722 349 722 349 763 522 c 2,33,-1
 800 680 l 1,34,35
 800 771 800 771 767 822.5 c 128,-1,36
 734 874 734 874 648 874 c 0,37,38
 524 874 524 874 441 716 c 128,-1,39
 358 558 358 558 358 360 c 0,27,28
EndSplineSet
EndChar

StartChar: b
Encoding: 98 98 69
Width: 1192
GlyphClass: 2
Flags: W
AnchorPoint: "Anchor-3" 848 1476 basechar 0
AnchorPoint: "Anchor-2" 507 0 basechar 0
LayerCount: 2
Fore
SplineSet
76 0 m 2,0,1
 16 0 16 0 30 60 c 2,2,-1
 343 1416 l 2,3,4
 357 1476 357 1476 417 1476 c 2,5,-1
 577 1476 l 2,6,7
 637 1476 637 1476 623 1416 c 2,8,-1
 526 992 l 2,9,10
 517 951 517 951 503 912 c 1,11,-1
 507 912 l 1,12,13
 579 998 579 998 636 1034 c 128,-1,14
 693 1070 693 1070 766 1070 c 0,15,16
 964 1070 964 1070 1046.5 940 c 128,-1,17
 1129 810 1129 810 1129 651 c 0,18,19
 1129 388 1129 388 968.5 184 c 128,-1,20
 808 -20 808 -20 596 -20 c 0,21,22
 524 -20 524 -20 446 -1 c 128,-1,23
 368 18 368 18 318 96 c 1,24,-1
 314 96 l 1,25,-1
 302 60 l 2,26,27
 282 0 282 0 234 0 c 2,28,-1
 76 0 l 2,0,1
381 370 m 1,29,30
 381 274 381 274 414.5 225 c 128,-1,31
 448 176 448 176 548 176 c 0,32,33
 683 176 683 176 758 328 c 128,-1,34
 833 480 833 480 833 670 c 0,35,36
 833 774 833 774 794.5 824 c 128,-1,37
 756 874 756 874 688 874 c 0,38,39
 618 874 618 874 537.5 785 c 128,-1,40
 457 696 457 696 418 528 c 2,41,-1
 381 370 l 1,29,30
EndSplineSet
EndChar

StartChar: c
Encoding: 99 99 70
Width: 1086
GlyphClass: 2
Flags: W
AnchorPoint: "Anchor-3" 673 1070 basechar 0
AnchorPoint: "Anchor-2" 523 0 basechar 0
LayerCount: 2
Fore
SplineSet
58 412 m 0,0,1
 58 644 58 644 226 857 c 128,-1,2
 394 1070 394 1070 673 1070 c 0,3,4
 822 1070 822 1070 900 1025 c 128,-1,5
 978 980 978 980 1029 906 c 0,6,7
 1058 864 1058 864 1012 833 c 2,8,-1
 903 760 l 2,9,10
 864 734 864 734 826 790 c 0,11,12
 805 821 805 821 769 847.5 c 128,-1,13
 733 874 733 874 663 874 c 0,14,15
 550 874 550 874 452 748 c 128,-1,16
 354 622 354 622 354 387 c 0,17,18
 354 282 354 282 403 229 c 128,-1,19
 452 176 452 176 536 176 c 0,20,21
 614 176 614 176 663.5 209 c 128,-1,22
 713 242 713 242 760 301 c 0,23,24
 797 347 797 347 841 306 c 2,25,-1
 922 231 l 2,26,27
 961 195 961 195 920 143 c 0,28,29
 881 93 881 93 782.5 36.5 c 128,-1,30
 684 -20 684 -20 518 -20 c 0,31,32
 258 -20 258 -20 158 108.5 c 128,-1,33
 58 237 58 237 58 412 c 0,0,1
EndSplineSet
EndChar

StartChar: d
Encoding: 100 100 71
Width: 1192
GlyphClass: 2
Flags: W
AnchorPoint: "Anchor-3" 786 1476 basechar 0
AnchorPoint: "Anchor-2" 444 0 basechar 0
LayerCount: 2
Fore
SplineSet
66 399 m 0,0,1
 66 662 66 662 226.5 866 c 128,-1,2
 387 1070 387 1070 599 1070 c 0,3,4
 671 1070 671 1070 749 1051 c 128,-1,5
 827 1032 827 1032 877 954 c 1,6,-1
 881 954 l 1,7,8
 885 985 885 985 896 1034 c 2,9,-1
 983 1416 l 2,10,11
 997 1476 997 1476 1057 1476 c 2,12,-1
 1217 1476 l 2,13,14
 1277 1476 1277 1476 1263 1416 c 2,15,-1
 950 60 l 2,16,17
 936 0 936 0 876 0 c 2,18,-1
 718 0 l 2,19,20
 667 0 667 0 678 60 c 2,21,-1
 692 138 l 1,22,-1
 688 138 l 1,23,24
 616 52 616 52 559 16 c 128,-1,25
 502 -20 502 -20 429 -20 c 0,26,27
 231 -20 231 -20 148.5 110 c 128,-1,28
 66 240 66 240 66 399 c 0,0,1
362 380 m 0,29,30
 362 276 362 276 400.5 226 c 128,-1,31
 439 176 439 176 507 176 c 0,32,33
 577 176 577 176 657.5 265 c 128,-1,34
 738 354 738 354 777 522 c 2,35,-1
 814 680 l 1,36,37
 814 776 814 776 780.5 825 c 128,-1,38
 747 874 747 874 647 874 c 0,39,40
 512 874 512 874 437 722 c 128,-1,41
 362 570 362 570 362 380 c 0,29,30
EndSplineSet
EndChar

StartChar: e
Encoding: 101 101 72
Width: 1150
GlyphClass: 2
Flags: W
AnchorPoint: "Anchor-3" 679 1070 basechar 0
AnchorPoint: "Anchor-2" 539 0 basechar 0
AnchorPoint: "Anchor-1" 539 0 basechar 0
LayerCount: 2
Fore
SplineSet
58 415 m 0,0,1
 58 646 58 646 223 858 c 128,-1,2
 388 1070 388 1070 679 1070 c 0,3,4
 880 1070 880 1070 992 980 c 128,-1,5
 1104 890 1104 890 1104 774 c 0,6,7
 1104 582 1104 582 961.5 522 c 128,-1,8
 819 462 819 462 566 418 c 2,9,-1
 357 382 l 1,10,11
 356 369 356 369 356 354 c 0,12,13
 356 290 356 290 391 233 c 128,-1,14
 426 176 426 176 552 176 c 0,15,16
 624 176 624 176 699 203.5 c 128,-1,17
 774 231 774 231 819 265 c 0,18,19
 871 304 871 304 900 265 c 2,20,-1
 959 187 l 2,21,22
 995 140 995 140 951 99 c 0,23,24
 886 39 886 39 781 9.5 c 128,-1,25
 676 -20 676 -20 534 -20 c 0,26,27
 258 -20 258 -20 158 107 c 128,-1,28
 58 234 58 234 58 415 c 0,0,1
370 570 m 1,29,-1
 589 606 l 2,30,31
 694 623 694 623 780.5 656.5 c 128,-1,32
 867 690 867 690 867 751 c 0,33,34
 867 806 867 806 814.5 840 c 128,-1,35
 762 874 762 874 682 874 c 0,36,37
 555 874 555 874 479.5 786 c 128,-1,38
 404 698 404 698 370 570 c 1,29,-1
EndSplineSet
EndChar

StartChar: f
Encoding: 102 102 73
Width: 682
GlyphClass: 2
Flags: W
AnchorPoint: "Anchor-3" 692 1476 basechar 0
AnchorPoint: "Anchor-2" 131 -400 basechar 0
LayerCount: 2
Fore
SplineSet
177 850 m 2,0,1
 119 850 119 850 130 900 c 2,2,-1
 153 1000 l 2,3,4
 165 1050 165 1050 223 1050 c 2,5,-1
 279 1050 l 1,6,-1
 312 1190 l 2,7,8
 350 1353 350 1353 451 1424.5 c 128,-1,9
 552 1496 552 1496 732 1496 c 0,10,11
 791 1496 791 1496 837 1484.5 c 128,-1,12
 883 1473 883 1473 921 1458 c 0,13,14
 956 1444 956 1444 940 1405 c 2,15,-1
 895 1297 l 2,16,17
 885 1272 885 1272 846 1284 c 0,18,19
 817 1293 817 1293 782 1296.5 c 128,-1,20
 747 1300 747 1300 724 1300 c 0,21,22
 640 1300 640 1300 616.5 1242 c 128,-1,23
 593 1184 593 1184 569 1090 c 2,24,-1
 559 1050 l 1,25,-1
 691 1050 l 2,26,27
 751 1050 751 1050 739 1000 c 2,28,-1
 716 900 l 2,29,30
 704 850 704 850 645 850 c 2,31,-1
 513 850 l 1,32,-1
 239 -340 l 2,33,34
 225 -400 225 -400 165 -400 c 2,35,-1
 5 -400 l 2,36,37
 -55 -400 -55 -400 -41 -340 c 2,38,-1
 233 850 l 1,39,-1
 177 850 l 2,0,1
EndSplineSet
EndChar

StartChar: g
Encoding: 103 103 74
Width: 1192
GlyphClass: 2
Flags: W
AnchorPoint: "Anchor-3" 692 1070 basechar 0
AnchorPoint: "Anchor-2" 330 -400 basechar 0
LayerCount: 2
Fore
SplineSet
66 402 m 0,0,1
 66 662 66 662 226.5 866 c 128,-1,2
 387 1070 387 1070 599 1070 c 0,3,4
 671 1070 671 1070 749 1051 c 128,-1,5
 827 1032 827 1032 877 954 c 1,6,-1
 881 954 l 1,7,-1
 893 990 l 2,8,9
 913 1050 913 1050 960 1050 c 2,10,-1
 1118 1050 l 2,11,12
 1179 1050 1179 1050 1165 990 c 2,13,-1
 939 11 l 2,14,15
 885 -223 885 -223 740.5 -321.5 c 128,-1,16
 596 -420 596 -420 325 -420 c 0,17,18
 210 -420 210 -420 141.5 -403 c 128,-1,19
 73 -386 73 -386 -9 -342 c 0,20,21
 -51 -320 -51 -320 -18 -263 c 2,22,-1
 25 -190 l 2,23,24
 52 -144 52 -144 103 -170 c 0,25,26
 140 -189 140 -189 197 -206.5 c 128,-1,27
 254 -224 254 -224 340 -224 c 0,28,29
 448 -224 448 -224 538 -176 c 128,-1,30
 628 -128 628 -128 663 31 c 2,31,-1
 671 67 l 2,32,33
 679 103 679 103 694 147 c 1,34,-1
 690 147 l 1,35,36
 618 61 618 61 561 25 c 128,-1,37
 504 -11 504 -11 431 -11 c 0,38,39
 233 -11 233 -11 149.5 122.5 c 128,-1,40
 66 256 66 256 66 402 c 0,0,1
362 383 m 0,41,42
 362 294 362 294 401.5 239.5 c 128,-1,43
 441 185 441 185 509 185 c 0,44,45
 579 185 579 185 660 276.5 c 128,-1,46
 741 368 741 368 777 522 c 2,47,-1
 814 680 l 1,48,49
 814 776 814 776 780.5 825 c 128,-1,50
 747 874 747 874 647 874 c 0,51,52
 512 874 512 874 437 722 c 128,-1,53
 362 570 362 570 362 383 c 0,41,42
EndSplineSet
EndChar

StartChar: h
Encoding: 104 104 75
Width: 1200
GlyphClass: 2
Flags: W
AnchorPoint: "Anchor-3" 822 1476 basechar 0
AnchorPoint: "Anchor-2" 481 0 basechar 0
LayerCount: 2
Fore
SplineSet
76 0 m 2,0,1
 16 0 16 0 30 60 c 2,2,-1
 343 1416 l 2,3,4
 357 1476 357 1476 417 1476 c 2,5,-1
 577 1476 l 2,6,7
 637 1476 637 1476 623 1416 c 2,8,-1
 526 992 l 2,9,10
 517 951 517 951 503 912 c 1,11,-1
 508 912 l 1,12,13
 588 1006 588 1006 660.5 1038 c 128,-1,14
 733 1070 733 1070 833 1070 c 0,15,16
 978 1070 978 1070 1061 963 c 128,-1,17
 1144 856 1144 856 1088 614 c 2,18,-1
 960 60 l 2,19,20
 946 0 946 0 886 0 c 2,21,-1
 726 0 l 2,22,23
 666 0 666 0 680 60 c 2,24,-1
 791 542 l 2,25,26
 840 754 840 754 816 814 c 128,-1,27
 792 874 792 874 709 874 c 0,28,29
 604 874 604 874 523 757 c 128,-1,30
 442 640 442 640 393 424 c 2,31,-1
 310 60 l 2,32,33
 296 0 296 0 236 0 c 2,34,-1
 76 0 l 2,0,1
EndSplineSet
EndChar

StartChar: k
Encoding: 107 107 78
Width: 1119
GlyphClass: 2
Flags: W
AnchorPoint: "Anchor-3" 825 1476 basechar 0
AnchorPoint: "Anchor-2" 484 0 basechar 0
LayerCount: 2
Fore
SplineSet
76 0 m 2,0,1
 16 0 16 0 30 60 c 2,2,-1
 343 1416 l 2,3,4
 357 1476 357 1476 417 1476 c 2,5,-1
 577 1476 l 2,6,7
 637 1476 637 1476 623 1416 c 2,8,-1
 462 719 l 2,9,10
 453 681 453 681 440 639 c 1,11,-1
 444 639 l 1,12,-1
 822 1009 l 2,13,14
 864 1050 864 1050 909 1050 c 2,15,-1
 1100 1050 l 2,16,17
 1191 1050 1191 1050 1114 976 c 2,18,-1
 728 605 l 1,19,-1
 951 74 l 2,20,21
 982 0 982 0 903 0 c 2,22,-1
 760 0 l 2,23,24
 711 0 711 0 690 52 c 2,25,-1
 538 430 l 1,26,-1
 355 257 l 1,27,-1
 310 60 l 2,28,29
 296 0 296 0 236 0 c 2,30,-1
 76 0 l 2,0,1
EndSplineSet
EndChar

StartChar: l
Encoding: 108 108 79
Width: 552
GlyphClass: 2
Flags: W
AnchorPoint: "Anchor-3" 497 1476 basechar 0
AnchorPoint: "Anchor-2" 156 0 basechar 0
LayerCount: 2
Fore
SplineSet
76 0 m 2,0,1
 16 0 16 0 30 60 c 2,2,-1
 303 1241 l 2,3,4
 313 1286 313 1286 342 1323 c 2,5,-1
 451 1458 l 2,6,7
 482 1496 482 1496 511 1496 c 2,8,-1
 581 1496 l 2,9,10
 641 1496 641 1496 628 1436 c 2,11,-1
 310 60 l 2,12,13
 296 0 296 0 236 0 c 2,14,-1
 76 0 l 2,0,1
EndSplineSet
EndChar

StartChar: m
Encoding: 109 109 80
Width: 1750
GlyphClass: 2
Flags: W
AnchorPoint: "Anchor-3" 1003 1070 basechar 0
AnchorPoint: "Anchor-2" 756 0 basechar 0
LayerCount: 2
Fore
SplineSet
76 0 m 2,0,1
 16 0 16 0 30 60 c 2,2,-1
 245 990 l 2,3,4
 259 1050 259 1050 318 1050 c 2,5,-1
 476 1050 l 2,6,7
 536 1050 536 1050 523 990 c 2,8,-1
 502 900 l 1,9,-1
 506 900 l 1,10,11
 552 969 552 969 624 1019.5 c 128,-1,12
 696 1070 696 1070 772 1070 c 0,13,14
 897 1070 897 1070 951.5 998.5 c 128,-1,15
 1006 927 1006 927 1006 839 c 1,16,-1
 1010 839 l 1,17,18
 1083 951 1083 951 1173 1010.5 c 128,-1,19
 1263 1070 1263 1070 1392 1070 c 0,20,21
 1527 1070 1527 1070 1611 964 c 128,-1,22
 1695 858 1695 858 1635 600 c 2,23,-1
 1510 60 l 2,24,25
 1496 0 1496 0 1436 0 c 2,26,-1
 1276 0 l 2,27,28
 1216 0 1216 0 1230 60 c 2,29,-1
 1336 520 l 2,30,31
 1379 708 1379 708 1369 791 c 128,-1,32
 1359 874 1359 874 1284 874 c 0,33,34
 1214 874 1214 874 1137 792.5 c 128,-1,35
 1060 711 1060 711 991 412 c 2,36,-1
 910 60 l 2,37,38
 896 0 896 0 836 0 c 2,39,-1
 676 0 l 2,40,41
 616 0 616 0 630 60 c 2,42,-1
 731 500 l 2,43,44
 778 705 778 705 768.5 789.5 c 128,-1,45
 759 874 759 874 684 874 c 0,46,47
 615 874 615 874 531 764 c 128,-1,48
 447 654 447 654 391 412 c 2,49,-1
 310 60 l 2,50,51
 296 0 296 0 236 0 c 2,52,-1
 76 0 l 2,0,1
EndSplineSet
EndChar

StartChar: n
Encoding: 110 110 81
Width: 1200
GlyphClass: 2
Flags: W
AnchorPoint: "Anchor-3" 728 1070 basechar 0
AnchorPoint: "Anchor-2" 481 0 basechar 0
LayerCount: 2
Fore
SplineSet
76 0 m 2,0,1
 16 0 16 0 30 60 c 2,2,-1
 245 990 l 2,3,4
 259 1050 259 1050 318 1050 c 2,5,-1
 476 1050 l 2,6,7
 538 1050 538 1050 523 990 c 2,8,-1
 504 912 l 1,9,-1
 508 912 l 1,10,11
 588 1006 588 1006 660.5 1038 c 128,-1,12
 733 1070 733 1070 833 1070 c 0,13,14
 978 1070 978 1070 1061 963 c 128,-1,15
 1144 856 1144 856 1088 614 c 2,16,-1
 960 60 l 2,17,18
 946 0 946 0 886 0 c 2,19,-1
 726 0 l 2,20,21
 666 0 666 0 680 60 c 2,22,-1
 791 542 l 2,23,24
 840 754 840 754 816 814 c 128,-1,25
 792 874 792 874 709 874 c 0,26,27
 604 874 604 874 523 757 c 128,-1,28
 442 640 442 640 393 424 c 2,29,-1
 310 60 l 2,30,31
 296 0 296 0 236 0 c 2,32,-1
 76 0 l 2,0,1
EndSplineSet
EndChar

StartChar: o
Encoding: 111 111 82
Width: 1206
GlyphClass: 2
Flags: W
AnchorPoint: "Anchor-3" 690 1070 basechar 0
AnchorPoint: "Anchor-2" 523 0 basechar 0
AnchorPoint: "Anchor-1" 523 0 basechar 0
LayerCount: 2
Fore
SplineSet
58 412 m 0,0,1
 58 637 58 637 224 853.5 c 128,-1,2
 390 1070 390 1070 690 1070 c 0,3,4
 950 1070 950 1070 1050 941.5 c 128,-1,5
 1150 813 1150 813 1150 638 c 0,6,7
 1150 413 1150 413 984 196.5 c 128,-1,8
 818 -20 818 -20 518 -20 c 0,9,10
 258 -20 258 -20 158 108.5 c 128,-1,11
 58 237 58 237 58 412 c 0,0,1
354 387 m 0,12,13
 354 287 354 287 402.5 231.5 c 128,-1,14
 451 176 451 176 536 176 c 0,15,16
 661 176 661 176 757.5 304.5 c 128,-1,17
 854 433 854 433 854 663 c 0,18,19
 854 763 854 763 805.5 818.5 c 128,-1,20
 757 874 757 874 672 874 c 0,21,22
 547 874 547 874 450.5 745.5 c 128,-1,23
 354 617 354 617 354 387 c 0,12,13
EndSplineSet
EndChar

StartChar: p
Encoding: 112 112 83
Width: 1192
GlyphClass: 2
Flags: W
AnchorPoint: "Anchor-3" 754 1070 basechar 0
AnchorPoint: "Anchor-2" 414 -400 basechar 0
LayerCount: 2
Fore
SplineSet
-16 -400 m 2,0,1
 -76 -400 -76 -400 -62 -340 c 2,2,-1
 245 990 l 2,3,4
 259 1050 259 1050 318 1050 c 2,5,-1
 476 1050 l 2,6,7
 528 1050 528 1050 517 990 c 2,8,-1
 503 912 l 1,9,-1
 507 912 l 1,10,11
 579 998 579 998 636 1034 c 128,-1,12
 693 1070 693 1070 766 1070 c 0,13,14
 964 1070 964 1070 1046.5 940 c 128,-1,15
 1129 810 1129 810 1129 651 c 0,16,17
 1129 388 1129 388 968.5 184 c 128,-1,18
 808 -20 808 -20 596 -20 c 0,19,20
 524 -20 524 -20 446 -1 c 128,-1,21
 368 18 368 18 318 96 c 1,22,-1
 314 96 l 1,23,24
 309 54 309 54 300 16 c 2,25,-1
 218 -340 l 2,26,27
 204 -400 204 -400 144 -400 c 2,28,-1
 -16 -400 l 2,0,1
381 370 m 1,29,30
 381 274 381 274 414.5 225 c 128,-1,31
 448 176 448 176 548 176 c 0,32,33
 683 176 683 176 758 328 c 128,-1,34
 833 480 833 480 833 670 c 0,35,36
 833 774 833 774 794.5 824 c 128,-1,37
 756 874 756 874 688 874 c 0,38,39
 618 874 618 874 537.5 785 c 128,-1,40
 457 696 457 696 418 528 c 2,41,-1
 381 370 l 1,29,30
EndSplineSet
EndChar

StartChar: q
Encoding: 113 113 84
Width: 1192
GlyphClass: 2
Flags: W
AnchorPoint: "Anchor-3" 692 1070 basechar 0
AnchorPoint: "Anchor-2" 352 -400 basechar 0
LayerCount: 2
Fore
SplineSet
66 399 m 0,0,1
 66 662 66 662 226.5 866 c 128,-1,2
 387 1070 387 1070 599 1070 c 0,3,4
 671 1070 671 1070 749 1051 c 128,-1,5
 827 1032 827 1032 877 954 c 1,6,-1
 881 954 l 1,7,-1
 893 990 l 2,8,9
 913 1050 913 1050 960 1050 c 2,10,-1
 1118 1050 l 2,11,12
 1179 1050 1179 1050 1165 990 c 2,13,-1
 858 -340 l 2,14,15
 844 -400 844 -400 784 -400 c 2,16,-1
 624 -400 l 2,17,18
 564 -400 564 -400 578 -340 c 2,19,-1
 670 58 l 2,20,21
 680 101 680 101 692 138 c 1,22,-1
 688 138 l 1,23,24
 616 52 616 52 559 16 c 128,-1,25
 502 -20 502 -20 429 -20 c 0,26,27
 231 -20 231 -20 148.5 110 c 128,-1,28
 66 240 66 240 66 399 c 0,0,1
362 380 m 0,29,30
 362 276 362 276 400.5 226 c 128,-1,31
 439 176 439 176 507 176 c 0,32,33
 577 176 577 176 657.5 265 c 128,-1,34
 738 354 738 354 777 522 c 2,35,-1
 814 680 l 1,36,37
 814 776 814 776 780.5 825 c 128,-1,38
 747 874 747 874 647 874 c 0,39,40
 512 874 512 874 437 722 c 128,-1,41
 362 570 362 570 362 380 c 0,29,30
EndSplineSet
EndChar

StartChar: r
Encoding: 114 114 85
Width: 786
GlyphClass: 2
Flags: W
AnchorPoint: "Anchor-3" 590 1070 basechar 0
AnchorPoint: "Anchor-2" 156 0 basechar 0
LayerCount: 2
Fore
SplineSet
76 0 m 2,0,1
 16 0 16 0 30 60 c 2,2,-1
 245 990 l 2,3,4
 259 1050 259 1050 318 1050 c 2,5,-1
 472 1050 l 2,6,7
 533 1050 533 1050 519 990 c 2,8,-1
 491 867 l 1,9,-1
 495 867 l 1,10,11
 537 952 537 952 609 1011 c 128,-1,12
 681 1070 681 1070 769 1070 c 0,13,14
 827 1070 827 1070 861 1056 c 0,15,16
 890 1044 890 1044 877 1008 c 2,17,-1
 833 889 l 2,18,19
 818 848 818 848 774 865 c 0,20,21
 750 874 750 874 720 874 c 0,22,23
 630 874 630 874 532.5 738 c 128,-1,24
 435 602 435 602 376 347 c 2,25,-1
 310 60 l 2,26,27
 296 0 296 0 236 0 c 2,28,-1
 76 0 l 2,0,1
EndSplineSet
EndChar

StartChar: s
Encoding: 115 115 86
Width: 1005
GlyphClass: 2
Flags: W
AnchorPoint: "Anchor-3" 614 1070 basechar 0
AnchorPoint: "Anchor-2" 426 0 basechar 0
LayerCount: 2
Fore
SplineSet
40 72 m 0,0,1
 -5 105 -5 105 21 149 c 2,2,-1
 75 239 l 2,3,4
 99 280 99 280 160 242 c 0,5,6
 214 208 214 208 289 192 c 128,-1,7
 364 176 364 176 428 176 c 0,8,9
 494 176 494 176 535 195 c 128,-1,10
 576 214 576 214 592 241 c 128,-1,11
 608 268 608 268 608 302 c 0,12,13
 608 326 608 326 599 346 c 128,-1,14
 590 366 590 366 567 382 c 128,-1,15
 544 398 544 398 513 410 c 0,16,17
 452 434 452 434 418.5 448.5 c 128,-1,18
 385 463 385 463 341 482 c 0,19,20
 271 512 271 512 233.5 550 c 128,-1,21
 196 588 196 588 178.5 634 c 128,-1,22
 161 680 161 680 161 749 c 0,23,24
 161 850 161 850 221.5 930 c 128,-1,25
 282 1010 282 1010 379 1040 c 128,-1,26
 476 1070 476 1070 614 1070 c 0,27,28
 700 1070 700 1070 781 1044 c 128,-1,29
 862 1018 862 1018 912 987 c 0,30,31
 970 951 970 951 933 903 c 2,32,-1
 870 821 l 2,33,34
 843 786 843 786 780 824 c 0,35,36
 750 842 750 842 697 858 c 128,-1,37
 644 874 644 874 595 874 c 0,38,39
 560 874 560 874 524 866 c 128,-1,40
 488 858 488 858 463 831.5 c 128,-1,41
 438 805 438 805 438 768 c 0,42,43
 438 744 438 744 445 724 c 128,-1,44
 452 704 452 704 474.5 683 c 128,-1,45
 497 662 497 662 523 651 c 0,46,47
 566 633 566 633 607 618 c 128,-1,48
 648 603 648 603 698 580 c 0,49,50
 765 549 765 549 806 510 c 128,-1,51
 847 471 847 471 866 424.5 c 128,-1,52
 885 378 885 378 885 312 c 0,53,54
 885 213 885 213 813.5 125.5 c 128,-1,55
 742 38 742 38 640.5 9 c 128,-1,56
 539 -20 539 -20 421 -20 c 0,57,58
 280 -20 280 -20 196 -0.5 c 128,-1,59
 112 19 112 19 40 72 c 0,0,1
EndSplineSet
EndChar

StartChar: t
Encoding: 116 116 87
Width: 798
GlyphClass: 2
Flags: W
AnchorPoint: "Anchor-3" 498 1340 basechar 0
AnchorPoint: "Anchor-2" 348 0 basechar 0
LayerCount: 2
Fore
SplineSet
177 850 m 2,0,1
 118 850 118 850 130 900 c 2,2,-1
 153 1000 l 2,3,4
 165 1050 165 1050 223 1050 c 2,5,-1
 291 1050 l 1,6,-1
 299 1085 l 2,7,8
 309 1130 309 1130 339 1167 c 2,9,-1
 448 1302 l 2,10,11
 478 1340 478 1340 508 1340 c 2,12,-1
 578 1340 l 2,13,14
 638 1340 638 1340 625 1280 c 1,15,-1
 571 1050 l 1,16,-1
 733 1050 l 2,17,18
 792 1050 792 1050 781 1000 c 2,19,-1
 758 900 l 2,20,21
 746 850 746 850 687 850 c 2,22,-1
 525 850 l 1,23,-1
 411 354 l 2,24,25
 391 266 391 266 398.5 214.5 c 128,-1,26
 406 163 406 163 457 163 c 0,27,28
 488 163 488 163 526 170.5 c 128,-1,29
 564 178 564 178 589 188 c 0,30,31
 625 203 625 203 629 165 c 1,32,-1
 645 51 l 2,33,34
 649 18 649 18 608 1 c 0,35,36
 572 -14 572 -14 508 -23.5 c 128,-1,37
 444 -33 444 -33 386 -33 c 0,38,39
 202 -33 202 -33 145 68.5 c 128,-1,40
 88 170 88 170 130 350 c 2,41,-1
 245 850 l 1,42,-1
 177 850 l 2,0,1
EndSplineSet
EndChar

StartChar: u
Encoding: 117 117 88
Width: 1194
GlyphClass: 2
Flags: W
AnchorPoint: "Anchor-3" 723 1070 basechar 0
AnchorPoint: "Anchor-2" 476 0 basechar 0
AnchorPoint: "Anchor-1" 371 0 basechar 0
LayerCount: 2
Fore
SplineSet
115 436 m 2,0,-1
 243 990 l 2,1,2
 257 1050 257 1050 316 1050 c 2,3,-1
 476 1050 l 2,4,5
 536 1050 536 1050 523 990 c 2,6,-1
 411 508 l 2,7,8
 362 296 362 296 386.5 236 c 128,-1,9
 411 176 411 176 491 176 c 0,10,11
 592 176 592 176 673.5 295 c 128,-1,12
 755 414 755 414 806 635 c 2,13,-1
 887 990 l 2,14,15
 901 1050 901 1050 960 1050 c 2,16,-1
 1120 1050 l 2,17,18
 1180 1050 1180 1050 1167 990 c 2,19,-1
 952 60 l 2,20,21
 938 0 938 0 878 0 c 2,22,-1
 720 0 l 2,23,24
 659 0 659 0 674 60 c 2,25,-1
 695 147 l 1,26,-1
 691 147 l 1,27,28
 611 53 611 53 538.5 16.5 c 128,-1,29
 466 -20 466 -20 366 -20 c 0,30,31
 224 -20 224 -20 141.5 87 c 128,-1,32
 59 194 59 194 115 436 c 2,0,-1
EndSplineSet
EndChar

StartChar: v
Encoding: 118 118 89
Width: 1008
GlyphClass: 2
Flags: W
AnchorPoint: "Anchor-3" 630 1070 basechar 0
AnchorPoint: "Anchor-2" 384 0 basechar 0
LayerCount: 2
Fore
SplineSet
146 972 m 2,0,1
 139 1050 139 1050 197 1050 c 2,2,-1
 358 1050 l 2,3,4
 405 1050 405 1050 407 999 c 2,5,-1
 426 413 l 2,6,7
 428 364 428 364 425.5 316 c 128,-1,8
 423 268 423 268 418 238 c 1,9,-1
 424 238 l 1,10,11
 433 268 433 268 452.5 316 c 128,-1,12
 472 364 472 364 496 413 c 2,13,-1
 787 999 l 2,14,15
 812 1050 812 1050 858 1050 c 2,16,-1
 1055 1050 l 2,17,18
 1113 1050 1113 1050 1070 972 c 2,19,-1
 571 67 l 2,20,21
 534 0 534 0 483 0 c 2,22,-1
 285 0 l 2,23,24
 233 0 233 0 227 67 c 2,25,-1
 146 972 l 2,0,1
EndSplineSet
EndChar

StartChar: w
Encoding: 119 119 90
Width: 1604
GlyphClass: 2
Flags: W
AnchorPoint: "Anchor-3" 928 1070 basechar 0
AnchorPoint: "Anchor-2" 682 0 basechar 0
LayerCount: 2
Fore
SplineSet
146 972 m 2,0,1
 142 1050 142 1050 197 1050 c 2,2,-1
 354 1050 l 2,3,4
 402 1050 402 1050 403 999 c 1,5,-1
 402 413 l 2,6,7
 402 356 402 356 400.5 312 c 128,-1,8
 399 268 399 268 394 238 c 1,9,-1
 400 238 l 1,10,11
 409 268 409 268 427.5 313 c 128,-1,12
 446 358 446 358 472 413 c 2,13,-1
 750 999 l 2,14,15
 774 1050 774 1050 821 1050 c 2,16,-1
 1003 1050 l 2,17,18
 1051 1050 1051 1050 1052 999 c 2,19,-1
 1058 413 l 2,20,21
 1059 358 1059 358 1057 313 c 128,-1,22
 1055 268 1055 268 1050 238 c 1,23,-1
 1056 238 l 1,24,25
 1065 268 1065 268 1083.5 312 c 128,-1,26
 1102 356 1102 356 1128 413 c 2,27,-1
 1399 999 l 2,28,29
 1423 1050 1423 1050 1470 1050 c 2,30,-1
 1651 1050 l 2,31,32
 1706 1050 1706 1050 1666 972 c 2,33,-1
 1197 67 l 2,34,35
 1162 0 1162 0 1109 0 c 2,36,-1
 928 0 l 2,37,38
 871 0 871 0 870 67 c 2,39,-1
 862 660 l 2,40,41
 861 719 861 719 863 746 c 128,-1,42
 865 773 865 773 871 811 c 1,43,-1
 867 811 l 1,44,45
 856 773 856 773 845.5 746 c 128,-1,46
 835 719 835 719 806 660 c 2,47,-1
 524 67 l 2,48,49
 492 0 492 0 436 0 c 2,50,-1
 255 0 l 2,51,52
 201 0 201 0 197 67 c 2,53,-1
 146 972 l 2,0,1
EndSplineSet
EndChar

StartChar: x
Encoding: 120 120 91
Width: 1046
GlyphClass: 2
Flags: W
AnchorPoint: "Anchor-3" 657 1070 basechar 0
AnchorPoint: "Anchor-2" 410 0 basechar 0
LayerCount: 2
Fore
SplineSet
-33 0 m 2,0,1
 -118 0 -118 0 -52 73 c 2,2,-1
 402 572 l 1,3,-1
 205 977 l 2,4,5
 169 1050 169 1050 257 1050 c 2,6,-1
 423 1050 l 2,7,8
 468 1050 468 1050 482 1010 c 2,9,-1
 572 751 l 1,10,-1
 762 1010 l 2,11,12
 791 1050 791 1050 839 1050 c 2,13,-1
 1061 1050 l 2,14,15
 1148 1050 1148 1050 1081 977 c 2,16,-1
 680 539 l 1,17,-1
 904 73 l 2,18,19
 939 0 939 0 851 0 c 2,20,-1
 686 0 l 2,21,22
 642 0 642 0 627 40 c 2,23,-1
 508 358 l 1,24,-1
 268 40 l 2,25,26
 238 0 238 0 191 0 c 2,27,-1
 -33 0 l 2,0,1
EndSplineSet
EndChar

StartChar: y
Encoding: 121 121 92
Width: 1194
GlyphClass: 2
Flags: W
AnchorPoint: "Anchor-3" 722 1070 basechar 0
AnchorPoint: "Anchor-2" 312 -400 basechar 0
LayerCount: 2
Fore
SplineSet
117 445 m 2,0,-1
 243 990 l 2,1,2
 257 1050 257 1050 316 1050 c 2,3,-1
 476 1050 l 2,4,5
 537 1050 537 1050 523 990 c 2,6,-1
 411 508 l 2,7,8
 364 305 364 305 388.5 245 c 128,-1,9
 413 185 413 185 493 185 c 0,10,11
 594 185 594 185 676 304.5 c 128,-1,12
 758 424 758 424 806 635 c 2,13,-1
 887 990 l 2,14,15
 901 1050 901 1050 960 1050 c 2,16,-1
 1120 1050 l 2,17,18
 1181 1050 1181 1050 1167 990 c 2,19,-1
 939 11 l 2,20,21
 886 -218 886 -218 744.5 -319 c 128,-1,22
 603 -420 603 -420 342 -420 c 0,23,24
 279 -420 279 -420 196.5 -409.5 c 128,-1,25
 114 -399 114 -399 36 -357 c 0,26,27
 -17 -329 -17 -329 20 -270 c 2,28,-1
 69 -192 l 2,29,30
 96 -148 96 -148 142 -172 c 0,31,32
 210 -207 210 -207 258 -215.5 c 128,-1,33
 306 -224 306 -224 372 -224 c 0,34,35
 477 -224 477 -224 551 -179.5 c 128,-1,36
 625 -135 625 -135 674 76 c 0,37,38
 684 120 684 120 697 156 c 1,39,-1
 693 156 l 1,40,41
 613 62 613 62 540.5 25.5 c 128,-1,42
 468 -11 468 -11 368 -11 c 0,43,44
 226 -11 226 -11 143.5 96 c 128,-1,45
 61 203 61 203 117 445 c 2,0,-1
EndSplineSet
EndChar

StartChar: z
Encoding: 122 122 93
Width: 964
GlyphClass: 2
Flags: W
AnchorPoint: "Anchor-3" 609 1070 basechar 0
AnchorPoint: "Anchor-2" 362 0 basechar 0
LayerCount: 2
Fore
SplineSet
-8 0 m 2,0,1
 -67 0 -67 0 -56 50 c 2,2,-1
 -39 126 l 2,3,4
 -28 175 -28 175 27 234 c 2,5,-1
 601 850 l 1,6,-1
 602 854 l 1,7,8
 561 850 561 850 521 850 c 2,9,-1
 212 850 l 2,10,11
 153 850 153 850 164 900 c 2,12,-1
 171 932 l 2,13,14
 197 1050 197 1050 258 1050 c 2,15,-1
 950 1050 l 2,16,17
 1010 1050 1010 1050 999 1000 c 2,18,-1
 983 930 l 2,19,20
 971 876 971 876 915 816 c 2,21,-1
 342 200 l 1,22,-1
 341 196 l 1,23,24
 395 200 395 200 422 200 c 2,25,-1
 778 200 l 2,26,27
 838 200 838 200 827 150 c 2,28,-1
 804 50 l 2,29,30
 792 0 792 0 732 0 c 2,31,-1
 -8 0 l 2,0,1
EndSplineSet
EndChar

StartChar: braceleft
Encoding: 123 123 94
Width: 829
GlyphClass: 2
Flags: W
LayerCount: 2
Fore
SplineSet
117 444 m 0,0,1
 67 444 67 444 81 503 c 2,2,-1
 100 585 l 2,3,4
 114 644 114 644 163 644 c 0,5,6
 246 644 246 644 307 718 c 128,-1,7
 368 792 368 792 400 931 c 2,8,-1
 466 1216 l 2,9,10
 505 1386 505 1386 584.5 1441 c 128,-1,11
 664 1496 664 1496 938 1496 c 0,12,13
 998 1496 998 1496 987 1446 c 2,14,-1
 964 1346 l 2,15,16
 952 1296 952 1296 892 1296 c 0,17,18
 812 1296 812 1296 778.5 1255 c 128,-1,19
 745 1214 745 1214 728 1139 c 2,20,-1
 669 884 l 2,21,22
 629 709 629 709 557.5 636.5 c 128,-1,23
 486 564 486 564 350 545 c 1,24,-1
 349 543 l 1,25,26
 453 504 453 504 498 421 c 128,-1,27
 543 338 543 338 505 174 c 2,28,-1
 453 -51 l 2,29,30
 435 -129 435 -129 438 -168.5 c 128,-1,31
 441 -208 441 -208 545 -208 c 0,32,33
 605 -208 605 -208 593 -258 c 2,34,-1
 570 -358 l 2,35,36
 558 -408 558 -408 499 -408 c 0,37,38
 264 -408 264 -408 197 -320 c 128,-1,39
 130 -232 130 -232 173 -48 c 2,40,-1
 221 157 l 2,41,42
 267 354 267 354 223.5 399 c 128,-1,43
 180 444 180 444 117 444 c 0,0,1
EndSplineSet
EndChar

StartChar: bar
Encoding: 124 124 95
Width: 630
GlyphClass: 2
Flags: W
LayerCount: 2
Fore
SplineSet
267 -440 m 2,0,1
 217 -440 217 -440 217 -380 c 2,2,-1
 217 1436 l 2,3,4
 217 1496 217 1496 267 1496 c 2,5,-1
 367 1496 l 2,6,7
 417 1496 417 1496 417 1436 c 2,8,-1
 417 -380 l 2,9,10
 417 -440 417 -440 367 -440 c 2,11,-1
 267 -440 l 2,0,1
EndSplineSet
EndChar

StartChar: braceright
Encoding: 125 125 96
Width: 829
GlyphClass: 2
Flags: W
LayerCount: 2
Fore
SplineSet
-98 -408 m 0,0,1
 -158 -408 -158 -408 -147 -358 c 2,2,-1
 -124 -258 l 2,3,4
 -112 -208 -112 -208 -52 -208 c 0,5,6
 28 -208 28 -208 61.5 -167 c 128,-1,7
 95 -126 95 -126 112 -51 c 2,8,-1
 171 204 l 2,9,10
 211 379 211 379 282.5 451.5 c 128,-1,11
 354 524 354 524 490 543 c 1,12,-1
 491 545 l 1,13,14
 387 584 387 584 342 667 c 128,-1,15
 297 750 297 750 335 914 c 2,16,-1
 387 1139 l 2,17,18
 405 1217 405 1217 402 1256.5 c 128,-1,19
 399 1296 399 1296 295 1296 c 0,20,21
 235 1296 235 1296 247 1346 c 2,22,-1
 270 1446 l 2,23,24
 282 1496 282 1496 341 1496 c 0,25,26
 576 1496 576 1496 643 1408 c 128,-1,27
 710 1320 710 1320 667 1136 c 2,28,-1
 619 931 l 2,29,30
 573 734 573 734 616.5 689 c 128,-1,31
 660 644 660 644 723 644 c 0,32,33
 773 644 773 644 759 585 c 2,34,-1
 740 503 l 2,35,36
 726 444 726 444 677 444 c 0,37,38
 594 444 594 444 533 370 c 128,-1,39
 472 296 472 296 440 157 c 2,40,-1
 374 -128 l 2,41,42
 335 -298 335 -298 255.5 -353 c 128,-1,43
 176 -408 176 -408 -98 -408 c 0,0,1
EndSplineSet
EndChar

StartChar: asciitilde
Encoding: 126 126 97
Width: 1280
GlyphClass: 2
Flags: W
LayerCount: 2
Fore
SplineSet
147 634 m 2,0,1
 116 650 116 650 130 688 c 0,2,3
 175 810 175 810 252 868 c 128,-1,4
 329 926 329 926 471 926 c 0,5,6
 601 926 601 926 733 820 c 128,-1,7
 865 714 865 714 940 714 c 256,8,9
 1015 714 1015 714 1049 745 c 128,-1,10
 1083 776 1083 776 1109 822 c 0,11,12
 1135 867 1135 867 1161 852 c 2,13,-1
 1227 816 l 2,14,15
 1258 800 1258 800 1244 762 c 0,16,17
 1199 640 1199 640 1122 582 c 128,-1,18
 1045 524 1045 524 903 524 c 0,19,20
 773 524 773 524 641 630 c 128,-1,21
 509 736 509 736 434 736 c 256,22,23
 359 736 359 736 325 705 c 128,-1,24
 291 674 291 674 265 628 c 0,25,26
 239 583 239 583 213 598 c 2,27,-1
 147 634 l 2,0,1
EndSplineSet
EndChar

StartChar: exclamdown
Encoding: 161 161 98
Width: 668
GlyphClass: 2
Flags: W
LayerCount: 2
Fore
SplineSet
45 -384 m 2,0,1
 -27 -384 -27 -384 -7 -309 c 2,2,-1
 221 565 l 2,3,4
 238 630 238 630 301 630 c 2,5,-1
 417 630 l 2,6,7
 480 630 480 630 467 565 c 2,8,-1
 293 -309 l 2,9,10
 278 -384 278 -384 205 -384 c 2,11,-1
 45 -384 l 2,0,1
315 766 m 2,12,13
 245 766 245 766 262 841 c 2,14,-1
 293 975 l 2,15,16
 310 1050 310 1050 380 1050 c 2,17,-1
 532 1050 l 2,18,19
 602 1050 602 1050 585 975 c 2,20,-1
 554 841 l 2,21,22
 537 766 537 766 467 766 c 2,23,-1
 315 766 l 2,12,13
EndSplineSet
EndChar

StartChar: cent
Encoding: 162 162 99
Width: 1200
GlyphClass: 2
Flags: W
LayerCount: 2
Fore
SplineSet
128 412 m 0,0,1
 128 644 128 644 288 847 c 128,-1,2
 448 1050 448 1050 692 1068 c 1,3,-1
 732 1240 l 2,4,5
 746 1300 746 1300 796 1300 c 2,6,-1
 876 1300 l 2,7,8
 926 1300 926 1300 912 1240 c 2,9,-1
 870 1060 l 1,10,11
 929 1049 929 1049 988.5 1014.5 c 128,-1,12
 1048 980 1048 980 1099 906 c 0,13,14
 1128 864 1128 864 1082 833 c 2,15,-1
 973 760 l 2,16,17
 934 734 934 734 896 790 c 0,18,19
 875 821 875 821 853.5 837 c 128,-1,20
 832 853 832 853 824 857 c 1,21,-1
 668 182 l 1,22,23
 705 190 705 190 743.5 215.5 c 128,-1,24
 782 241 782 241 830 301 c 0,25,26
 867 347 867 347 911 306 c 2,27,-1
 992 231 l 2,28,29
 1031 195 1031 195 990 143 c 0,30,31
 951 93 951 93 857.5 39.5 c 128,-1,32
 764 -14 764 -14 621 -19 c 1,33,-1
 582 -190 l 2,34,35
 568 -250 568 -250 518 -250 c 2,36,-1
 438 -250 l 2,37,38
 388 -250 388 -250 402 -190 c 2,39,-1
 444 -8 l 1,40,41
 297 19 297 19 212.5 128 c 128,-1,42
 128 237 128 237 128 412 c 0,0,1
424 387 m 0,43,44
 424 282 424 282 453.5 250.5 c 128,-1,45
 483 219 483 219 494 210 c 1,46,-1
 643 853 l 1,47,48
 580 822 580 822 502 722 c 128,-1,49
 424 622 424 622 424 387 c 0,43,44
EndSplineSet
EndChar

StartChar: sterling
Encoding: 163 163 100
Width: 1200
GlyphClass: 2
Flags: W
LayerCount: 2
Fore
SplineSet
25 0 m 2,0,1
 -50 0 -50 0 -35 65 c 2,2,-1
 -21 124 l 2,3,4
 -9 173 -9 173 40 212 c 0,5,6
 96 256 96 256 152 320 c 128,-1,7
 208 384 208 384 236 503 c 2,8,-1
 255 583 l 1,9,-1
 154 583 l 2,10,11
 90 583 90 583 105 648 c 2,12,-1
 132 766 l 2,13,14
 147 831 147 831 212 831 c 2,15,-1
 312 831 l 1,16,-1
 345 973 l 2,17,18
 401 1216 401 1216 533.5 1336 c 128,-1,19
 666 1456 666 1456 892 1456 c 0,20,21
 993 1456 993 1456 1082.5 1423.5 c 128,-1,22
 1172 1391 1172 1391 1227 1317 c 0,23,24
 1263 1269 1263 1269 1229 1233 c 2,25,-1
 1160 1159 l 2,26,27
 1113 1108 1113 1108 1067 1159 c 0,28,29
 1041 1188 1041 1188 991.5 1210 c 128,-1,30
 942 1232 942 1232 883 1232 c 0,31,32
 786 1232 786 1232 722 1175.5 c 128,-1,33
 658 1119 658 1119 633 1010 c 2,34,-1
 592 831 l 1,35,-1
 829 831 l 2,36,37
 894 831 894 831 879 766 c 2,38,-1
 852 648 l 2,39,40
 837 583 837 583 773 583 c 2,41,-1
 535 583 l 1,42,-1
 514 495 l 2,43,44
 493 406 493 406 466 348.5 c 128,-1,45
 439 291 439 291 387 250 c 1,46,-1
 387 244 l 1,47,48
 448 248 448 248 488 248 c 2,49,-1
 986 248 l 2,50,51
 1061 248 1061 248 1046 183 c 2,52,-1
 1019 65 l 2,53,54
 1004 0 1004 0 929 0 c 2,55,-1
 25 0 l 2,0,1
EndSplineSet
EndChar

StartChar: currency
Encoding: 164 164 101
Width: 1200
GlyphClass: 2
Flags: W
LayerCount: 2
Fore
SplineSet
136 276 m 2,0,1
 100 310 100 310 141 354 c 2,2,-1
 267 490 l 1,3,4
 205 596 205 596 205 728 c 256,5,6
 205 860 205 860 267 966 c 1,7,-1
 141 1102 l 2,8,9
 100 1146 100 1146 136 1180 c 2,10,-1
 199 1239 l 2,11,12
 236 1273 236 1273 277 1229 c 2,13,-1
 392 1105 l 1,14,15
 502 1187 502 1187 650 1187 c 256,16,17
 798 1187 798 1187 908 1105 c 1,18,-1
 1023 1229 l 2,19,20
 1064 1273 1064 1273 1101 1239 c 2,21,-1
 1164 1180 l 2,22,23
 1200 1146 1200 1146 1159 1102 c 2,24,-1
 1033 966 l 1,25,26
 1095 860 1095 860 1095 728 c 256,27,28
 1095 596 1095 596 1033 490 c 1,29,-1
 1159 354 l 2,30,31
 1200 310 1200 310 1164 276 c 2,32,-1
 1101 217 l 2,33,34
 1064 183 1064 183 1023 227 c 2,35,-1
 908 351 l 1,36,37
 798 269 798 269 650 269 c 256,38,39
 502 269 502 269 392 351 c 1,40,-1
 277 227 l 2,41,42
 236 183 236 183 199 217 c 2,43,-1
 136 276 l 2,0,1
400 728 m 256,44,45
 400 620 400 620 469.5 541.5 c 128,-1,46
 539 463 539 463 650 463 c 256,47,48
 761 463 761 463 830.5 541.5 c 128,-1,49
 900 620 900 620 900 728 c 256,50,51
 900 836 900 836 830.5 914.5 c 128,-1,52
 761 993 761 993 650 993 c 256,53,54
 539 993 539 993 469.5 914.5 c 128,-1,55
 400 836 400 836 400 728 c 256,44,45
EndSplineSet
EndChar

StartChar: yen
Encoding: 165 165 102
Width: 1200
GlyphClass: 2
Flags: W
LayerCount: 2
Fore
SplineSet
204 1348 m 2,0,1
 172 1434 172 1434 271 1434 c 2,2,-1
 408 1434 l 2,3,4
 465 1434 465 1434 484 1365 c 2,5,-1
 585 994 l 2,6,7
 603 928 603 928 618.5 876 c 128,-1,8
 634 824 634 824 633 748 c 1,9,-1
 637 748 l 1,10,11
 656 806 656 806 698 861.5 c 128,-1,12
 740 917 740 917 797 994 c 2,13,-1
 1070 1365 l 2,14,15
 1121 1434 1121 1434 1178 1434 c 2,16,-1
 1351 1434 l 2,17,18
 1450 1434 1450 1434 1378 1348 c 2,19,-1
 895 768 l 1,20,-1
 1049 768 l 2,21,22
 1109 768 1109 768 1095 708 c 2,23,-1
 1075 620 l 2,24,25
 1061 560 1061 560 1001 560 c 2,26,-1
 749 560 l 1,27,-1
 710 391 l 1,28,-1
 962 391 l 2,29,30
 1022 391 1022 391 1008 331 c 2,31,-1
 988 243 l 2,32,33
 974 183 974 183 914 183 c 2,34,-1
 662 183 l 1,35,-1
 634 60 l 2,36,37
 620 0 620 0 560 0 c 2,38,-1
 400 0 l 2,39,40
 340 0 340 0 354 60 c 2,41,-1
 382 183 l 1,42,-1
 130 183 l 2,43,44
 70 183 70 183 84 243 c 2,45,-1
 104 331 l 2,46,47
 118 391 118 391 178 391 c 2,48,-1
 430 391 l 1,49,-1
 469 560 l 1,50,-1
 217 560 l 2,51,52
 157 560 157 560 171 620 c 2,53,-1
 191 708 l 2,54,55
 205 768 205 768 265 768 c 2,56,-1
 419 768 l 1,57,-1
 204 1348 l 2,0,1
EndSplineSet
EndChar

StartChar: brokenbar
Encoding: 166 166 103
Width: 630
GlyphClass: 2
Flags: W
LayerCount: 2
Fore
SplineSet
265 -338 m 2,0,1
 215 -338 215 -338 215 -278 c 2,2,-1
 215 336 l 2,3,4
 215 396 215 396 265 396 c 2,5,-1
 365 396 l 2,6,7
 415 396 415 396 415 336 c 2,8,-1
 415 -278 l 2,9,10
 415 -338 415 -338 365 -338 c 2,11,-1
 265 -338 l 2,0,1
265 660 m 2,12,13
 215 660 215 660 215 720 c 2,14,-1
 215 1334 l 2,15,16
 215 1394 215 1394 265 1394 c 2,17,-1
 365 1394 l 2,18,19
 415 1394 415 1394 415 1334 c 2,20,-1
 415 720 l 2,21,22
 415 660 415 660 365 660 c 2,23,-1
 265 660 l 2,12,13
EndSplineSet
EndChar

StartChar: section
Encoding: 167 167 104
Width: 1236
GlyphClass: 2
Flags: W
LayerCount: 2
Fore
SplineSet
123 575 m 0,0,1
 123 704 123 704 216 802.5 c 128,-1,2
 309 901 309 901 456 990 c 1,3,4
 431 1057 431 1057 431 1128 c 0,5,6
 431 1272 431 1272 547.5 1370 c 128,-1,7
 664 1468 664 1468 826 1468 c 0,8,9
 930 1468 930 1468 999 1431 c 128,-1,10
 1068 1394 1068 1394 1103 1349 c 0,11,12
 1141 1300 1141 1300 1115 1277 c 2,13,-1
 1020 1194 l 2,14,15
 986 1164 986 1164 959 1204 c 0,16,17
 940 1232 940 1232 913 1252 c 128,-1,18
 886 1272 886 1272 832 1272 c 0,19,20
 790 1272 790 1272 752.5 1240 c 128,-1,21
 715 1208 715 1208 715 1155 c 0,22,23
 715 1040 715 1040 920 874 c 128,-1,24
 1125 708 1125 708 1125 515 c 0,25,26
 1125 386 1125 386 1032 287.5 c 128,-1,27
 939 189 939 189 792 100 c 1,28,29
 817 33 817 33 817 -38 c 0,30,31
 817 -182 817 -182 700.5 -280 c 128,-1,32
 584 -378 584 -378 422 -378 c 0,33,34
 318 -378 318 -378 249 -341 c 128,-1,35
 180 -304 180 -304 145 -259 c 0,36,37
 107 -210 107 -210 133 -187 c 2,38,-1
 228 -104 l 2,39,40
 262 -74 262 -74 289 -114 c 0,41,42
 308 -142 308 -142 335 -162 c 128,-1,43
 362 -182 362 -182 416 -182 c 0,44,45
 458 -182 458 -182 495.5 -150 c 128,-1,46
 533 -118 533 -118 533 -65 c 0,47,48
 533 50 533 50 328 216 c 128,-1,49
 123 382 123 382 123 575 c 0,0,1
365 634 m 0,50,51
 365 530 365 530 512 414.5 c 128,-1,52
 659 299 659 299 706 243 c 1,53,-1
 813 324 l 2,54,55
 883 377 883 377 883 456 c 0,56,57
 883 560 883 560 736 675.5 c 128,-1,58
 589 791 589 791 542 847 c 1,59,-1
 435 766 l 2,60,61
 365 713 365 713 365 634 c 0,50,51
EndSplineSet
EndChar

StartChar: dieresis
Encoding: 168 168 105
Width: 614
GlyphClass: 2
Flags: W
LayerCount: 2
Fore
SplineSet
194 1206 m 2,0,1
 134 1206 134 1206 148 1266 c 2,2,-1
 175 1382 l 2,3,4
 189 1442 189 1442 249 1442 c 2,5,-1
 365 1442 l 2,6,7
 425 1442 425 1442 411 1382 c 2,8,-1
 384 1266 l 2,9,10
 370 1206 370 1206 310 1206 c 2,11,-1
 194 1206 l 2,0,1
620 1206 m 2,12,13
 560 1206 560 1206 574 1266 c 2,14,-1
 601 1382 l 2,15,16
 615 1442 615 1442 675 1442 c 2,17,-1
 791 1442 l 2,18,19
 851 1442 851 1442 837 1382 c 2,20,-1
 810 1266 l 2,21,22
 796 1206 796 1206 736 1206 c 2,23,-1
 620 1206 l 2,12,13
EndSplineSet
EndChar

StartChar: copyright
Encoding: 169 169 106
Width: 1654
GlyphClass: 2
Flags: W
LayerCount: 2
Fore
SplineSet
96 717 m 256,0,1
 96 870 96 870 156 1008.5 c 128,-1,2
 216 1147 216 1147 316.5 1247.5 c 128,-1,3
 417 1348 417 1348 555.5 1408 c 128,-1,4
 694 1468 694 1468 847 1468 c 256,5,6
 1000 1468 1000 1468 1138.5 1408 c 128,-1,7
 1277 1348 1277 1348 1377.5 1247.5 c 128,-1,8
 1478 1147 1478 1147 1538 1008.5 c 128,-1,9
 1598 870 1598 870 1598 717 c 256,10,11
 1598 564 1598 564 1538 425.5 c 128,-1,12
 1478 287 1478 287 1377.5 186.5 c 128,-1,13
 1277 86 1277 86 1138.5 26 c 128,-1,14
 1000 -34 1000 -34 847 -34 c 256,15,16
 694 -34 694 -34 555.5 26 c 128,-1,17
 417 86 417 86 316.5 186.5 c 128,-1,18
 216 287 216 287 156 425.5 c 128,-1,19
 96 564 96 564 96 717 c 256,0,1
212 717 m 256,20,21
 212 587 212 587 262.5 470 c 128,-1,22
 313 353 313 353 398 268 c 128,-1,23
 483 183 483 183 600 130.5 c 128,-1,24
 717 78 717 78 847 78 c 256,25,26
 977 78 977 78 1094 130.5 c 128,-1,27
 1211 183 1211 183 1296 268 c 128,-1,28
 1381 353 1381 353 1431.5 470 c 128,-1,29
 1482 587 1482 587 1482 717 c 256,30,31
 1482 847 1482 847 1431.5 964 c 128,-1,32
 1381 1081 1381 1081 1296 1166 c 128,-1,33
 1211 1251 1211 1251 1094 1303.5 c 128,-1,34
 977 1356 977 1356 847 1356 c 256,35,36
 717 1356 717 1356 600 1303.5 c 128,-1,37
 483 1251 483 1251 398 1166 c 128,-1,38
 313 1081 313 1081 262.5 964 c 128,-1,39
 212 847 212 847 212 717 c 256,20,21
448 717 m 256,40,41
 448 917 448 917 550 1035 c 128,-1,42
 652 1153 652 1153 843 1153 c 0,43,44
 950 1153 950 1153 1029.5 1120 c 128,-1,45
 1109 1087 1109 1087 1141 1022 c 0,46,47
 1162 980 1162 980 1134 964 c 2,48,-1
 1058 921 l 2,49,50
 1021 900 1021 900 998 943 c 0,51,52
 983 970 983 970 943.5 991 c 128,-1,53
 904 1012 904 1012 849 1012 c 0,54,55
 727 1012 727 1012 681 937 c 128,-1,56
 635 862 635 862 635 717 c 256,57,58
 635 572 635 572 681 497 c 128,-1,59
 727 422 727 422 849 422 c 0,60,61
 915 422 915 422 958 451 c 128,-1,62
 1001 480 1001 480 1019 507 c 0,63,64
 1047 551 1047 551 1079 529 c 2,65,-1
 1155 477 l 2,66,67
 1183 458 1183 458 1160 419 c 0,68,69
 1126 361 1126 361 1043 321 c 128,-1,70
 960 281 960 281 843 281 c 0,71,72
 655 281 655 281 551.5 399 c 128,-1,73
 448 517 448 517 448 717 c 256,40,41
EndSplineSet
EndChar

StartChar: ordfeminine
Encoding: 170 170 107
Width: 804
GlyphClass: 2
Flags: W
LayerCount: 2
Fore
SplineSet
179 1046 m 0,0,1
 179 1229 179 1229 303.5 1362.5 c 128,-1,2
 428 1496 428 1496 589 1496 c 0,3,4
 626 1496 626 1496 660 1475 c 128,-1,5
 694 1454 694 1454 712 1420 c 1,6,-1
 715 1420 l 1,7,-1
 726 1444 l 2,8,9
 743 1482 743 1482 772 1482 c 2,10,-1
 888 1482 l 2,11,12
 929 1482 929 1482 920 1444 c 2,13,-1
 777 839 l 2,14,15
 768 800 768 800 727 800 c 2,16,-1
 611 800 l 2,17,18
 574 800 574 800 581 839 c 2,19,20
 581 839 581 839 590 890 c 1,21,-1
 587 890 l 1,22,23
 550 838 550 838 502 812.5 c 128,-1,24
 454 787 454 787 398 787 c 0,25,26
 290 787 290 787 234.5 859.5 c 128,-1,27
 179 932 179 932 179 1046 c 0,0,1
391 1034 m 0,28,29
 391 988 391 988 414.5 965.5 c 128,-1,30
 438 943 438 943 465 943 c 0,31,32
 523 943 523 943 573 998.5 c 128,-1,33
 623 1054 623 1054 644 1139 c 2,34,-1
 666 1228 l 1,35,36
 664 1284 664 1284 641 1312 c 128,-1,37
 618 1340 618 1340 578 1340 c 0,38,39
 504 1340 504 1340 447.5 1247 c 128,-1,40
 391 1154 391 1154 391 1034 c 0,28,29
EndSplineSet
EndChar

StartChar: logicalnot
Encoding: 172 172 109
Width: 1200
GlyphClass: 2
Flags: W
LayerCount: 2
Fore
SplineSet
185 775 m 2,0,1
 125 775 125 775 125 825 c 2,2,-1
 125 911 l 2,3,4
 125 961 125 961 185 961 c 2,5,-1
 1175 961 l 1,6,-1
 1175 463 l 2,7,8
 1175 403 1175 403 1125 403 c 2,9,-1
 1039 403 l 2,10,11
 989 403 989 403 989 463 c 2,12,-1
 989 775 l 1,13,-1
 185 775 l 2,0,1
EndSplineSet
EndChar

StartChar: registered
Encoding: 174 174 110
Width: 1654
GlyphClass: 2
Flags: W
LayerCount: 2
Fore
SplineSet
96 717 m 256,0,1
 96 870 96 870 156 1008.5 c 128,-1,2
 216 1147 216 1147 316.5 1247.5 c 128,-1,3
 417 1348 417 1348 555.5 1408 c 128,-1,4
 694 1468 694 1468 847 1468 c 256,5,6
 1000 1468 1000 1468 1138.5 1408 c 128,-1,7
 1277 1348 1277 1348 1377.5 1247.5 c 128,-1,8
 1478 1147 1478 1147 1538 1008.5 c 128,-1,9
 1598 870 1598 870 1598 717 c 256,10,11
 1598 564 1598 564 1538 425.5 c 128,-1,12
 1478 287 1478 287 1377.5 186.5 c 128,-1,13
 1277 86 1277 86 1138.5 26 c 128,-1,14
 1000 -34 1000 -34 847 -34 c 256,15,16
 694 -34 694 -34 555.5 26 c 128,-1,17
 417 86 417 86 316.5 186.5 c 128,-1,18
 216 287 216 287 156 425.5 c 128,-1,19
 96 564 96 564 96 717 c 256,0,1
212 717 m 256,20,21
 212 587 212 587 262.5 470 c 128,-1,22
 313 353 313 353 398 268 c 128,-1,23
 483 183 483 183 600 130.5 c 128,-1,24
 717 78 717 78 847 78 c 256,25,26
 977 78 977 78 1094 130.5 c 128,-1,27
 1211 183 1211 183 1296 268 c 128,-1,28
 1381 353 1381 353 1431.5 470 c 128,-1,29
 1482 587 1482 587 1482 717 c 256,30,31
 1482 847 1482 847 1431.5 964 c 128,-1,32
 1381 1081 1381 1081 1296 1166 c 128,-1,33
 1211 1251 1211 1251 1094 1303.5 c 128,-1,34
 977 1356 977 1356 847 1356 c 256,35,36
 717 1356 717 1356 600 1303.5 c 128,-1,37
 483 1251 483 1251 398 1166 c 128,-1,38
 313 1081 313 1081 262.5 964 c 128,-1,39
 212 847 212 847 212 717 c 256,20,21
582 283 m 2,40,41
 541 283 541 283 541 326 c 2,42,-1
 541 1071 l 2,43,44
 541 1114 541 1114 582 1114 c 2,45,-1
 850 1114 l 2,46,47
 1029 1114 1029 1114 1111.5 1058.5 c 128,-1,48
 1194 1003 1194 1003 1194 879 c 0,49,50
 1194 786 1194 786 1127.5 731 c 128,-1,51
 1061 676 1061 676 958 658 c 1,52,-1
 958 657 l 1,53,54
 1014 636 1014 636 1042 599.5 c 128,-1,55
 1070 563 1070 563 1088 534 c 2,56,-1
 1216 333 l 2,57,58
 1248 283 1248 283 1194 283 c 2,59,-1
 1087 283 l 2,60,61
 1055 283 1055 283 1035 317 c 2,62,-1
 918 512 l 2,63,64
 900 542 900 542 849 580 c 128,-1,65
 798 618 798 618 747 618 c 2,66,-1
 716 618 l 1,67,-1
 716 326 l 2,68,69
 716 283 716 283 676 283 c 2,70,-1
 582 283 l 2,40,41
716 763 m 1,71,-1
 810 763 l 2,72,73
 926 763 926 763 975 789 c 128,-1,74
 1024 815 1024 815 1024 872 c 0,75,76
 1024 935 1024 935 977 952.5 c 128,-1,77
 930 970 930 970 838 970 c 2,78,-1
 716 970 l 1,79,-1
 716 763 l 1,71,-1
EndSplineSet
EndChar

StartChar: macron
Encoding: 175 175 111
Width: 614
GlyphClass: 2
Flags: W
LayerCount: 2
Fore
SplineSet
201 1226 m 2,0,1
 141 1226 141 1226 153 1276 c 2,2,-1
 168 1342 l 2,3,4
 180 1392 180 1392 239 1392 c 2,5,-1
 777 1392 l 2,6,7
 837 1392 837 1392 826 1342 c 2,8,-1
 811 1276 l 2,9,10
 799 1226 799 1226 739 1226 c 2,11,-1
 201 1226 l 2,0,1
EndSplineSet
EndChar

StartChar: degree
Encoding: 176 176 112
Width: 600
GlyphClass: 2
Flags: W
LayerCount: 2
Fore
SplineSet
242 1240 m 256,0,1
 242 1333 242 1333 307.5 1398.5 c 128,-1,2
 373 1464 373 1464 466 1464 c 256,3,4
 559 1464 559 1464 624.5 1398.5 c 128,-1,5
 690 1333 690 1333 690 1240 c 256,6,7
 690 1147 690 1147 624.5 1081.5 c 128,-1,8
 559 1016 559 1016 466 1016 c 256,9,10
 373 1016 373 1016 307.5 1081.5 c 128,-1,11
 242 1147 242 1147 242 1240 c 256,0,1
382 1240 m 256,12,13
 382 1204 382 1204 406 1180 c 128,-1,14
 430 1156 430 1156 466 1156 c 256,15,16
 502 1156 502 1156 526 1180 c 128,-1,17
 550 1204 550 1204 550 1240 c 256,18,19
 550 1276 550 1276 526 1300 c 128,-1,20
 502 1324 502 1324 466 1324 c 256,21,22
 430 1324 430 1324 406 1300 c 128,-1,23
 382 1276 382 1276 382 1240 c 256,12,13
EndSplineSet
EndChar

StartChar: uni00B2
Encoding: 178 178 114
Width: 630
GlyphClass: 2
Flags: W
LayerCount: 2
Fore
SplineSet
129 712 m 2,0,1
 89 712 89 712 98 746 c 2,2,-1
 107 782 l 2,3,4
 114 808 114 808 144 835 c 2,5,6
 144 835 144 835 331 999 c 0,7,8
 448 1101 448 1101 510.5 1153.5 c 128,-1,9
 573 1206 573 1206 573 1256 c 0,10,11
 573 1302 573 1302 551.5 1322 c 128,-1,12
 530 1342 530 1342 485 1342 c 0,13,14
 430 1342 430 1342 394 1311 c 128,-1,15
 358 1280 358 1280 342 1241 c 0,16,17
 325 1200 325 1200 284 1223 c 2,18,-1
 246 1244 l 2,19,20
 217 1260 217 1260 232 1292 c 0,21,22
 272 1374 272 1374 340 1421 c 128,-1,23
 408 1468 408 1468 507 1468 c 0,24,25
 612 1468 612 1468 674 1416 c 128,-1,26
 736 1364 736 1364 736 1268 c 0,27,28
 736 1178 736 1178 608 1074 c 128,-1,29
 480 970 480 970 452 946 c 2,30,-1
 341 853 l 1,31,-1
 341 850 l 1,32,33
 372 852 372 852 394 852 c 2,34,-1
 615 852 l 2,35,36
 654 852 654 852 646 818 c 2,37,-1
 629 746 l 2,38,39
 621 712 621 712 582 712 c 2,40,-1
 129 712 l 2,0,1
EndSplineSet
EndChar

StartChar: uni00B3
Encoding: 179 179 115
Width: 630
GlyphClass: 2
Flags: W
LayerCount: 2
Fore
SplineSet
125 767 m 0,0,1
 102 789 102 789 122 816 c 2,2,-1
 159 867 l 2,3,4
 184 902 184 902 214 872 c 0,5,6
 241 845 241 845 284.5 833 c 128,-1,7
 328 821 328 821 368 821 c 0,8,9
 423 821 423 821 463.5 855.5 c 128,-1,10
 504 890 504 890 504 945 c 0,11,12
 504 999 504 999 480 1023 c 128,-1,13
 456 1047 456 1047 405 1047 c 2,14,-1
 365 1047 l 2,15,16
 331 1047 331 1047 337 1074 c 2,17,-1
 353 1143 l 2,18,19
 360 1172 360 1172 394 1172 c 2,20,-1
 415 1172 l 2,21,22
 458 1172 458 1172 507 1205 c 128,-1,23
 556 1238 556 1238 556 1281 c 0,24,25
 556 1318 556 1318 531 1330 c 128,-1,26
 506 1342 506 1342 460 1342 c 0,27,28
 421 1342 421 1342 383.5 1325.5 c 128,-1,29
 346 1309 346 1309 327 1292 c 0,30,31
 295 1263 295 1263 274 1295 c 2,32,-1
 245 1340 l 2,33,34
 229 1366 229 1366 255 1391 c 0,35,36
 292 1427 292 1427 349.5 1447.5 c 128,-1,37
 407 1468 407 1468 464 1468 c 0,38,39
 597 1468 597 1468 655.5 1416.5 c 128,-1,40
 714 1365 714 1365 714 1298 c 0,41,42
 714 1223 714 1223 664.5 1179 c 128,-1,43
 615 1135 615 1135 545 1116 c 1,44,-1
 545 1114 l 1,45,46
 596 1099 596 1099 633 1053.5 c 128,-1,47
 670 1008 670 1008 670 949 c 0,48,49
 670 852 670 852 583 773 c 128,-1,50
 496 694 496 694 354 694 c 0,51,52
 286 694 286 694 224 713 c 128,-1,53
 162 732 162 732 125 767 c 0,0,1
EndSplineSet
EndChar

StartChar: acute
Encoding: 180 180 116
Width: 614
GlyphClass: 2
Flags: W
LayerCount: 2
Fore
SplineSet
319 1150 m 2,0,1
 269 1150 269 1150 312 1209 c 2,2,-1
 441 1388 l 2,3,4
 475 1435 475 1435 558 1435 c 2,5,-1
 710 1435 l 2,6,7
 773 1435 773 1435 719 1376 c 2,8,-1
 546 1187 l 2,9,10
 512 1150 512 1150 436 1150 c 2,11,-1
 319 1150 l 2,0,1
EndSplineSet
EndChar

StartChar: uni00B5
Encoding: 181 181 117
Width: 1234
GlyphClass: 2
Flags: W
LayerCount: 2
Fore
SplineSet
-16 -400 m 2,0,1
 -76 -400 -76 -400 -62 -340 c 2,2,-1
 245 990 l 2,3,4
 259 1050 259 1050 318 1050 c 2,5,-1
 478 1050 l 2,6,7
 539 1050 539 1050 525 990 c 2,8,-1
 434 596 l 2,9,10
 373 330 373 330 406.5 253 c 128,-1,11
 440 176 440 176 521 176 c 0,12,13
 606 176 606 176 697 281.5 c 128,-1,14
 788 387 788 387 836 596 c 2,15,-1
 927 990 l 2,16,17
 941 1050 941 1050 1000 1050 c 2,18,-1
 1160 1050 l 2,19,20
 1221 1050 1221 1050 1207 990 c 2,21,-1
 992 60 l 2,22,23
 978 0 978 0 918 0 c 2,24,-1
 760 0 l 2,25,26
 701 0 701 0 714 60 c 2,27,-1
 727 118 l 1,28,-1
 723 118 l 1,29,30
 680 54 680 54 627 17 c 128,-1,31
 574 -20 574 -20 502 -20 c 0,32,33
 454 -20 454 -20 401 11 c 128,-1,34
 348 42 348 42 325 118 c 1,35,-1
 319 118 l 1,36,37
 314 76 314 76 305 38 c 2,38,-1
 218 -340 l 2,39,40
 204 -400 204 -400 144 -400 c 2,41,-1
 -16 -400 l 2,0,1
EndSplineSet
EndChar

StartChar: paragraph
Encoding: 182 182 118
Width: 1140
GlyphClass: 2
Flags: W
LayerCount: 2
Fore
SplineSet
81 1084 m 256,0,1
 81 1226 81 1226 185 1330 c 128,-1,2
 289 1434 289 1434 451 1434 c 2,3,-1
 601 1434 l 2,4,5
 651 1434 651 1434 651 1374 c 2,6,-1
 651 -310 l 2,7,8
 651 -370 651 -370 601 -370 c 2,9,-1
 501 -370 l 2,10,11
 451 -370 451 -370 451 -310 c 2,12,-1
 451 734 l 1,13,14
 289 734 289 734 185 838 c 128,-1,15
 81 942 81 942 81 1084 c 256,0,1
860 -370 m 2,16,17
 810 -370 810 -370 810 -310 c 2,18,-1
 810 1374 l 2,19,20
 810 1434 810 1434 860 1434 c 2,21,-1
 960 1434 l 2,22,23
 1010 1434 1010 1434 1010 1374 c 2,24,-1
 1010 -310 l 2,25,26
 1010 -370 1010 -370 960 -370 c 2,27,-1
 860 -370 l 2,16,17
EndSplineSet
EndChar

StartChar: periodcentered
Encoding: 183 183 119
Width: 668
GlyphClass: 2
Flags: W
LayerCount: 2
Fore
SplineSet
306 583 m 2,0,1
 236 583 236 583 236 658 c 2,2,-1
 236 792 l 2,3,4
 236 867 236 867 306 867 c 2,5,-1
 458 867 l 2,6,7
 528 867 528 867 528 792 c 2,8,-1
 528 658 l 2,9,10
 528 583 528 583 458 583 c 2,11,-1
 306 583 l 2,0,1
EndSplineSet
EndChar

StartChar: cedilla
Encoding: 184 184 120
Width: 614
GlyphClass: 2
Flags: W
LayerCount: 2
Fore
SplineSet
-77 -399 m 0,0,1
 -108 -390 -108 -390 -95 -357 c 2,2,-1
 -75 -308 l 2,3,4
 -63 -278 -63 -278 -29 -289 c 0,5,6
 17 -304 17 -304 60 -304 c 0,7,8
 97 -304 97 -304 126.5 -287 c 128,-1,9
 156 -270 156 -270 156 -243 c 0,10,11
 156 -222 156 -222 136 -209.5 c 128,-1,12
 116 -197 116 -197 55 -197 c 2,13,-1
 34 -197 l 2,14,15
 4 -197 4 -197 8 -162 c 0,16,17
 14 -115 14 -115 40 -81 c 2,18,-1
 102 0 l 2,19,20
 119 22 119 22 147 22 c 2,21,-1
 239 22 l 2,22,23
 269 22 269 22 253 0 c 2,24,-1
 188 -88 l 1,25,-1
 188 -91 l 1,26,27
 248 -102 248 -102 279.5 -132.5 c 128,-1,28
 311 -163 311 -163 311 -214 c 0,29,30
 311 -295 311 -295 239 -357 c 128,-1,31
 167 -419 167 -419 44 -419 c 0,32,33
 -7 -419 -7 -419 -77 -399 c 0,0,1
EndSplineSet
EndChar

StartChar: uni00B9
Encoding: 185 185 121
Width: 520
GlyphClass: 2
Flags: W
LayerCount: 2
Fore
SplineSet
254 1298 m 2,0,1
 243 1323 243 1323 281 1338 c 0,2,3
 313 1351 313 1351 361.5 1378 c 128,-1,4
 410 1405 410 1405 437 1431 c 0,5,6
 467 1460 467 1460 489 1460 c 2,7,-1
 586 1460 l 2,8,9
 617 1460 617 1460 610 1429 c 2,10,-1
 452 743 l 2,11,12
 445 712 445 712 413 712 c 2,13,-1
 315 712 l 2,14,15
 285 712 285 712 292 743 c 2,16,-1
 401 1218 l 2,17,18
 405 1237 405 1237 413 1260 c 1,19,-1
 411 1260 l 1,20,21
 389 1240 389 1240 363 1227 c 128,-1,22
 337 1214 337 1214 322 1208 c 0,23,24
 298 1199 298 1199 288 1222 c 2,25,-1
 254 1298 l 2,0,1
EndSplineSet
EndChar

StartChar: ordmasculine
Encoding: 186 186 122
Width: 820
GlyphClass: 2
Flags: W
LayerCount: 2
Fore
SplineSet
182 1068 m 0,0,1
 182 1223 182 1223 297 1359.5 c 128,-1,2
 412 1496 412 1496 612 1496 c 0,3,4
 782 1496 782 1496 853.5 1423 c 128,-1,5
 925 1350 925 1350 925 1215 c 0,6,7
 925 1060 925 1060 809.5 923.5 c 128,-1,8
 694 787 694 787 494 787 c 0,9,10
 324 787 324 787 253 860 c 128,-1,11
 182 933 182 933 182 1068 c 0,0,1
394 1062 m 0,12,13
 394 1002 394 1002 425.5 972.5 c 128,-1,14
 457 943 457 943 507 943 c 0,15,16
 577 943 577 943 645 1016.5 c 128,-1,17
 713 1090 713 1090 713 1220 c 0,18,19
 713 1280 713 1280 681 1310 c 128,-1,20
 649 1340 649 1340 599 1340 c 0,21,22
 529 1340 529 1340 461.5 1266 c 128,-1,23
 394 1192 394 1192 394 1062 c 0,12,13
EndSplineSet
EndChar

StartChar: questiondown
Encoding: 191 191 127
Width: 1106
GlyphClass: 2
Flags: W
LayerCount: 2
Fore
SplineSet
-28 -108 m 0,0,1
 -28 102 -28 102 189 262 c 128,-1,2
 406 422 406 422 439 556 c 2,3,-1
 443 572 l 2,4,5
 459 637 459 637 523 637 c 2,6,-1
 673 637 l 2,7,8
 738 637 738 637 723 572 c 2,9,-1
 716 542 l 2,10,11
 664 320 664 320 468 176.5 c 128,-1,12
 272 33 272 33 272 -84 c 0,13,14
 272 -130 272 -130 306 -162 c 128,-1,15
 340 -194 340 -194 424 -194 c 0,16,17
 494 -194 494 -194 561 -152.5 c 128,-1,18
 628 -111 628 -111 674 -55 c 0,19,20
 721 2 721 2 763 -36 c 2,21,-1
 850 -114 l 2,22,23
 909 -167 909 -167 863 -216 c 0,24,25
 796 -288 796 -288 685 -353 c 128,-1,26
 574 -418 574 -418 404 -418 c 0,27,28
 208 -418 208 -418 90 -345.5 c 128,-1,29
 -28 -273 -28 -273 -28 -108 c 0,0,1
551 766 m 2,30,31
 481 766 481 766 499 841 c 2,32,-1
 530 975 l 2,33,34
 547 1050 547 1050 617 1050 c 2,35,-1
 769 1050 l 2,36,37
 839 1050 839 1050 822 975 c 2,38,-1
 791 841 l 2,39,40
 774 766 774 766 703 766 c 2,41,-1
 551 766 l 2,30,31
EndSplineSet
EndChar

StartChar: AE
Encoding: 198 198 134
Width: 1911
GlyphClass: 2
Flags: W
AnchorPoint: "Anchor-3" 1161 1468 basechar 0
AnchorPoint: "Anchor-2" 810 0 basechar 0
LayerCount: 2
Fore
SplineSet
-30 0 m 2,0,1
 -105 0 -105 0 -63 66 c 2,2,-1
 755 1353 l 2,3,4
 806 1434 806 1434 866 1434 c 2,5,-1
 1930 1434 l 2,6,7
 2005 1434 2005 1434 1990 1369 c 2,8,-1
 1963 1251 l 2,9,10
 1948 1186 1948 1186 1873 1186 c 2,11,-1
 1270 1186 l 1,12,-1
 1196 868 l 1,13,-1
 1746 868 l 2,14,15
 1821 868 1821 868 1806 803 c 2,16,-1
 1779 685 l 2,17,18
 1764 620 1764 620 1689 620 c 2,19,-1
 1139 620 l 1,20,-1
 1053 248 l 1,21,-1
 1688 248 l 2,22,23
 1763 248 1763 248 1748 183 c 2,24,-1
 1721 65 l 2,25,26
 1706 0 1706 0 1631 0 c 2,27,-1
 774 0 l 2,28,29
 704 0 704 0 721 75 c 2,30,-1
 782 338 l 1,31,-1
 433 338 l 1,32,-1
 262 69 l 2,33,34
 218 0 218 0 155 0 c 2,35,-1
 -30 0 l 2,0,1
591 586 m 1,36,-1
 839 586 l 1,37,-1
 978 1186 l 1,38,-1
 943 1186 l 1,39,40
 916 1114 916 1114 892.5 1069 c 128,-1,41
 869 1024 869 1024 831 964 c 2,42,-1
 591 586 l 1,36,-1
EndSplineSet
EndChar

StartChar: Eth
Encoding: 208 208 144
Width: 1452
GlyphClass: 2
Flags: W
LayerCount: 2
Fore
SplineSet
126 612 m 2,0,1
 51 612 51 612 66 677 c 2,2,-1
 94 795 l 2,3,4
 109 860 109 860 184 860 c 2,5,-1
 289 860 l 1,6,-1
 404 1359 l 2,7,8
 421 1434 421 1434 491 1434 c 2,9,-1
 790 1434 l 2,10,11
 1148 1434 1148 1434 1304 1269 c 128,-1,12
 1460 1104 1460 1104 1460 831 c 0,13,14
 1460 471 1460 471 1233 235.5 c 128,-1,15
 1006 0 1006 0 539 0 c 2,16,-1
 160 0 l 2,17,18
 90 0 90 0 107 75 c 2,19,-1
 231 612 l 1,20,-1
 126 612 l 2,0,1
439 248 m 1,21,-1
 577 248 l 2,22,23
 878 248 878 248 1013 408 c 128,-1,24
 1148 568 1148 568 1148 852 c 0,25,26
 1148 1005 1148 1005 1074.5 1096.5 c 128,-1,27
 1001 1188 1001 1188 734 1188 c 2,28,-1
 656 1188 l 1,29,-1
 580 860 l 1,30,-1
 820 860 l 2,31,32
 895 860 895 860 880 795 c 2,33,-1
 852 677 l 2,34,35
 837 612 837 612 762 612 c 2,36,-1
 523 612 l 1,37,-1
 439 248 l 1,21,-1
EndSplineSet
EndChar

StartChar: multiply
Encoding: 215 215 151
Width: 1280
GlyphClass: 2
Flags: W
LayerCount: 2
Fore
SplineSet
242 389 m 2,0,1
 207 424 207 424 249 467 c 2,2,-1
 541 758 l 1,3,-1
 249 1050 l 2,4,5
 207 1092 207 1092 242 1128 c 1,6,-1
 303 1188 l 2,7,8
 338 1223 338 1223 381 1181 c 2,9,-1
 672 890 l 1,10,-1
 963 1181 l 2,11,12
 1005 1223 1005 1223 1041 1188 c 2,13,-1
 1102 1128 l 2,14,15
 1137 1093 1137 1093 1095 1050 c 2,16,-1
 804 758 l 1,17,-1
 1095 467 l 2,18,19
 1137 425 1137 425 1102 389 c 1,20,-1
 1041 329 l 2,21,22
 1006 294 1006 294 963 336 c 2,23,-1
 672 627 l 1,24,-1
 381 336 l 2,25,26
 339 294 339 294 303 329 c 2,27,-1
 242 389 l 2,0,1
EndSplineSet
EndChar

StartChar: germandbls
Encoding: 223 223 157
Width: 1337
GlyphClass: 2
Flags: W
LayerCount: 2
Fore
SplineSet
-16 -400 m 2,0,1
 -76 -400 -76 -400 -62 -340 c 2,2,-1
 272 1110 l 2,3,4
 318 1311 318 1311 474 1403.5 c 128,-1,5
 630 1496 630 1496 872 1496 c 0,6,7
 1056 1496 1056 1496 1162.5 1421 c 128,-1,8
 1269 1346 1269 1346 1269 1192 c 0,9,10
 1269 1064 1269 1064 1177.5 965.5 c 128,-1,11
 1086 867 1086 867 938 798 c 1,12,-1
 938 795 l 1,13,14
 1062 778 1062 778 1141 690 c 128,-1,15
 1220 602 1220 602 1220 456 c 0,16,17
 1220 260 1220 260 1093 120 c 128,-1,18
 966 -20 966 -20 684 -20 c 0,19,20
 622 -20 622 -20 558 -5 c 128,-1,21
 494 10 494 10 454 37 c 0,22,23
 421 60 421 60 444 101 c 2,24,-1
 502 204 l 2,25,26
 524 243 524 243 571 217 c 0,27,28
 598 202 598 202 622.5 189 c 128,-1,29
 647 176 647 176 686 176 c 0,30,31
 812 176 812 176 868 258 c 128,-1,32
 924 340 924 340 924 434 c 0,33,34
 924 514 924 514 884 573 c 128,-1,35
 844 632 844 632 714 640 c 0,36,37
 690 642 690 642 683 675 c 2,38,-1
 657 807 l 2,39,40
 652 833 652 833 693 859 c 2,41,-1
 770 908 l 2,42,43
 889 984 889 984 939 1051 c 128,-1,44
 989 1118 989 1118 989 1183 c 256,45,46
 989 1248 989 1248 942.5 1274 c 128,-1,47
 896 1300 896 1300 836 1300 c 0,48,49
 732 1300 732 1300 651 1244 c 128,-1,50
 570 1188 570 1188 536 1040 c 2,51,-1
 218 -340 l 2,52,53
 204 -400 204 -400 144 -400 c 2,54,-1
 -16 -400 l 2,0,1
EndSplineSet
EndChar

StartChar: ae
Encoding: 230 230 164
Width: 1752
GlyphClass: 2
Flags: W
AnchorPoint: "Anchor-3" 954 1070 basechar 0
AnchorPoint: "Anchor-2" 752 0 basechar 0
LayerCount: 2
Fore
SplineSet
19 228 m 0,0,1
 19 434 19 434 231 544 c 128,-1,2
 443 654 443 654 726 666 c 1,3,-1
 735 706 l 2,4,5
 751 778 751 778 713 826 c 128,-1,6
 675 874 675 874 597 874 c 0,7,8
 533 874 533 874 464.5 846.5 c 128,-1,9
 396 819 396 819 354 789 c 0,10,11
 301 751 301 751 278 785 c 2,12,-1
 215 876 l 2,13,14
 184 921 184 921 230 954 c 0,15,16
 288 996 288 996 387 1033 c 128,-1,17
 486 1070 486 1070 642 1070 c 0,18,19
 726 1070 726 1070 794.5 1028.5 c 128,-1,20
 863 987 863 987 896 912 c 1,21,-1
 899 912 l 1,22,23
 993 999 993 999 1081 1034.5 c 128,-1,24
 1169 1070 1169 1070 1285 1070 c 0,25,26
 1487 1070 1487 1070 1596.5 980 c 128,-1,27
 1706 890 1706 890 1706 774 c 0,28,29
 1706 582 1706 582 1556 520 c 0,30,31
 1410 460 1410 460 1173 418 c 2,32,-1
 969 382 l 1,33,34
 968 369 968 369 968 354 c 0,35,36
 968 290 968 290 1007 233 c 128,-1,37
 1046 176 1046 176 1159 176 c 0,38,39
 1226 176 1226 176 1302 203.5 c 128,-1,40
 1378 231 1378 231 1423 265 c 0,41,42
 1475 304 1475 304 1504 265 c 2,43,-1
 1563 187 l 2,44,45
 1599 140 1599 140 1555 99 c 0,46,47
 1490 39 1490 39 1385 9.5 c 128,-1,48
 1280 -20 1280 -20 1141 -20 c 0,49,50
 1013 -20 1013 -20 901 23 c 128,-1,51
 789 66 789 66 734 168 c 1,52,-1
 732 168 l 1,53,54
 657 78 657 78 552 29 c 128,-1,55
 447 -20 447 -20 314 -20 c 0,56,57
 174 -20 174 -20 96.5 41 c 128,-1,58
 19 102 19 102 19 228 c 0,0,1
315 256 m 0,59,60
 315 211 315 211 340 193.5 c 128,-1,61
 365 176 365 176 415 176 c 0,62,63
 464 176 464 176 535.5 208 c 128,-1,64
 607 240 607 240 682 298 c 1,65,66
 669 374 669 374 687 473 c 1,67,68
 506 465 506 465 410.5 397.5 c 128,-1,69
 315 330 315 330 315 256 c 0,59,60
982 570 m 1,70,-1
 1196 606 l 2,71,72
 1297 623 1297 623 1383 656.5 c 128,-1,73
 1469 690 1469 690 1469 751 c 0,74,75
 1469 806 1469 806 1415 840 c 128,-1,76
 1361 874 1361 874 1288 874 c 0,77,78
 1175 874 1175 874 1095.5 786 c 128,-1,79
 1016 698 1016 698 982 570 c 1,70,-1
EndSplineSet
EndChar

StartChar: divide
Encoding: 247 247 180
Width: 1280
GlyphClass: 2
Flags: W
LayerCount: 2
Fore
SplineSet
135 632 m 2,0,1
 75 632 75 632 75 682 c 2,2,-1
 75 768 l 2,3,4
 75 818 75 818 135 818 c 2,5,-1
 1145 818 l 2,6,7
 1205 818 1205 818 1205 768 c 2,8,-1
 1205 682 l 2,9,10
 1205 632 1205 632 1145 632 c 2,11,-1
 135 632 l 2,0,1
564 968 m 2,12,13
 494 968 494 968 494 1043 c 2,14,-1
 494 1177 l 2,15,16
 494 1252 494 1252 564 1252 c 2,17,-1
 716 1252 l 2,18,19
 786 1252 786 1252 786 1177 c 2,20,-1
 786 1043 l 2,21,22
 786 968 786 968 716 968 c 2,23,-1
 564 968 l 2,12,13
564 198 m 2,24,25
 494 198 494 198 494 273 c 2,26,-1
 494 407 l 2,27,28
 494 482 494 482 564 482 c 2,29,-1
 716 482 l 2,30,31
 786 482 786 482 786 407 c 2,32,-1
 786 273 l 2,33,34
 786 198 786 198 716 198 c 2,35,-1
 564 198 l 2,24,25
EndSplineSet
EndChar

StartChar: thorn
Encoding: 254 254 186
Width: 1192
GlyphClass: 2
Flags: W
LayerCount: 2
Fore
SplineSet
-16 -400 m 2,0,1
 -76 -400 -76 -400 -62 -340 c 2,2,-1
 343 1416 l 2,3,4
 357 1476 357 1476 417 1476 c 2,5,-1
 577 1476 l 2,6,7
 637 1476 637 1476 623 1416 c 2,8,-1
 526 992 l 2,9,10
 517 951 517 951 503 912 c 1,11,-1
 507 912 l 1,12,13
 579 998 579 998 636 1034 c 128,-1,14
 693 1070 693 1070 766 1070 c 0,15,16
 964 1070 964 1070 1046.5 940 c 128,-1,17
 1129 810 1129 810 1129 651 c 0,18,19
 1129 388 1129 388 968.5 184 c 128,-1,20
 808 -20 808 -20 596 -20 c 0,21,22
 524 -20 524 -20 446 -1 c 128,-1,23
 368 18 368 18 318 96 c 1,24,-1
 314 96 l 1,25,26
 309 54 309 54 300 16 c 2,27,-1
 218 -340 l 2,28,29
 204 -400 204 -400 144 -400 c 2,30,-1
 -16 -400 l 2,0,1
381 370 m 1,31,32
 381 274 381 274 414.5 225 c 128,-1,33
 448 176 448 176 548 176 c 0,34,35
 683 176 683 176 758 328 c 128,-1,36
 833 480 833 480 833 670 c 0,37,38
 833 774 833 774 794.5 824 c 128,-1,39
 756 874 756 874 688 874 c 0,40,41
 618 874 618 874 537.5 785 c 128,-1,42
 457 696 457 696 418 528 c 2,43,-1
 381 370 l 1,31,32
EndSplineSet
EndChar

StartChar: Aogonek
Encoding: 260 260 192
Width: 1394
GlyphClass: 3
Flags: W
AnchorPoint: "Anchor-3" 890 1468 basechar 0
LayerCount: 2
Fore
SplineSet
-30 0 m 2,0,1
 -102 0 -102 0 -63 66 c 2,2,-1
 701 1353 l 2,3,4
 749 1434 749 1434 812 1434 c 2,5,-1
 952 1434 l 2,6,7
 1015 1434 1015 1434 1029 1353 c 2,8,-1
 1245 66 l 1,9,10
 1256 10 1256 10 1195 -17 c 0,11,12
 1119 -51 1119 -51 1041.5 -105.5 c 128,-1,13
 964 -160 964 -160 964 -189 c 0,14,15
 964 -210 964 -210 981 -217 c 128,-1,16
 998 -224 998 -224 1025 -224 c 0,17,18
 1069 -224 1069 -224 1110 -219 c 0,19,20
 1149 -214 1149 -214 1150 -253 c 2,21,-1
 1153 -368 l 2,22,23
 1154 -406 1154 -406 1119 -411 c 0,24,25
 1050 -420 1050 -420 972 -420 c 0,26,27
 848 -420 848 -420 788 -376.5 c 128,-1,28
 728 -333 728 -333 728 -266 c 0,29,30
 728 -230 728 -230 737 -195.5 c 128,-1,31
 746 -161 746 -161 796 -110.5 c 128,-1,32
 846 -60 846 -60 928 -7 c 0,33,34
 976 24 976 24 968 69 c 2,35,-1
 923 338 l 1,36,-1
 415 338 l 1,37,-1
 256 69 l 2,38,39
 215 0 215 0 149 0 c 2,40,-1
 -30 0 l 2,0,1
561 586 m 1,41,-1
 883 586 l 1,42,-1
 827 904 l 2,43,44
 819 951 819 951 819 981.5 c 128,-1,45
 819 1012 819 1012 825 1061 c 1,46,-1
 821 1061 l 1,47,48
 805 1012 805 1012 795.5 987 c 128,-1,49
 786 962 786 962 751 904 c 2,50,-1
 561 586 l 1,41,-1
EndSplineSet
Ligature2: "'liga' Standard Ligatures in Latin lookup 2 subtable" A uni0328
EndChar

StartChar: aogonek
Encoding: 261 261 193
Width: 1178
GlyphClass: 2
Flags: W
AnchorPoint: "Anchor-3" 652 1070 basechar 0
LayerCount: 2
Fore
SplineSet
62 379 m 0,0,1
 62 660 62 660 244.5 865 c 128,-1,2
 427 1070 427 1070 652 1070 c 0,3,4
 697 1070 697 1070 756 1047 c 128,-1,5
 815 1024 815 1024 863 954 c 1,6,-1
 867 954 l 1,7,-1
 884 990 l 2,8,9
 912 1050 912 1050 951 1050 c 2,10,-1
 1104 1050 l 2,11,12
 1165 1050 1165 1050 1151 990 c 2,13,-1
 936 60 l 2,14,15
 926 15 926 15 882 -11 c 1,16,17
 771 -80 771 -80 713.5 -120 c 128,-1,18
 656 -160 656 -160 656 -189 c 0,19,20
 656 -210 656 -210 673 -217 c 128,-1,21
 690 -224 690 -224 717 -224 c 0,22,23
 761 -224 761 -224 802 -219 c 0,24,25
 841 -214 841 -214 842 -253 c 2,26,-1
 845 -368 l 2,27,28
 846 -406 846 -406 811 -411 c 0,29,30
 742 -420 742 -420 664 -420 c 0,31,32
 540 -420 540 -420 480 -376.5 c 128,-1,33
 420 -333 420 -333 420 -266 c 0,34,35
 420 -230 420 -230 429 -195.5 c 128,-1,36
 438 -161 438 -161 488 -110.5 c 128,-1,37
 538 -60 538 -60 620 -7 c 1,38,39
 655 11 655 11 664 60 c 2,40,-1
 678 138 l 1,41,-1
 674 138 l 1,42,43
 615 66 615 66 549 23 c 128,-1,44
 483 -20 483 -20 398 -20 c 0,45,46
 239 -20 239 -20 150.5 101 c 128,-1,47
 62 222 62 222 62 379 c 0,0,1
358 360 m 0,48,49
 358 274 358 274 396.5 225 c 128,-1,50
 435 176 435 176 483 176 c 0,51,52
 569 176 569 176 645.5 262.5 c 128,-1,53
 722 349 722 349 763 522 c 2,54,-1
 800 680 l 1,55,56
 800 771 800 771 767 822.5 c 128,-1,57
 734 874 734 874 648 874 c 0,58,59
 524 874 524 874 441 716 c 128,-1,60
 358 558 358 558 358 360 c 0,48,49
EndSplineSet
EndChar

StartChar: dcroat
Encoding: 273 273 205
Width: 1238
GlyphClass: 2
Flags: W
LayerCount: 2
Fore
SplineSet
362 380 m 0,0,1
 362 276 362 276 400.5 226 c 128,-1,2
 439 176 439 176 507 176 c 0,3,4
 578 176 578 176 658 264.5 c 128,-1,5
 738 353 738 353 777 522 c 2,6,-1
 814 680 l 1,7,8
 814 776 814 776 780.5 825 c 128,-1,9
 747 874 747 874 647 874 c 0,10,11
 512 874 512 874 437 722 c 128,-1,12
 362 570 362 570 362 380 c 0,0,1
66 399 m 0,13,14
 66 662 66 662 226.5 866 c 128,-1,15
 387 1070 387 1070 599 1070 c 0,16,17
 671 1070 671 1070 749 1051 c 128,-1,18
 827 1032 827 1032 877 954 c 1,19,-1
 881 954 l 1,20,21
 885 985 885 985 896 1034 c 2,22,-1
 929 1180 l 1,23,-1
 657 1180 l 2,24,25
 598 1180 598 1180 609 1230 c 2,26,-1
 632 1330 l 2,27,28
 644 1380 644 1380 704 1380 c 2,29,-1
 975 1380 l 1,30,-1
 983 1416 l 2,31,32
 997 1476 997 1476 1057 1476 c 2,33,-1
 1217 1476 l 2,34,35
 1277 1476 1277 1476 1263 1416 c 2,36,-1
 1255 1380 l 1,37,-1
 1360 1380 l 2,38,39
 1419 1380 1419 1380 1408 1330 c 2,40,-1
 1385 1230 l 2,41,42
 1373 1180 1373 1180 1313 1180 c 2,43,-1
 1209 1180 l 1,44,-1
 950 60 l 2,45,46
 936 0 936 0 876 0 c 2,47,-1
 718 0 l 2,48,49
 667 0 667 0 678 60 c 2,50,-1
 692 138 l 1,51,-1
 688 138 l 1,52,53
 616 52 616 52 559 16 c 128,-1,54
 502 -20 502 -20 429 -20 c 0,55,56
 231 -20 231 -20 148.5 110 c 128,-1,57
 66 240 66 240 66 399 c 0,13,14
EndSplineSet
EndChar

StartChar: Eogonek
Encoding: 280 280 212
Width: 1280
GlyphClass: 2
Flags: W
AnchorPoint: "Anchor-3" 879 1468 basechar 0
LayerCount: 2
Fore
SplineSet
110 0 m 2,0,1
 40 0 40 0 57 75 c 2,2,-1
 354 1359 l 2,3,4
 371 1434 371 1434 441 1434 c 2,5,-1
 1299 1434 l 2,6,7
 1374 1434 1374 1434 1359 1369 c 2,8,-1
 1332 1251 l 2,9,10
 1317 1186 1317 1186 1242 1186 c 2,11,-1
 606 1186 l 1,12,-1
 532 868 l 1,13,-1
 1115 868 l 2,14,15
 1190 868 1190 868 1175 803 c 2,16,-1
 1148 685 l 2,17,18
 1133 620 1133 620 1058 620 c 2,19,-1
 475 620 l 1,20,-1
 389 248 l 1,21,-1
 1057 248 l 2,22,23
 1132 248 1132 248 1117 183 c 2,24,-1
 1090 65 l 2,25,26
 1075 0 1075 0 1000 0 c 2,27,-1
 990 0 l 1,28,29
 876 -70 876 -70 810 -115 c 128,-1,30
 744 -160 744 -160 744 -189 c 0,31,32
 744 -210 744 -210 761 -217 c 128,-1,33
 778 -224 778 -224 805 -224 c 0,34,35
 849 -224 849 -224 890 -219 c 0,36,37
 929 -214 929 -214 930 -253 c 2,38,-1
 933 -368 l 2,39,40
 934 -406 934 -406 899 -411 c 0,41,42
 830 -420 830 -420 752 -420 c 0,43,44
 628 -420 628 -420 568 -376.5 c 128,-1,45
 508 -333 508 -333 508 -266 c 0,46,47
 508 -230 508 -230 517 -195.5 c 128,-1,48
 526 -161 526 -161 576 -110.5 c 128,-1,49
 626 -60 626 -60 708 -7 c 1,50,-1
 708 4 l 1,51,52
 647 0 647 0 587 0 c 2,53,-1
 110 0 l 2,0,1
EndSplineSet
EndChar

StartChar: eogonek
Encoding: 281 281 213
Width: 1150
GlyphClass: 2
Flags: W
AnchorPoint: "Anchor-3" 679 1070 basechar 0
LayerCount: 2
Fore
SplineSet
58 415 m 0,0,1
 58 646 58 646 223 858 c 128,-1,2
 388 1070 388 1070 679 1070 c 0,3,4
 880 1070 880 1070 992 980 c 128,-1,5
 1104 890 1104 890 1104 774 c 0,6,7
 1104 582 1104 582 960.5 521.5 c 128,-1,8
 817 461 817 461 566 418 c 2,9,-1
 357 382 l 1,10,11
 356 369 356 369 356 354 c 0,12,13
 356 290 356 290 391 233 c 128,-1,14
 426 176 426 176 552 176 c 0,15,16
 624 176 624 176 699 203.5 c 128,-1,17
 774 231 774 231 819 265 c 0,18,19
 871 304 871 304 900 265 c 2,20,-1
 959 187 l 2,21,22
 995 139 995 139 951 99 c 0,23,24
 919 70 919 70 887 48 c 128,-1,25
 855 26 855 26 793 -16 c 256,26,27
 731 -58 731 -58 672 -109 c 128,-1,28
 613 -160 613 -160 613 -189 c 0,29,30
 613 -210 613 -210 630 -217 c 128,-1,31
 647 -224 647 -224 674 -224 c 0,32,33
 718 -224 718 -224 759 -219 c 0,34,35
 798 -214 798 -214 799 -253 c 2,36,-1
 802 -368 l 2,37,38
 803 -406 803 -406 768 -411 c 0,39,40
 699 -420 699 -420 621 -420 c 0,41,42
 497 -420 497 -420 437 -376.5 c 128,-1,43
 377 -333 377 -333 377 -266 c 0,44,45
 377 -230 377 -230 386 -195.5 c 128,-1,46
 395 -161 395 -161 448.5 -118 c 128,-1,47
 502 -75 502 -75 584 -22 c 1,48,-1
 584 -15 l 1,49,50
 562 -20 562 -20 534 -20 c 0,51,52
 258 -20 258 -20 158 107 c 128,-1,53
 58 234 58 234 58 415 c 0,0,1
370 570 m 1,54,-1
 589 606 l 2,55,56
 694 623 694 623 780.5 656.5 c 128,-1,57
 867 690 867 690 867 751 c 0,58,59
 867 806 867 806 814.5 840 c 128,-1,60
 762 874 762 874 682 874 c 0,61,62
 555 874 555 874 479.5 786 c 128,-1,63
 404 698 404 698 370 570 c 1,54,-1
EndSplineSet
EndChar

StartChar: hbar
Encoding: 295 295 224
Width: 1233
GlyphClass: 2
Flags: W
LayerCount: 2
Fore
SplineSet
229 1180 m 2,0,1
 169 1180 169 1180 181 1230 c 2,2,-1
 204 1330 l 2,3,4
 216 1380 216 1380 276 1380 c 2,5,-1
 367 1380 l 1,6,-1
 375 1416 l 2,7,8
 389 1476 389 1476 449 1476 c 2,9,-1
 609 1476 l 2,10,11
 669 1476 669 1476 655 1416 c 2,12,-1
 647 1380 l 1,13,-1
 990 1380 l 2,14,15
 1050 1380 1050 1380 1038 1330 c 2,16,-1
 1015 1230 l 2,17,18
 1003 1180 1003 1180 943 1180 c 2,19,-1
 600 1180 l 1,20,-1
 559 992 l 2,21,22
 550 951 550 951 536 912 c 1,23,-1
 541 912 l 1,24,25
 621 1006 621 1006 693.5 1038 c 128,-1,26
 766 1070 766 1070 866 1070 c 0,27,28
 1011 1070 1011 1070 1094 963 c 128,-1,29
 1177 856 1177 856 1121 614 c 2,30,-1
 992 60 l 2,31,32
 978 0 978 0 918 0 c 2,33,-1
 758 0 l 2,34,35
 698 0 698 0 712 60 c 2,36,-1
 824 542 l 2,37,38
 873 754 873 754 849 814 c 128,-1,39
 825 874 825 874 742 874 c 0,40,41
 637 874 637 874 556 757 c 128,-1,42
 475 640 475 640 426 424 c 2,43,-1
 342 60 l 2,44,45
 328 0 328 0 268 0 c 2,46,-1
 108 0 l 2,47,48
 48 0 48 0 62 60 c 2,49,-1
 320 1180 l 1,50,-1
 229 1180 l 2,0,1
EndSplineSet
EndChar

StartChar: dotlessi
Encoding: 305 305 232
Width: 552
GlyphClass: 2
Flags: W
AnchorPoint: "Anchor-3" 403 1070 basechar 0
AnchorPoint: "Anchor-2" 156 0 basechar 0
LayerCount: 2
Fore
SplineSet
76 0 m 2,0,1
 16 0 16 0 30 60 c 2,2,-1
 245 990 l 2,3,4
 259 1050 259 1050 318 1050 c 2,5,-1
 478 1050 l 2,6,7
 538 1050 538 1050 525 990 c 2,8,-1
 310 60 l 2,9,10
 296 0 296 0 236 0 c 2,11,-1
 76 0 l 2,0,1
EndSplineSet
EndChar

StartChar: Lslash
Encoding: 321 321 239
Width: 1244
GlyphClass: 2
Flags: W
LayerCount: 2
Fore
SplineSet
96 390 m 2,0,1
 16 343 16 343 31 410 c 2,2,-1
 66 570 l 2,3,4
 78 624 78 624 136 658 c 2,5,-1
 294 750 l 1,6,-1
 436 1359 l 2,7,8
 453 1434 453 1434 523 1434 c 2,9,-1
 685 1434 l 2,10,11
 746 1434 746 1434 728 1359 c 2,12,-1
 660 1070 l 2,13,14
 646 1009 646 1009 627 950 c 1,15,-1
 634 950 l 1,16,-1
 901 1105 l 2,17,18
 982 1152 982 1152 967 1085 c 2,19,-1
 931 925 l 2,20,21
 919 870 919 870 861 837 c 2,22,-1
 569 668 l 1,23,-1
 471 248 l 1,24,-1
 1054 248 l 2,25,26
 1129 248 1129 248 1114 183 c 2,27,-1
 1087 65 l 2,28,29
 1072 0 1072 0 997 0 c 2,30,-1
 192 0 l 2,31,32
 121 0 121 0 139 75 c 2,33,-1
 203 348 l 2,34,35
 217 409 217 409 236 468 c 1,36,-1
 229 468 l 1,37,-1
 96 390 l 2,0,1
EndSplineSet
EndChar

StartChar: lslash
Encoding: 322 322 240
Width: 692
GlyphClass: 2
Flags: W
AnchorPoint: "Anchor-3" 479 1476 basechar 0
LayerCount: 2
Fore
SplineSet
78 465 m 2,0,1
 14 425 14 425 27 480 c 2,2,-1
 63 638 l 2,3,4
 73 683 73 683 124 715 c 2,5,-1
 267 805 l 1,6,-1
 368 1241 l 2,7,8
 379 1288 379 1288 407 1323 c 2,9,-1
 516 1458 l 2,10,11
 547 1496 547 1496 576 1496 c 2,12,-1
 646 1496 l 2,13,14
 707 1496 707 1496 693 1436 c 2,15,-1
 614 1096 l 2,16,17
 604 1053 604 1053 592 1016 c 1,18,-1
 596 1016 l 1,19,-1
 736 1104 l 2,20,21
 800 1144 800 1144 787 1088 c 2,22,-1
 751 930 l 2,23,24
 741 886 741 886 690 854 c 2,25,-1
 536 758 l 1,26,-1
 375 60 l 2,27,28
 361 0 361 0 301 0 c 2,29,-1
 141 0 l 2,30,31
 81 0 81 0 95 60 c 2,32,-1
 189 467 l 2,33,34
 199 510 199 510 211 547 c 1,35,-1
 207 547 l 1,36,-1
 78 465 l 2,0,1
EndSplineSet
EndChar

StartChar: eng
Encoding: 331 331 245
Width: 1200
GlyphClass: 2
Flags: W
AnchorPoint: "Anchor-3" 728 1070 basechar 0
AnchorPoint: "Anchor-2" 388 -400 basechar 0
LayerCount: 2
Fore
SplineSet
76 0 m 2,0,1
 16 0 16 0 30 60 c 2,2,-1
 245 990 l 2,3,4
 259 1050 259 1050 318 1050 c 2,5,-1
 476 1050 l 2,6,7
 538 1050 538 1050 523 990 c 2,8,-1
 504 912 l 1,9,-1
 508 912 l 1,10,11
 588 1006 588 1006 660.5 1038 c 128,-1,12
 733 1070 733 1070 833 1070 c 0,13,14
 978 1070 978 1070 1061 963 c 128,-1,15
 1144 856 1144 856 1088 614 c 2,16,-1
 945 -4 l 2,17,18
 888 -252 888 -252 777 -336 c 128,-1,19
 666 -420 666 -420 495 -420 c 0,20,21
 405 -420 405 -420 354 -405 c 0,22,23
 317 -394 317 -394 333 -349 c 2,24,-1
 370 -243 l 2,25,26
 382 -208 382 -208 424 -215 c 0,27,28
 473 -224 473 -224 491 -224 c 0,29,30
 564 -224 564 -224 604 -159 c 128,-1,31
 644 -94 644 -94 672 26 c 2,32,-1
 791 542 l 2,33,34
 840 754 840 754 816 814 c 128,-1,35
 792 874 792 874 709 874 c 0,36,37
 604 874 604 874 523 757 c 128,-1,38
 442 640 442 640 393 424 c 2,39,-1
 310 60 l 2,40,41
 296 0 296 0 236 0 c 2,42,-1
 76 0 l 2,0,1
EndSplineSet
EndChar

StartChar: longs
Encoding: 383 383 285
Width: 652
GlyphClass: 2
Flags: W
AnchorPoint: "Anchor-3" 668 1476 basechar 0
AnchorPoint: "Anchor-2" 110 -400 basechar 0
LayerCount: 2
Fore
SplineSet
-16 -400 m 2,0,1
 -76 -400 -76 -400 -62 -340 c 2,2,-1
 291 1190 l 2,3,4
 329 1353 329 1353 433.5 1424.5 c 128,-1,5
 538 1496 538 1496 708 1496 c 0,6,7
 762 1496 762 1496 809 1484.5 c 128,-1,8
 856 1473 856 1473 894 1458 c 0,9,10
 929 1444 929 1444 913 1405 c 2,11,-1
 868 1297 l 2,12,13
 858 1272 858 1272 819 1284 c 0,14,15
 790 1293 790 1293 756 1296.5 c 128,-1,16
 722 1300 722 1300 700 1300 c 0,17,18
 628 1300 628 1300 599 1242.5 c 128,-1,19
 570 1185 570 1185 548 1090 c 2,20,-1
 218 -340 l 2,21,22
 204 -400 204 -400 144 -400 c 2,23,-1
 -16 -400 l 2,0,1
EndSplineSet
EndChar

StartChar: uni0186
Encoding: 390 390 286
Width: 1404
GlyphClass: 2
Flags: W
AnchorPoint: "Anchor-3" 760 1468 basechar 0
LayerCount: 2
Fore
SplineSet
116 183 m 0,0,1
 76 249 76 249 133 287 c 2,2,-1
 257 370 l 2,3,4
 303 401 303 401 353 334 c 0,5,6
 403 268 403 268 478 235 c 128,-1,7
 553 202 553 202 625 202 c 0,8,9
 836 202 836 202 960 394 c 128,-1,10
 1084 586 1084 586 1084 884 c 0,11,12
 1084 1035 1084 1035 1006 1133.5 c 128,-1,13
 928 1232 928 1232 739 1232 c 0,14,15
 631 1232 631 1232 559 1190.5 c 128,-1,16
 487 1149 487 1149 446 1092 c 0,17,18
 393 1019 393 1019 346 1045 c 2,19,-1
 219 1115 l 2,20,21
 157 1149 157 1149 201 1213 c 0,22,23
 277 1323 277 1323 418 1395.5 c 128,-1,24
 559 1468 559 1468 760 1468 c 0,25,26
 1060 1468 1060 1468 1228 1314.5 c 128,-1,27
 1396 1161 1396 1161 1396 846 c 0,28,29
 1396 498 1396 498 1194 232 c 128,-1,30
 992 -34 992 -34 604 -34 c 0,31,32
 424 -34 424 -34 298 28.5 c 128,-1,33
 172 91 172 91 116 183 c 0,0,1
EndSplineSet
EndChar

StartChar: uni0197
Encoding: 407 407 289
Width: 800
GlyphClass: 2
Flags: W
LayerCount: 2
Fore
SplineSet
145 622 m 2,0,1
 70 622 70 622 85 687 c 2,2,-1
 112 805 l 2,3,4
 127 870 127 870 202 870 c 2,5,-1
 335 870 l 1,6,-1
 448 1359 l 2,7,8
 465 1434 465 1434 535 1434 c 2,9,-1
 687 1434 l 2,10,11
 757 1434 757 1434 740 1359 c 2,12,-1
 627 870 l 1,13,-1
 760 870 l 2,14,15
 835 870 835 870 820 805 c 2,16,-1
 793 687 l 2,17,18
 778 622 778 622 703 622 c 2,19,-1
 570 622 l 1,20,-1
 443 75 l 2,21,22
 426 0 426 0 356 0 c 2,23,-1
 204 0 l 2,24,25
 134 0 134 0 151 75 c 2,26,-1
 278 622 l 1,27,-1
 145 622 l 2,0,1
EndSplineSet
EndChar

StartChar: uni0237
Encoding: 567 567 349
Width: 562
GlyphClass: 2
Flags: W
AnchorPoint: "Anchor-3" 413 1070 basechar 0
AnchorPoint: "Anchor-2" -70 -400 basechar 0
LayerCount: 2
Fore
SplineSet
-286 -405 m 0,0,1
 -323 -394 -323 -394 -307 -349 c 2,2,-1
 -270 -243 l 2,3,4
 -258 -208 -258 -208 -216 -215 c 0,5,6
 -167 -224 -167 -224 -149 -224 c 0,7,8
 -76 -224 -76 -224 -36 -159 c 128,-1,9
 4 -94 4 -94 32 26 c 2,10,-1
 255 990 l 2,11,12
 269 1050 269 1050 328 1050 c 2,13,-1
 488 1050 l 2,14,15
 549 1050 549 1050 535 990 c 2,16,-1
 305 -4 l 2,17,18
 248 -252 248 -252 137 -336 c 128,-1,19
 26 -420 26 -420 -145 -420 c 0,20,21
 -235 -420 -235 -420 -286 -405 c 0,0,1
EndSplineSet
EndChar

StartChar: uni0244
Encoding: 580 580 350
Width: 1610
GlyphClass: 2
Flags: W
LayerCount: 2
Fore
SplineSet
145 622 m 2,0,1
 70 622 70 622 85 687 c 2,2,-1
 112 805 l 2,3,4
 127 870 127 870 202 870 c 2,5,-1
 335 870 l 1,6,-1
 452 1379 l 2,7,8
 465 1434 465 1434 535 1434 c 2,9,-1
 687 1434 l 2,10,11
 757 1434 757 1434 744 1379 c 2,12,-1
 627 870 l 1,13,-1
 1145 870 l 1,14,-1
 1262 1379 l 2,15,16
 1275 1434 1275 1434 1345 1434 c 2,17,-1
 1497 1434 l 2,18,19
 1567 1434 1567 1434 1554 1379 c 2,20,-1
 1437 870 l 1,21,-1
 1570 870 l 2,22,23
 1645 870 1645 870 1630 805 c 2,24,-1
 1603 687 l 2,25,26
 1588 622 1588 622 1513 622 c 2,27,-1
 1380 622 l 1,28,-1
 1374 597 l 1,29,30
 1290 234 1290 234 1136 100 c 128,-1,31
 982 -34 982 -34 701 -34 c 0,32,33
 460 -34 460 -34 327.5 114.5 c 128,-1,34
 195 263 195 263 272 597 c 1,35,-1
 278 622 l 1,36,-1
 145 622 l 2,0,1
566 607 m 1,37,38
 504 339 504 339 559 270.5 c 128,-1,39
 614 202 614 202 731 202 c 0,40,41
 832 202 832 202 930.5 284.5 c 128,-1,42
 1029 367 1029 367 1084 607 c 1,43,-1
 1087 622 l 1,44,-1
 569 622 l 1,45,-1
 566 607 l 1,37,38
EndSplineSet
EndChar

StartChar: uni0245
Encoding: 581 581 351
Width: 1370
GlyphClass: 2
Flags: W
LayerCount: 2
Fore
SplineSet
179 66 m 2,0,-1
 954 1353 l 2,1,2
 1003 1434 1003 1434 1067 1434 c 2,3,-1
 1207 1434 l 2,4,5
 1271 1434 1271 1434 1282 1353 c 2,6,-1
 1463 66 l 2,7,8
 1472 0 1472 0 1401 0 c 2,9,-1
 1262 0 l 2,10,11
 1195 0 1195 0 1186 69 c 2,12,-1
 1073 904 l 1,13,14
 1066 964 1066 964 1066 988 c 128,-1,15
 1066 1012 1066 1012 1073 1061 c 1,16,-1
 1069 1061 l 1,17,18
 1052 1012 1052 1012 1041.5 987 c 128,-1,19
 1031 962 1031 962 997 904 c 2,20,-1
 498 69 l 2,21,22
 457 0 457 0 390 0 c 2,23,-1
 211 0 l 2,24,25
 139 0 139 0 179 66 c 2,0,-1
EndSplineSet
EndChar

StartChar: uni0254
Encoding: 596 596 352
Width: 1086
GlyphClass: 2
Flags: W
AnchorPoint: "Anchor-3" 570 1070 basechar 0
AnchorPoint: "Anchor-2" 420 0 basechar 0
LayerCount: 2
Fore
SplineSet
59 144 m 0,0,1
 30 186 30 186 76 217 c 2,2,-1
 185 290 l 2,3,4
 224 316 224 316 262 260 c 0,5,6
 283 229 283 229 319 202.5 c 128,-1,7
 355 176 355 176 425 176 c 0,8,9
 538 176 538 176 636 302 c 128,-1,10
 734 428 734 428 734 663 c 0,11,12
 734 768 734 768 685 821 c 128,-1,13
 636 874 636 874 552 874 c 0,14,15
 474 874 474 874 424.5 841 c 128,-1,16
 375 808 375 808 328 749 c 0,17,18
 291 703 291 703 247 744 c 2,19,-1
 166 819 l 2,20,21
 127 855 127 855 168 907 c 0,22,23
 207 957 207 957 305.5 1013.5 c 128,-1,24
 404 1070 404 1070 570 1070 c 0,25,26
 830 1070 830 1070 930 941.5 c 128,-1,27
 1030 813 1030 813 1030 638 c 0,28,29
 1030 406 1030 406 862 193 c 128,-1,30
 694 -20 694 -20 415 -20 c 0,31,32
 266 -20 266 -20 188 25 c 128,-1,33
 110 70 110 70 59 144 c 0,0,1
EndSplineSet
EndChar

StartChar: uni0259
Encoding: 601 601 353
Width: 1150
GlyphClass: 2
Flags: W
AnchorPoint: "Anchor-3" 618 1070 basechar 0
AnchorPoint: "Anchor-2" 478 0 basechar 0
LayerCount: 2
Fore
SplineSet
48 276 m 0,0,1
 48 468 48 468 190.5 528 c 128,-1,2
 333 588 333 588 586 632 c 2,3,-1
 795 668 l 1,4,5
 796 681 796 681 796 696 c 0,6,7
 796 760 796 760 761 817 c 128,-1,8
 726 874 726 874 600 874 c 0,9,10
 528 874 528 874 453 846.5 c 128,-1,11
 378 819 378 819 333 785 c 0,12,13
 281 746 281 746 252 785 c 2,14,-1
 193 863 l 2,15,16
 157 910 157 910 201 951 c 0,17,18
 266 1011 266 1011 371 1040.5 c 128,-1,19
 476 1070 476 1070 618 1070 c 0,20,21
 894 1070 894 1070 994 943 c 128,-1,22
 1094 816 1094 816 1094 635 c 0,23,24
 1094 404 1094 404 929 192 c 128,-1,25
 764 -20 764 -20 473 -20 c 0,26,27
 272 -20 272 -20 160 70 c 128,-1,28
 48 160 48 160 48 276 c 0,0,1
285 299 m 0,29,30
 285 244 285 244 337.5 210 c 128,-1,31
 390 176 390 176 470 176 c 0,32,33
 597 176 597 176 672.5 264 c 128,-1,34
 748 352 748 352 782 480 c 1,35,-1
 563 444 l 2,36,37
 458 427 458 427 371.5 393.5 c 128,-1,38
 285 360 285 360 285 299 c 0,29,30
EndSplineSet
EndChar

StartChar: uni0265
Encoding: 613 613 354
Width: 1194
GlyphClass: 2
Flags: W
AnchorPoint: "Anchor-3" 723 1070 basechar 0
AnchorPoint: "Anchor-2" 383 -400 basechar 0
LayerCount: 2
Fore
SplineSet
115 436 m 2,0,-1
 243 990 l 2,1,2
 257 1050 257 1050 316 1050 c 2,3,-1
 476 1050 l 2,4,5
 536 1050 536 1050 523 990 c 2,6,-1
 411 508 l 2,7,8
 362 296 362 296 386.5 236 c 128,-1,9
 411 176 411 176 491 176 c 0,10,11
 592 176 592 176 673.5 295 c 128,-1,12
 755 414 755 414 806 635 c 2,13,-1
 887 990 l 2,14,15
 901 1050 901 1050 960 1050 c 2,16,-1
 1120 1050 l 2,17,18
 1180 1050 1180 1050 1167 990 c 2,19,-1
 860 -340 l 2,20,21
 846 -400 846 -400 786 -400 c 2,22,-1
 626 -400 l 2,23,24
 566 -400 566 -400 580 -340 c 2,25,-1
 674 67 l 2,26,27
 684 109 684 109 696 147 c 1,28,-1
 691 147 l 1,29,30
 611 53 611 53 538.5 16.5 c 128,-1,31
 466 -20 466 -20 366 -20 c 0,32,33
 224 -20 224 -20 141.5 87 c 128,-1,34
 59 194 59 194 115 436 c 2,0,-1
EndSplineSet
EndChar

StartChar: uni0268
Encoding: 616 616 355
Width: 728
GlyphClass: 2
Flags: W
AnchorPoint: "Anchor-2" 244 0 basechar 0
LayerCount: 2
Fore
SplineSet
90 448 m 2,0,1
 30 448 30 448 42 498 c 2,2,-1
 65 598 l 2,3,4
 77 648 77 648 137 648 c 2,5,-1
 254 648 l 1,6,-1
 333 990 l 2,7,8
 347 1050 347 1050 406 1050 c 2,9,-1
 566 1050 l 2,10,11
 626 1050 626 1050 613 990 c 2,12,-1
 534 648 l 1,13,-1
 651 648 l 2,14,15
 711 648 711 648 699 598 c 2,16,-1
 676 498 l 2,17,18
 664 448 664 448 604 448 c 2,19,-1
 487 448 l 1,20,-1
 398 60 l 2,21,22
 384 0 384 0 324 0 c 2,23,-1
 164 0 l 2,24,25
 104 0 104 0 118 60 c 2,26,-1
 207 448 l 1,27,-1
 90 448 l 2,0,1
442 1204 m 2,28,29
 382 1204 382 1204 396 1264 c 2,30,-1
 425 1392 l 2,31,32
 439 1452 439 1452 499 1452 c 2,33,-1
 659 1452 l 2,34,35
 719 1452 719 1452 705 1392 c 2,36,-1
 676 1264 l 2,37,38
 662 1204 662 1204 602 1204 c 2,39,-1
 442 1204 l 2,28,29
EndSplineSet
EndChar

StartChar: uni026A
Encoding: 618 618 356
Width: 748
GlyphClass: 2
Flags: W
AnchorPoint: "Anchor-3" 501 1070 basechar 0
AnchorPoint: "Anchor-2" 254 0 basechar 0
LayerCount: 2
Fore
SplineSet
32 0 m 2,0,1
 -28 0 -28 0 -16 50 c 2,2,-1
 7 150 l 2,3,4
 19 200 19 200 78 200 c 2,5,-1
 160 200 l 1,6,-1
 310 850 l 1,7,-1
 228 850 l 2,8,9
 168 850 168 850 180 900 c 2,10,-1
 203 1000 l 2,11,12
 215 1050 215 1050 274 1050 c 2,13,-1
 718 1050 l 2,14,15
 778 1050 778 1050 767 1000 c 2,16,-1
 744 900 l 2,17,18
 732 850 732 850 672 850 c 2,19,-1
 590 850 l 1,20,-1
 440 200 l 1,21,-1
 522 200 l 2,22,23
 582 200 582 200 571 150 c 2,24,-1
 548 50 l 2,25,26
 536 0 536 0 476 0 c 2,27,-1
 32 0 l 2,0,1
EndSplineSet
EndChar

StartChar: uni0271
Encoding: 625 625 358
Width: 1750
GlyphClass: 2
Flags: W
AnchorPoint: "Anchor-3" 1003 1070 basechar 0
AnchorPoint: "Anchor-2" 663 -400 basechar 0
LayerCount: 2
Fore
SplineSet
76 0 m 2,0,1
 16 0 16 0 30 60 c 2,2,-1
 245 990 l 2,3,4
 259 1050 259 1050 318 1050 c 2,5,-1
 476 1050 l 2,6,7
 536 1050 536 1050 523 990 c 2,8,-1
 502 900 l 1,9,-1
 506 900 l 1,10,11
 552 969 552 969 624 1019.5 c 128,-1,12
 696 1070 696 1070 772 1070 c 0,13,14
 897 1070 897 1070 951.5 998.5 c 128,-1,15
 1006 927 1006 927 1006 839 c 1,16,-1
 1010 839 l 1,17,18
 1083 951 1083 951 1173 1010.5 c 128,-1,19
 1263 1070 1263 1070 1392 1070 c 0,20,21
 1527 1070 1527 1070 1611 964 c 128,-1,22
 1695 858 1695 858 1635 600 c 2,23,-1
 1495 -4 l 2,24,25
 1438 -252 1438 -252 1327 -336 c 128,-1,26
 1216 -420 1216 -420 1045 -420 c 0,27,28
 955 -420 955 -420 904 -405 c 0,29,30
 867 -394 867 -394 883 -349 c 2,31,-1
 920 -243 l 2,32,33
 932 -208 932 -208 974 -215 c 0,34,35
 1023 -224 1023 -224 1041 -224 c 0,36,37
 1114 -224 1114 -224 1154 -159 c 128,-1,38
 1194 -94 1194 -94 1222 26 c 2,39,-1
 1336 520 l 2,40,41
 1379 708 1379 708 1369 791 c 128,-1,42
 1359 874 1359 874 1284 874 c 0,43,44
 1214 874 1214 874 1137 792.5 c 128,-1,45
 1060 711 1060 711 991 412 c 2,46,-1
 910 60 l 2,47,48
 896 0 896 0 836 0 c 2,49,-1
 676 0 l 2,50,51
 616 0 616 0 630 60 c 2,52,-1
 731 500 l 2,53,54
 778 705 778 705 768.5 789.5 c 128,-1,55
 759 874 759 874 684 874 c 0,56,57
 615 874 615 874 531 764 c 128,-1,58
 447 654 447 654 391 412 c 2,59,-1
 310 60 l 2,60,61
 296 0 296 0 236 0 c 2,62,-1
 76 0 l 2,0,1
EndSplineSet
EndChar

StartChar: uni0279
Encoding: 633 633 360
Width: 786
GlyphClass: 2
Flags: W
AnchorPoint: "Anchor-3" 462 1070 basechar 0
AnchorPoint: "Anchor-2" 215 0 basechar 0
LayerCount: 2
Fore
SplineSet
-89 42 m 2,0,-1
 -45 161 l 2,1,2
 -30 202 -30 202 14 185 c 0,3,4
 38 176 38 176 68 176 c 0,5,6
 158 176 158 176 255.5 312 c 128,-1,7
 353 448 353 448 412 703 c 2,8,-1
 478 990 l 2,9,10
 492 1050 492 1050 552 1050 c 2,11,-1
 712 1050 l 2,12,13
 772 1050 772 1050 758 990 c 2,14,-1
 543 60 l 2,15,16
 529 0 529 0 470 0 c 2,17,-1
 316 0 l 2,18,19
 255 0 255 0 269 60 c 2,20,-1
 297 183 l 1,21,-1
 293 183 l 1,22,23
 251 98 251 98 179 39 c 128,-1,24
 107 -20 107 -20 19 -20 c 0,25,26
 -39 -20 -39 -20 -73 -6 c 0,27,28
 -102 6 -102 6 -89 42 c 2,0,-1
EndSplineSet
EndChar

StartChar: uni0283
Encoding: 643 643 361
Width: 572
GlyphClass: 2
Flags: W
AnchorPoint: "Anchor-3" 527 1476 basechar 0
LayerCount: 2
Fore
SplineSet
-286 -405 m 0,0,1
 -323 -394 -323 -394 -307 -349 c 2,2,-1
 -270 -243 l 2,3,4
 -258 -208 -258 -208 -216 -215 c 0,5,6
 -167 -224 -167 -224 -149 -224 c 0,7,8
 -76 -224 -76 -224 -36 -159 c 128,-1,9
 4 -94 4 -94 32 26 c 2,10,-1
 301 1190 l 2,11,12
 339 1352 339 1352 443.5 1424 c 128,-1,13
 548 1496 548 1496 718 1496 c 0,14,15
 772 1496 772 1496 819 1484.5 c 128,-1,16
 866 1473 866 1473 904 1458 c 0,17,18
 939 1444 939 1444 923 1405 c 2,19,-1
 878 1297 l 2,20,21
 868 1272 868 1272 829 1284 c 0,22,23
 800 1293 800 1293 766 1296.5 c 128,-1,24
 732 1300 732 1300 710 1300 c 0,25,26
 638 1300 638 1300 609 1242.5 c 128,-1,27
 580 1185 580 1185 558 1090 c 2,28,-1
 305 -4 l 2,29,30
 248 -252 248 -252 137 -336 c 128,-1,31
 26 -420 26 -420 -145 -420 c 0,32,33
 -235 -420 -235 -420 -286 -405 c 0,0,1
EndSplineSet
EndChar

StartChar: uni0287
Encoding: 647 647 362
Width: 798
GlyphClass: 2
Flags: W
AnchorPoint: "Anchor-3" 526 1070 basechar 0
LayerCount: 2
Fore
SplineSet
19 50 m 2,0,-1
 42 150 l 2,1,2
 54 200 54 200 113 200 c 2,3,-1
 275 200 l 1,4,-1
 389 696 l 2,5,6
 409 784 409 784 401.5 835.5 c 128,-1,7
 394 887 394 887 343 887 c 0,8,9
 312 887 312 887 274 879.5 c 128,-1,10
 236 872 236 872 211 862 c 0,11,12
 175 847 175 847 171 885 c 1,13,-1
 155 999 l 2,14,15
 151 1032 151 1032 192 1049 c 0,16,17
 228 1064 228 1064 292 1073.5 c 128,-1,18
 356 1083 356 1083 414 1083 c 0,19,20
 598 1083 598 1083 655 981.5 c 128,-1,21
 712 880 712 880 670 700 c 2,22,-1
 555 200 l 1,23,-1
 623 200 l 2,24,25
 682 200 682 200 670 150 c 2,26,-1
 647 50 l 2,27,28
 635 0 635 0 577 0 c 2,29,-1
 509 0 l 1,30,-1
 501 -35 l 2,31,32
 491 -80 491 -80 461 -117 c 2,33,-1
 352 -252 l 2,34,35
 322 -290 322 -290 292 -290 c 2,36,-1
 222 -290 l 2,37,38
 162 -290 162 -290 175 -230 c 1,39,-1
 229 0 l 1,40,-1
 67 0 l 2,41,42
 8 0 8 0 19 50 c 2,0,-1
EndSplineSet
EndChar

StartChar: uni0289
Encoding: 649 649 363
Width: 1372
GlyphClass: 2
Flags: W
AnchorPoint: "Anchor-3" 813 1070 basechar 0
AnchorPoint: "Anchor-2" 566 0 basechar 0
LayerCount: 2
Fore
SplineSet
90 448 m 2,0,1
 30 448 30 448 42 498 c 2,2,-1
 65 598 l 2,3,4
 77 648 77 648 137 648 c 2,5,-1
 254 648 l 1,6,-1
 333 990 l 2,7,8
 347 1050 347 1050 406 1050 c 2,9,-1
 566 1050 l 2,10,11
 627 1050 627 1050 613 990 c 2,12,-1
 534 648 l 1,13,-1
 899 648 l 1,14,-1
 977 990 l 2,15,16
 991 1050 991 1050 1050 1050 c 2,17,-1
 1210 1050 l 2,18,19
 1271 1050 1271 1050 1257 990 c 2,20,-1
 1178 648 l 1,21,-1
 1295 648 l 2,22,23
 1354 648 1354 648 1343 598 c 2,24,-1
 1320 498 l 2,25,26
 1308 448 1308 448 1248 448 c 2,27,-1
 1132 448 l 1,28,-1
 1042 60 l 2,29,30
 1028 0 1028 0 968 0 c 2,31,-1
 810 0 l 2,32,33
 750 0 750 0 764 60 c 2,34,-1
 785 147 l 1,35,-1
 781 147 l 1,36,37
 701 53 701 53 628.5 16.5 c 128,-1,38
 556 -20 556 -20 456 -20 c 0,39,40
 314 -20 314 -20 231.5 87 c 128,-1,41
 149 194 149 194 205 436 c 1,42,-1
 208 448 l 1,43,-1
 207 448 l 1,44,-1
 90 448 l 2,0,1
485 432 m 2,45,46
 455 277 455 277 481 226.5 c 128,-1,47
 507 176 507 176 581 176 c 0,48,49
 670 176 670 176 739 264 c 128,-1,50
 808 352 808 352 841 448 c 1,51,-1
 488 448 l 1,52,-1
 485 432 l 2,45,46
EndSplineSet
EndChar

StartChar: uni0292
Encoding: 658 658 364
Width: 1025
GlyphClass: 2
Flags: W
AnchorPoint: "Anchor-3" 629 1070 basechar 0
AnchorPoint: "Anchor-2" 341 -400 basechar 0
LayerCount: 2
Fore
SplineSet
-87 -292 m 0,0,1
 -130 -241 -130 -241 -87 -203 c 2,2,-1
 -3 -130 l 2,3,4
 44 -89 44 -89 85 -134 c 0,5,6
 135 -189 135 -189 181 -206.5 c 128,-1,7
 227 -224 227 -224 284 -224 c 0,8,9
 408 -224 408 -224 469 -137.5 c 128,-1,10
 530 -51 530 -51 530 59 c 0,11,12
 530 125 530 125 482.5 189 c 128,-1,13
 435 253 435 253 312 253 c 2,14,-1
 219 253 l 2,15,16
 160 253 160 253 171 303 c 2,17,-1
 188 379 l 2,18,19
 202 440 202 440 249 487 c 2,20,-1
 613 850 l 1,21,-1
 613 854 l 1,22,23
 572 850 572 850 532 850 c 2,24,-1
 216 850 l 2,25,26
 156 850 156 850 168 900 c 2,27,-1
 191 1000 l 2,28,29
 203 1050 203 1050 262 1050 c 2,30,-1
 950 1050 l 2,31,32
 1010 1050 1010 1050 999 1000 c 2,33,-1
 983 930 l 2,34,35
 970 874 970 874 918 822 c 2,36,-1
 548 453 l 1,37,-1
 548 449 l 1,38,39
 654 423 654 423 739 327 c 128,-1,40
 824 231 824 231 824 106 c 0,41,42
 824 -129 824 -129 680.5 -274.5 c 128,-1,43
 537 -420 537 -420 266 -420 c 0,44,45
 147 -420 147 -420 60 -391.5 c 128,-1,46
 -27 -363 -27 -363 -87 -292 c 0,0,1
EndSplineSet
EndChar

StartChar: circumflex
Encoding: 710 710 367
Width: 614
GlyphClass: 2
Flags: W
LayerCount: 2
Fore
SplineSet
145 1191 m 2,0,1
 121 1229 121 1229 183 1267 c 2,2,-1
 415 1407 l 2,3,4
 460 1434 460 1434 491 1434 c 2,5,-1
 528 1434 l 2,6,7
 558 1434 558 1434 590 1407 c 2,8,-1
 769 1254 l 2,9,10
 812 1217 812 1217 773 1178 c 2,11,-1
 751 1156 l 2,12,13
 711 1116 711 1116 672 1150 c 2,14,-1
 502 1295 l 1,15,-1
 500 1295 l 1,16,-1
 250 1141 l 2,17,18
 197 1109 197 1109 173 1147 c 2,19,-1
 145 1191 l 2,0,1
EndSplineSet
EndChar

StartChar: breve
Encoding: 728 728 373
Width: 614
GlyphClass: 2
Flags: W
LayerCount: 2
Fore
SplineSet
171 1365 m 0,0,1
 160 1412 160 1412 195 1425 c 2,2,-1
 256 1447 l 2,3,4
 295 1461 295 1461 307 1426 c 0,5,6
 330 1358 330 1358 369 1328 c 128,-1,7
 408 1298 408 1298 487 1298 c 0,8,9
 554 1298 554 1298 611 1335 c 128,-1,10
 668 1372 668 1372 705 1425 c 0,11,12
 734 1466 734 1466 766 1446 c 2,13,-1
 838 1402 l 2,14,15
 865 1385 865 1385 834 1342 c 0,16,17
 754 1232 754 1232 667 1181 c 128,-1,18
 580 1130 580 1130 456 1130 c 0,19,20
 348 1130 348 1130 273 1189 c 128,-1,21
 198 1248 198 1248 171 1365 c 0,0,1
EndSplineSet
EndChar

StartChar: dotaccent
Encoding: 729 729 374
Width: 614
GlyphClass: 2
Flags: W
LayerCount: 2
Fore
SplineSet
385 1204 m 2,0,1
 325 1204 325 1204 339 1264 c 2,2,-1
 368 1392 l 2,3,4
 382 1452 382 1452 442 1452 c 2,5,-1
 602 1452 l 2,6,7
 662 1452 662 1452 648 1392 c 2,8,-1
 619 1264 l 2,9,10
 605 1204 605 1204 545 1204 c 2,11,-1
 385 1204 l 2,0,1
EndSplineSet
EndChar

StartChar: ring
Encoding: 730 730 375
Width: 614
GlyphClass: 2
Flags: W
LayerCount: 2
Fore
SplineSet
300 1313 m 256,0,1
 300 1390 300 1390 355 1444.5 c 128,-1,2
 410 1499 410 1499 489 1499 c 256,3,4
 568 1499 568 1499 623 1444.5 c 128,-1,5
 678 1390 678 1390 678 1313 c 256,6,7
 678 1236 678 1236 623 1181.5 c 128,-1,8
 568 1127 568 1127 489 1127 c 256,9,10
 410 1127 410 1127 355 1181.5 c 128,-1,11
 300 1236 300 1236 300 1313 c 256,0,1
395 1313 m 256,12,13
 395 1273 395 1273 422 1246 c 128,-1,14
 449 1219 449 1219 489 1219 c 256,15,16
 529 1219 529 1219 556 1246 c 128,-1,17
 583 1273 583 1273 583 1313 c 256,18,19
 583 1353 583 1353 556 1380 c 128,-1,20
 529 1407 529 1407 489 1407 c 256,21,22
 449 1407 449 1407 422 1380 c 128,-1,23
 395 1353 395 1353 395 1313 c 256,12,13
EndSplineSet
EndChar

StartChar: ogonek
Encoding: 731 731 376
Width: 614
GlyphClass: 2
Flags: W
LayerCount: 2
Fore
SplineSet
-100 -266 m 0,0,1
 -100 -230 -100 -230 -91 -195.5 c 128,-1,2
 -82 -161 -82 -161 -32 -110.5 c 128,-1,3
 18 -60 18 -60 100 -7 c 1,4,5
 133 11 133 11 144 60 c 1,6,-1
 416 60 l 1,7,8
 406 15 406 15 362 -11 c 1,9,10
 251 -80 251 -80 193.5 -120 c 128,-1,11
 136 -160 136 -160 136 -189 c 0,12,13
 136 -210 136 -210 153 -217 c 128,-1,14
 170 -224 170 -224 197 -224 c 0,15,16
 241 -224 241 -224 282 -219 c 0,17,18
 321 -214 321 -214 322 -253 c 2,19,-1
 325 -368 l 2,20,21
 326 -406 326 -406 291 -411 c 0,22,23
 222 -420 222 -420 144 -420 c 0,24,25
 20 -420 20 -420 -40 -376.5 c 128,-1,26
 -100 -333 -100 -333 -100 -266 c 0,0,1
EndSplineSet
EndChar

StartChar: tilde
Encoding: 732 732 377
Width: 614
GlyphClass: 2
Flags: W
LayerCount: 2
Fore
SplineSet
149 1192 m 2,0,1
 124 1208 124 1208 148 1253 c 0,2,3
 186 1323 186 1323 242 1359.5 c 128,-1,4
 298 1396 298 1396 380 1396 c 0,5,6
 446 1396 446 1396 510 1344 c 128,-1,7
 574 1292 574 1292 619 1292 c 0,8,9
 650 1292 650 1292 668.5 1302 c 128,-1,10
 687 1312 687 1312 711 1349 c 0,11,12
 742 1396 742 1396 771 1377 c 2,13,-1
 812 1350 l 2,14,15
 837 1334 837 1334 813 1289 c 0,16,17
 775 1219 775 1219 719 1182.5 c 128,-1,18
 663 1146 663 1146 581 1146 c 0,19,20
 515 1146 515 1146 451 1198 c 128,-1,21
 387 1250 387 1250 342 1250 c 0,22,23
 311 1250 311 1250 292.5 1240 c 128,-1,24
 274 1230 274 1230 250 1193 c 0,25,26
 219 1146 219 1146 190 1165 c 2,27,-1
 149 1192 l 2,0,1
EndSplineSet
EndChar

StartChar: hungarumlaut
Encoding: 733 733 378
Width: 614
GlyphClass: 2
Flags: W
LayerCount: 2
Fore
SplineSet
171 1150 m 2,0,1
 129 1150 129 1150 161 1218 c 2,2,-1
 240 1384 l 2,3,4
 264 1435 264 1435 348 1435 c 2,5,-1
 483 1435 l 2,6,7
 538 1435 538 1435 476 1366 c 1,8,-1
 338 1192 l 2,9,10
 305 1150 305 1150 235 1150 c 2,11,-1
 171 1150 l 2,0,1
512 1150 m 2,12,13
 470 1150 470 1150 502 1218 c 2,14,-1
 581 1384 l 2,15,16
 605 1435 605 1435 689 1435 c 2,17,-1
 824 1435 l 2,18,19
 879 1435 879 1435 817 1366 c 1,20,-1
 679 1192 l 2,21,22
 646 1150 646 1150 576 1150 c 2,23,-1
 512 1150 l 2,12,13
EndSplineSet
EndChar

StartChar: Sigma
Encoding: 931 931 411
Width: 1247
GlyphClass: 2
Flags: W
LayerCount: 2
Fore
SplineSet
25 0 m 2,0,1
 -50 0 -50 0 -35 65 c 2,2,-1
 -16 147 l 2,3,4
 -1 211 -1 211 67 286 c 2,5,-1
 452 708 l 2,6,7
 514 776 514 776 482 839 c 2,8,-1
 295 1201 l 2,9,10
 272 1246 272 1246 284 1302 c 2,11,-1
 299 1369 l 2,12,13
 314 1434 314 1434 389 1434 c 2,14,-1
 1285 1434 l 2,15,16
 1360 1434 1360 1434 1345 1369 c 2,17,-1
 1318 1251 l 2,18,19
 1303 1186 1303 1186 1228 1186 c 2,20,-1
 757 1186 l 2,21,22
 697 1186 697 1186 638 1191 c 1,23,-1
 638 1184 l 1,24,-1
 833 791 l 2,25,26
 865 727 865 727 805 664 c 2,27,-1
 416 250 l 1,28,-1
 416 243 l 1,29,30
 477 248 477 248 537 248 c 2,31,-1
 1041 248 l 2,32,33
 1116 248 1116 248 1101 183 c 2,34,-1
 1074 65 l 2,35,36
 1059 0 1059 0 984 0 c 2,37,-1
 25 0 l 2,0,1
EndSplineSet
EndChar

StartChar: afii10051
Encoding: 1026 1026 413
Width: 1610
GlyphClass: 2
Flags: W
LayerCount: 2
Fore
SplineSet
261 1178 m 2,0,1
 186 1178 186 1178 201 1243 c 2,2,-1
 230 1369 l 2,3,4
 245 1434 245 1434 320 1434 c 2,5,-1
 1348 1434 l 2,6,7
 1423 1434 1423 1434 1408 1369 c 2,8,-1
 1379 1243 l 2,9,10
 1364 1178 1364 1178 1289 1178 c 2,11,-1
 891 1178 l 1,12,-1
 837 943 l 2,13,14
 822 878 822 878 804 823 c 1,15,-1
 811 823 l 1,16,17
 892 868 892 868 971 889 c 128,-1,18
 1050 910 1050 910 1123 910 c 0,19,20
 1308 910 1308 910 1406.5 792.5 c 128,-1,21
 1505 675 1505 675 1505 490 c 0,22,23
 1505 268 1505 268 1385.5 117 c 128,-1,24
 1266 -34 1266 -34 1017 -34 c 0,25,26
 919 -34 919 -34 860 -16 c 0,27,28
 792 4 792 4 811 50 c 2,29,-1
 861 170 l 2,30,31
 883 223 883 223 920 212 c 0,32,33
 955 202 955 202 1008 202 c 0,34,35
 1106 202 1106 202 1149.5 292 c 128,-1,36
 1193 382 1193 382 1193 472 c 0,37,38
 1193 564 1193 564 1152.5 619 c 128,-1,39
 1112 674 1112 674 1007 674 c 0,40,41
 960 674 960 674 903.5 661 c 128,-1,42
 847 648 847 648 757 599 c 1,43,-1
 632 55 l 2,44,45
 619 0 619 0 569 0 c 2,46,-1
 377 0 l 2,47,48
 327 0 327 0 340 55 c 2,49,-1
 599 1178 l 1,50,-1
 261 1178 l 2,0,1
EndSplineSet
EndChar

StartChar: afii10053
Encoding: 1028 1028 415
Width: 1410
GlyphClass: 2
Flags: W
AnchorPoint: "Anchor-3" 892 1468 basechar 0
LayerCount: 2
Fore
SplineSet
100 588 m 0,0,1
 100 936 100 936 302 1202 c 128,-1,2
 504 1468 504 1468 892 1468 c 0,3,4
 1059 1468 1059 1468 1186.5 1410 c 128,-1,5
 1314 1352 1314 1352 1370 1260 c 0,6,7
 1410 1194 1410 1194 1353 1156 c 2,8,-1
 1229 1073 l 2,9,10
 1183 1042 1183 1042 1133 1109 c 0,11,12
 1083 1175 1083 1175 1011.5 1203.5 c 128,-1,13
 940 1232 940 1232 871 1232 c 0,14,15
 705 1232 705 1232 596.5 1118.5 c 128,-1,16
 488 1005 488 1005 457 870 c 1,17,-1
 999 870 l 2,18,19
 1074 870 1074 870 1059 805 c 2,20,-1
 1032 687 l 2,21,22
 1017 622 1017 622 942 622 c 2,23,-1
 414 622 l 1,24,25
 412 587 412 587 412 550 c 0,26,27
 412 399 412 399 490 300.5 c 128,-1,28
 568 202 568 202 757 202 c 0,29,30
 852 202 852 202 925.5 239 c 128,-1,31
 999 276 999 276 1041 333 c 0,32,33
 1094 406 1094 406 1141 380 c 2,34,-1
 1268 310 l 2,35,36
 1330 276 1330 276 1286 212 c 0,37,38
 1210 102 1210 102 1067 34 c 128,-1,39
 924 -34 924 -34 736 -34 c 0,40,41
 436 -34 436 -34 268 119.5 c 128,-1,42
 100 273 100 273 100 588 c 0,0,1
EndSplineSet
EndChar

StartChar: afii10058
Encoding: 1033 1033 420
Width: 2220
GlyphClass: 2
Flags: W
LayerCount: 2
Fore
SplineSet
-44 -10 m 0,0,1
 -77 2 -77 2 -59 58 c 2,2,-1
 -23 172 l 2,3,4
 -6 227 -6 227 48 210 c 0,5,6
 74 202 74 202 115 202 c 0,7,8
 276 202 276 202 376.5 410.5 c 128,-1,9
 477 619 477 619 586 1090 c 2,10,-1
 648 1359 l 2,11,12
 665 1434 665 1434 735 1434 c 2,13,-1
 1463 1434 l 2,14,15
 1533 1434 1533 1434 1516 1359 c 2,16,-1
 1403 870 l 1,17,-1
 1538 870 l 2,18,19
 1870 870 1870 870 1987.5 755 c 128,-1,20
 2105 640 2105 640 2105 474 c 0,21,22
 2105 267 2105 267 1923.5 133.5 c 128,-1,23
 1742 0 1742 0 1377 0 c 2,24,-1
 980 0 l 2,25,26
 910 0 910 0 927 75 c 2,27,-1
 1184 1186 l 1,28,-1
 858 1186 l 1,29,-1
 823 1034 l 1,30,31
 686 434 686 434 532 200 c 128,-1,32
 378 -34 378 -34 78 -34 c 0,33,34
 24 -34 24 -34 -44 -10 c 0,0,1
1258 244 m 1,35,-1
 1404 244 l 2,36,37
 1594 244 1594 244 1693.5 288 c 128,-1,38
 1793 332 1793 332 1793 457 c 0,39,40
 1793 555 1793 555 1727.5 590.5 c 128,-1,41
 1662 626 1662 626 1453 626 c 2,42,-1
 1347 626 l 1,43,-1
 1258 244 l 1,35,-1
EndSplineSet
EndChar

StartChar: afii10059
Encoding: 1034 1034 421
Width: 2180
GlyphClass: 2
Flags: W
LayerCount: 2
Fore
SplineSet
110 0 m 2,0,1
 40 0 40 0 57 75 c 2,2,-1
 354 1359 l 2,3,4
 371 1434 371 1434 441 1434 c 2,5,-1
 593 1434 l 2,6,7
 663 1434 663 1434 646 1359 c 2,8,-1
 533 870 l 1,9,-1
 1071 870 l 1,10,-1
 1184 1359 l 2,11,12
 1201 1434 1201 1434 1271 1434 c 2,13,-1
 1423 1434 l 2,14,15
 1493 1434 1493 1434 1476 1359 c 2,16,-1
 1363 870 l 1,17,-1
 1498 870 l 2,18,19
 1830 870 1830 870 1947.5 755 c 128,-1,20
 2065 640 2065 640 2065 474 c 0,21,22
 2065 267 2065 267 1883.5 133.5 c 128,-1,23
 1702 0 1702 0 1337 0 c 2,24,-1
 940 0 l 2,25,26
 870 0 870 0 887 75 c 2,27,-1
 1014 622 l 1,28,-1
 476 622 l 1,29,-1
 349 75 l 2,30,31
 332 0 332 0 262 0 c 2,32,-1
 110 0 l 2,0,1
1218 244 m 1,33,-1
 1364 244 l 2,34,35
 1554 244 1554 244 1653.5 288 c 128,-1,36
 1753 332 1753 332 1753 457 c 0,37,38
 1753 555 1753 555 1687.5 590.5 c 128,-1,39
 1622 626 1622 626 1413 626 c 2,40,-1
 1307 626 l 1,41,-1
 1218 244 l 1,33,-1
EndSplineSet
EndChar

StartChar: afii10060
Encoding: 1035 1035 422
Width: 1614
GlyphClass: 2
Flags: W
LayerCount: 2
Fore
SplineSet
261 1178 m 2,0,1
 186 1178 186 1178 201 1243 c 2,2,-1
 230 1369 l 2,3,4
 245 1434 245 1434 320 1434 c 2,5,-1
 1348 1434 l 2,6,7
 1423 1434 1423 1434 1408 1369 c 2,8,-1
 1379 1243 l 2,9,10
 1364 1178 1364 1178 1289 1178 c 2,11,-1
 891 1178 l 1,12,-1
 837 943 l 2,13,14
 824 885 824 885 804 823 c 1,15,-1
 811 823 l 1,16,17
 892 860 892 860 981.5 885 c 128,-1,18
 1071 910 1071 910 1180 910 c 0,19,20
 1341 910 1341 910 1429 788.5 c 128,-1,21
 1517 667 1517 667 1479 502 c 2,22,-1
 1380 75 l 2,23,24
 1363 0 1363 0 1293 0 c 2,25,-1
 1141 0 l 2,26,27
 1071 0 1071 0 1088 75 c 2,28,-1
 1176 454 l 2,29,30
 1203 571 1203 571 1162.5 622.5 c 128,-1,31
 1122 674 1122 674 1053 674 c 0,32,33
 1014 674 1014 674 934 660 c 128,-1,34
 854 646 854 646 758 601 c 1,35,-1
 632 55 l 2,36,37
 619 0 619 0 569 0 c 2,38,-1
 377 0 l 2,39,40
 327 0 327 0 340 55 c 2,41,-1
 599 1178 l 1,42,-1
 261 1178 l 2,0,1
EndSplineSet
EndChar

StartChar: afii10145
Encoding: 1039 1039 425
Width: 1430
GlyphClass: 2
Flags: W
LayerCount: 2
Fore
SplineSet
110 0 m 2,0,1
 40 0 40 0 57 75 c 2,2,-1
 354 1359 l 2,3,4
 371 1434 371 1434 441 1434 c 2,5,-1
 593 1434 l 2,6,7
 663 1434 663 1434 646 1359 c 2,8,-1
 389 248 l 1,9,-1
 915 248 l 1,10,-1
 1172 1359 l 2,11,12
 1189 1434 1189 1434 1259 1434 c 2,13,-1
 1411 1434 l 2,14,15
 1481 1434 1481 1434 1464 1359 c 2,16,-1
 1167 75 l 2,17,18
 1150 0 1150 0 1080 0 c 2,19,-1
 720 0 l 1,20,-1
 651 -300 l 2,21,22
 635 -370 635 -370 575 -370 c 2,23,-1
 445 -370 l 2,24,25
 385 -370 385 -370 401 -300 c 2,26,-1
 470 0 l 1,27,-1
 110 0 l 2,0,1
EndSplineSet
EndChar

StartChar: afii10018
Encoding: 1041 1041 427
Width: 1370
GlyphClass: 2
Flags: W
AnchorPoint: "Anchor-3" 932 1468 basechar 0
LayerCount: 2
Fore
SplineSet
110 0 m 2,0,1
 40 0 40 0 57 75 c 2,2,-1
 354 1359 l 2,3,4
 371 1434 371 1434 441 1434 c 2,5,-1
 1266 1434 l 2,6,7
 1341 1434 1341 1434 1326 1369 c 2,8,-1
 1299 1251 l 2,9,10
 1284 1186 1284 1186 1209 1186 c 2,11,-1
 606 1186 l 1,12,-1
 534 876 l 1,13,-1
 679 876 l 2,14,15
 1011 876 1011 876 1128 761 c 128,-1,16
 1245 646 1245 646 1245 477 c 0,17,18
 1245 267 1245 267 1063.5 133.5 c 128,-1,19
 882 0 882 0 517 0 c 2,20,-1
 110 0 l 2,0,1
388 244 m 1,21,-1
 544 244 l 2,22,23
 734 244 734 244 833.5 288 c 128,-1,24
 933 332 933 332 933 460 c 0,25,26
 933 561 933 561 868 596.5 c 128,-1,27
 803 632 803 632 594 632 c 2,28,-1
 478 632 l 1,29,-1
 388 244 l 1,21,-1
EndSplineSet
EndChar

StartChar: afii10020
Encoding: 1043 1043 429
Width: 1118
GlyphClass: 2
Flags: W
AnchorPoint: "Anchor-3" 841 1468 basechar 0
LayerCount: 2
Fore
SplineSet
110 0 m 2,0,1
 40 0 40 0 57 75 c 2,2,-1
 354 1359 l 2,3,4
 371 1434 371 1434 441 1434 c 2,5,-1
 1220 1434 l 2,6,7
 1295 1434 1295 1434 1280 1369 c 2,8,-1
 1253 1251 l 2,9,10
 1238 1186 1238 1186 1163 1186 c 2,11,-1
 606 1186 l 1,12,-1
 349 75 l 2,13,14
 332 0 332 0 262 0 c 2,15,-1
 110 0 l 2,0,1
EndSplineSet
EndChar

StartChar: afii10021
Encoding: 1044 1044 430
Width: 1538
GlyphClass: 2
Flags: W
AnchorPoint: "Anchor-3" 1061 1468 basechar 0
LayerCount: 2
Fore
SplineSet
-85 -370 m 2,0,1
 -145 -370 -145 -370 -129 -300 c 2,2,-1
 -20 173 l 2,3,4
 -3 248 -3 248 87 248 c 2,5,-1
 130 248 l 1,6,7
 294 381 294 381 387 580 c 128,-1,8
 480 779 480 779 554 1100 c 2,9,-1
 614 1359 l 2,10,11
 631 1434 631 1434 701 1434 c 2,12,-1
 1429 1434 l 2,13,14
 1499 1434 1499 1434 1482 1359 c 2,15,-1
 1225 248 l 1,16,-1
 1325 248 l 2,17,18
 1415 248 1415 248 1398 173 c 2,19,-1
 1289 -300 l 2,20,21
 1273 -370 1273 -370 1213 -370 c 2,22,-1
 1083 -370 l 2,23,24
 1023 -370 1023 -370 1039 -300 c 2,25,-1
 1108 0 l 1,26,-1
 190 0 l 1,27,-1
 121 -300 l 2,28,29
 105 -370 105 -370 45 -370 c 2,30,-1
 -85 -370 l 2,0,1
442 248 m 1,31,-1
 933 248 l 1,32,-1
 1150 1186 l 1,33,-1
 824 1186 l 1,34,-1
 791 1044 l 2,35,36
 702 663 702 663 618 483 c 128,-1,37
 534 303 534 303 442 248 c 1,31,-1
EndSplineSet
EndChar

StartChar: afii10024
Encoding: 1046 1046 432
Width: 2040
GlyphClass: 2
Flags: W
AnchorPoint: "Anchor-3" 1237 1468 basechar 0
LayerCount: 2
Fore
SplineSet
-24 0 m 2,0,1
 -114 0 -114 0 -42 86 c 2,2,-1
 290 480 l 2,3,4
 387 596 387 596 463.5 650.5 c 128,-1,5
 540 705 540 705 622 734 c 1,6,-1
 623 735 l 1,7,8
 573 765 573 765 521 841 c 128,-1,9
 469 917 469 917 453 954 c 2,10,-1
 280 1348 l 2,11,12
 242 1434 242 1434 338 1434 c 2,13,-1
 491 1434 l 2,14,15
 543 1434 543 1434 567 1375 c 2,16,-1
 697 1050 l 2,17,18
 730 968 730 968 789 911.5 c 128,-1,19
 848 855 848 855 918 855 c 2,20,-1
 951 855 l 1,21,-1
 1068 1359 l 2,22,23
 1085 1434 1085 1434 1155 1434 c 2,24,-1
 1307 1434 l 2,25,26
 1377 1434 1377 1434 1360 1359 c 2,27,-1
 1243 855 l 1,28,-1
 1256 855 l 2,29,30
 1306 855 1306 855 1387.5 912 c 128,-1,31
 1469 969 1469 969 1539 1050 c 2,32,-1
 1819 1375 l 2,33,34
 1870 1434 1870 1434 1923 1434 c 2,35,-1
 2124 1434 l 2,36,37
 2219 1434 2219 1434 2142 1348 c 2,38,-1
 1787 954 l 2,39,40
 1734 895 1734 895 1657.5 830 c 128,-1,41
 1581 765 1581 765 1517 735 c 1,42,-1
 1516 734 l 1,43,44
 1585 705 1585 705 1640.5 639 c 128,-1,45
 1696 573 1696 573 1732 480 c 2,46,-1
 1882 86 l 2,47,48
 1915 0 1915 0 1824 0 c 2,49,-1
 1661 0 l 2,50,51
 1605 0 1605 0 1585 59 c 2,52,-1
 1476 384 l 2,53,54
 1452 456 1452 456 1381 533.5 c 128,-1,55
 1310 611 1310 611 1235 611 c 2,56,-1
 1187 611 l 1,57,-1
 1063 75 l 2,58,59
 1046 0 1046 0 976 0 c 2,60,-1
 824 0 l 2,61,62
 754 0 754 0 771 75 c 2,63,-1
 895 611 l 1,64,-1
 867 611 l 2,65,66
 797 611 797 611 710.5 543.5 c 128,-1,67
 624 476 624 476 550 384 c 2,68,-1
 291 59 l 2,69,70
 244 0 244 0 187 0 c 2,71,-1
 -24 0 l 2,0,1
EndSplineSet
EndChar

StartChar: afii10025
Encoding: 1047 1047 433
Width: 1354
GlyphClass: 2
Flags: W
AnchorPoint: "Anchor-3" 703 1468 basechar 0
LayerCount: 2
Fore
SplineSet
87 156 m 0,0,1
 38 220 38 220 78 255 c 2,2,-1
 181 344 l 2,3,4
 233 389 233 389 291 327 c 0,5,6
 339 276 339 276 406.5 239 c 128,-1,7
 474 202 474 202 602 202 c 0,8,9
 699 202 699 202 807.5 254 c 128,-1,10
 916 306 916 306 916 418 c 0,11,12
 916 516 916 516 839 576 c 128,-1,13
 762 636 762 636 639 636 c 2,14,-1
 473 636 l 2,15,16
 397 636 397 636 412 699 c 2,17,-1
 437 807 l 2,18,19
 452 872 452 872 527 872 c 2,20,-1
 651 872 l 2,21,22
 840 872 840 872 907.5 935.5 c 128,-1,23
 975 999 975 999 975 1077 c 0,24,25
 975 1167 975 1167 896.5 1199.5 c 128,-1,26
 818 1232 818 1232 682 1232 c 0,27,28
 597 1232 597 1232 522 1196.5 c 128,-1,29
 447 1161 447 1161 408 1125 c 0,30,31
 347 1070 347 1070 297 1116 c 2,32,-1
 210 1197 l 2,33,34
 159 1245 159 1245 223 1297 c 0,35,36
 330 1385 330 1385 447 1426.5 c 128,-1,37
 564 1468 564 1468 702 1468 c 0,38,39
 987 1468 987 1468 1129 1356.5 c 128,-1,40
 1271 1245 1271 1245 1271 1104 c 0,41,42
 1271 954 1271 954 1180 865.5 c 128,-1,43
 1089 777 1089 777 934 752 c 1,44,-1
 933 748 l 1,45,46
 1068 717 1068 717 1148 627 c 128,-1,47
 1228 537 1228 537 1228 427 c 0,48,49
 1228 243 1228 243 1043 104.5 c 128,-1,50
 858 -34 858 -34 597 -34 c 0,51,52
 369 -34 369 -34 262.5 16 c 128,-1,53
 156 66 156 66 87 156 c 0,0,1
EndSplineSet
EndChar

StartChar: afii10026
Encoding: 1048 1048 434
Width: 1492
GlyphClass: 2
Flags: W
AnchorPoint: "Anchor-3" 964 1468 basechar 0
LayerCount: 2
Fore
SplineSet
110 0 m 2,0,1
 40 0 40 0 57 75 c 2,2,-1
 354 1359 l 2,3,4
 371 1434 371 1434 441 1434 c 2,5,-1
 593 1434 l 2,6,7
 663 1434 663 1434 646 1359 c 2,8,-1
 470 596 l 2,9,10
 457 538 457 538 437 476 c 1,11,-1
 444 476 l 1,12,-1
 1129 1364 l 2,13,14
 1183 1434 1183 1434 1275 1434 c 2,15,-1
 1473 1434 l 2,16,17
 1543 1434 1543 1434 1526 1359 c 2,18,-1
 1229 75 l 2,19,20
 1212 0 1212 0 1142 0 c 2,21,-1
 990 0 l 2,22,23
 920 0 920 0 937 75 c 2,24,-1
 1113 838 l 2,25,26
 1126 896 1126 896 1146 958 c 1,27,-1
 1139 958 l 1,28,-1
 454 70 l 2,29,30
 400 0 400 0 308 0 c 2,31,-1
 110 0 l 2,0,1
EndSplineSet
EndChar

StartChar: afii10028
Encoding: 1050 1050 436
Width: 1348
GlyphClass: 2
Flags: W
AnchorPoint: "Anchor-3" 954 1468 basechar 0
LayerCount: 2
Fore
SplineSet
110 0 m 2,0,1
 40 0 40 0 57 75 c 2,2,-1
 354 1359 l 2,3,4
 371 1434 371 1434 441 1434 c 2,5,-1
 593 1434 l 2,6,7
 663 1434 663 1434 646 1359 c 2,8,-1
 529 855 l 1,9,-1
 549 855 l 2,10,11
 615 855 615 855 691.5 910.5 c 128,-1,12
 768 966 768 966 842 1050 c 2,13,-1
 1127 1375 l 2,14,15
 1179 1434 1179 1434 1231 1434 c 2,16,-1
 1432 1434 l 2,17,18
 1529 1434 1529 1434 1450 1348 c 2,19,-1
 1090 954 l 2,20,21
 1024 882 1024 882 964 832.5 c 128,-1,22
 904 783 904 783 820 735 c 1,23,-1
 819 734 l 1,24,25
 888 705 888 705 943 639 c 128,-1,26
 998 573 998 573 1035 480 c 2,27,-1
 1190 86 l 2,28,29
 1224 0 1224 0 1132 0 c 2,30,-1
 969 0 l 2,31,32
 914 0 914 0 893 59 c 2,33,-1
 779 384 l 2,34,35
 752 462 752 462 688 536.5 c 128,-1,36
 624 611 624 611 528 611 c 2,37,-1
 473 611 l 1,38,-1
 349 75 l 2,39,40
 332 0 332 0 262 0 c 2,41,-1
 110 0 l 2,0,1
EndSplineSet
EndChar

StartChar: afii10029
Encoding: 1051 1051 437
Width: 1482
GlyphClass: 2
Flags: W
AnchorPoint: "Anchor-3" 1101 1468 basechar 0
LayerCount: 2
Fore
SplineSet
-44 -10 m 0,0,1
 -77 2 -77 2 -59 58 c 2,2,-1
 -23 172 l 2,3,4
 -6 227 -6 227 48 210 c 0,5,6
 74 202 74 202 115 202 c 0,7,8
 276 202 276 202 377 411 c 128,-1,9
 478 620 478 620 586 1090 c 2,10,-1
 648 1359 l 2,11,12
 665 1434 665 1434 735 1434 c 2,13,-1
 1463 1434 l 2,14,15
 1533 1434 1533 1434 1516 1359 c 2,16,-1
 1219 75 l 2,17,18
 1202 0 1202 0 1132 0 c 2,19,-1
 980 0 l 2,20,21
 910 0 910 0 927 75 c 2,22,-1
 1184 1186 l 1,23,-1
 858 1186 l 1,24,-1
 823 1034 l 2,25,26
 685 434 685 434 531.5 200 c 128,-1,27
 378 -34 378 -34 78 -34 c 0,28,29
 24 -34 24 -34 -44 -10 c 0,0,1
EndSplineSet
EndChar

StartChar: afii10033
Encoding: 1055 1055 441
Width: 1436
GlyphClass: 2
Flags: W
AnchorPoint: "Anchor-3" 936 1468 basechar 0
LayerCount: 2
Fore
SplineSet
110 0 m 2,0,1
 40 0 40 0 57 75 c 2,2,-1
 354 1359 l 2,3,4
 371 1434 371 1434 441 1434 c 2,5,-1
 1417 1434 l 2,6,7
 1487 1434 1487 1434 1470 1359 c 2,8,-1
 1173 75 l 2,9,10
 1156 0 1156 0 1086 0 c 2,11,-1
 934 0 l 2,12,13
 864 0 864 0 881 75 c 2,14,-1
 1138 1186 l 1,15,-1
 606 1186 l 1,16,-1
 349 75 l 2,17,18
 332 0 332 0 262 0 c 2,19,-1
 110 0 l 2,0,1
EndSplineSet
EndChar

StartChar: afii10037
Encoding: 1059 1059 445
Width: 1382
GlyphClass: 2
Flags: W
AnchorPoint: "Anchor-3" 904 1468 basechar 0
LayerCount: 2
Fore
SplineSet
253 1348 m 2,0,1
 228 1434 228 1434 320 1434 c 2,2,-1
 470 1434 l 2,3,4
 529 1434 529 1434 546 1365 c 2,5,-1
 698 754 l 2,6,7
 710 706 710 706 717 651 c 128,-1,8
 724 596 724 596 726 526 c 1,9,-1
 730 526 l 1,10,11
 752 600 752 600 778.5 651.5 c 128,-1,12
 805 703 805 703 834 754 c 2,13,-1
 1184 1365 l 2,14,15
 1224 1434 1224 1434 1292 1434 c 2,16,-1
 1476 1434 l 2,17,18
 1558 1434 1558 1434 1503 1348 c 2,19,-1
 851 331 l 2,20,21
 680 64 680 64 568 15 c 128,-1,22
 456 -34 456 -34 313 -34 c 0,23,24
 196 -34 196 -34 126 0 c 0,25,26
 79 23 79 23 98 78 c 2,27,-1
 143 206 l 2,28,29
 160 254 160 254 221 226 c 0,30,31
 275 202 275 202 338 202 c 0,32,33
 386 202 386 202 435.5 215.5 c 128,-1,34
 485 229 485 229 526 291 c 2,35,-1
 548 324 l 1,36,-1
 253 1348 l 2,0,1
EndSplineSet
EndChar

StartChar: afii10038
Encoding: 1060 1060 446
Width: 1838
GlyphClass: 2
Flags: W
AnchorPoint: "Anchor-3" 1139 1468 basechar 0
LayerCount: 2
Fore
SplineSet
121 648 m 0,0,1
 121 914 121 914 320.5 1107 c 128,-1,2
 520 1300 520 1300 910 1300 c 2,3,-1
 953 1300 l 1,4,-1
 969 1367 l 2,5,6
 987 1442 987 1442 1056 1442 c 2,7,-1
 1208 1442 l 2,8,9
 1279 1442 1279 1442 1261 1367 c 2,10,-1
 1245 1300 l 1,11,-1
 1288 1300 l 2,12,13
 1568 1300 1568 1300 1691 1184 c 128,-1,14
 1814 1068 1814 1068 1814 812 c 0,15,16
 1814 546 1814 546 1614.5 353 c 128,-1,17
 1415 160 1415 160 1025 160 c 2,18,-1
 982 160 l 1,19,-1
 959 60 l 2,20,21
 942 -15 942 -15 872 -15 c 2,22,-1
 720 -15 l 2,23,24
 650 -15 650 -15 667 60 c 2,25,-1
 690 160 l 1,26,-1
 647 160 l 2,27,28
 367 160 367 160 244 276 c 128,-1,29
 121 392 121 392 121 648 c 0,0,1
423 632 m 0,30,31
 423 520 423 520 480 455 c 128,-1,32
 537 390 537 390 713 390 c 2,33,-1
 743 390 l 1,34,-1
 900 1070 l 1,35,-1
 870 1070 l 2,36,37
 622 1070 622 1070 522.5 933.5 c 128,-1,38
 423 797 423 797 423 632 c 0,30,31
1035 390 m 1,39,-1
 1065 390 l 2,40,41
 1313 390 1313 390 1412.5 526.5 c 128,-1,42
 1512 663 1512 663 1512 828 c 0,43,44
 1512 940 1512 940 1455 1005 c 128,-1,45
 1398 1070 1398 1070 1222 1070 c 2,46,-1
 1192 1070 l 1,47,-1
 1035 390 l 1,39,-1
EndSplineSet
EndChar

StartChar: afii10040
Encoding: 1062 1062 448
Width: 1522
GlyphClass: 2
Flags: W
AnchorPoint: "Anchor-3" 933 1468 basechar 0
LayerCount: 2
Fore
SplineSet
110 0 m 2,0,1
 40 0 40 0 57 75 c 2,2,-1
 354 1359 l 2,3,4
 371 1434 371 1434 441 1434 c 2,5,-1
 593 1434 l 2,6,7
 663 1434 663 1434 646 1359 c 2,8,-1
 389 248 l 1,9,-1
 915 248 l 1,10,-1
 1172 1359 l 2,11,12
 1189 1434 1189 1434 1259 1434 c 2,13,-1
 1411 1434 l 2,14,15
 1481 1434 1481 1434 1464 1359 c 2,16,-1
 1207 248 l 1,17,-1
 1329 248 l 2,18,19
 1399 248 1399 248 1382 173 c 2,20,-1
 1273 -300 l 2,21,22
 1257 -370 1257 -370 1197 -370 c 2,23,-1
 1067 -370 l 2,24,25
 1007 -370 1007 -370 1023 -300 c 2,26,-1
 1092 0 l 1,27,-1
 110 0 l 2,0,1
EndSplineSet
EndChar

StartChar: afii10041
Encoding: 1063 1063 449
Width: 1308
GlyphClass: 2
Flags: W
AnchorPoint: "Anchor-3" 849 1468 basechar 0
LayerCount: 2
Fore
SplineSet
212 953 m 2,0,-1
 306 1359 l 2,1,2
 323 1434 323 1434 393 1434 c 2,3,-1
 545 1434 l 2,4,5
 615 1434 615 1434 598 1359 c 2,6,-1
 510 980 l 2,7,8
 482 858 482 858 513 809 c 128,-1,9
 544 760 544 760 612 760 c 0,10,11
 684 760 684 760 756.5 773 c 128,-1,12
 829 786 829 786 927 827 c 1,13,-1
 1050 1359 l 2,14,15
 1067 1434 1067 1434 1137 1434 c 2,16,-1
 1289 1434 l 2,17,18
 1359 1434 1359 1434 1342 1359 c 2,19,-1
 1045 75 l 2,20,21
 1028 0 1028 0 958 0 c 2,22,-1
 806 0 l 2,23,24
 736 0 736 0 753 75 c 2,25,-1
 849 491 l 2,26,27
 862 549 862 549 882 611 c 1,28,-1
 875 611 l 1,29,30
 794 574 794 574 703 549 c 128,-1,31
 612 524 612 524 514 524 c 0,32,33
 354 524 354 524 262 647 c 128,-1,34
 170 770 170 770 212 953 c 2,0,-1
EndSplineSet
EndChar

StartChar: afii10042
Encoding: 1064 1064 450
Width: 2140
GlyphClass: 2
Flags: W
AnchorPoint: "Anchor-3" 1288 1468 basechar 0
LayerCount: 2
Fore
SplineSet
110 0 m 2,0,1
 40 0 40 0 57 75 c 2,2,-1
 354 1359 l 2,3,4
 371 1434 371 1434 441 1434 c 2,5,-1
 593 1434 l 2,6,7
 663 1434 663 1434 646 1359 c 2,8,-1
 389 248 l 1,9,-1
 861 248 l 1,10,-1
 1118 1359 l 2,11,12
 1135 1434 1135 1434 1205 1434 c 2,13,-1
 1357 1434 l 2,14,15
 1427 1434 1427 1434 1410 1359 c 2,16,-1
 1153 248 l 1,17,-1
 1625 248 l 1,18,-1
 1882 1359 l 2,19,20
 1899 1434 1899 1434 1969 1434 c 2,21,-1
 2121 1434 l 2,22,23
 2191 1434 2191 1434 2174 1359 c 2,24,-1
 1877 75 l 2,25,26
 1860 0 1860 0 1790 0 c 2,27,-1
 110 0 l 2,0,1
EndSplineSet
EndChar

StartChar: afii10043
Encoding: 1065 1065 451
Width: 2232
GlyphClass: 2
Flags: W
AnchorPoint: "Anchor-3" 1288 1468 basechar 0
LayerCount: 2
Fore
SplineSet
110 0 m 2,0,1
 40 0 40 0 57 75 c 2,2,-1
 354 1359 l 2,3,4
 371 1434 371 1434 441 1434 c 2,5,-1
 593 1434 l 2,6,7
 663 1434 663 1434 646 1359 c 2,8,-1
 389 248 l 1,9,-1
 861 248 l 1,10,-1
 1118 1359 l 2,11,12
 1135 1434 1135 1434 1205 1434 c 2,13,-1
 1357 1434 l 2,14,15
 1427 1434 1427 1434 1410 1359 c 2,16,-1
 1153 248 l 1,17,-1
 1625 248 l 1,18,-1
 1882 1359 l 2,19,20
 1899 1434 1899 1434 1969 1434 c 2,21,-1
 2121 1434 l 2,22,23
 2191 1434 2191 1434 2174 1359 c 2,24,-1
 1917 248 l 1,25,-1
 2039 248 l 2,26,27
 2109 248 2109 248 2092 173 c 2,28,-1
 1983 -300 l 2,29,30
 1967 -370 1967 -370 1907 -370 c 2,31,-1
 1777 -370 l 2,32,33
 1717 -370 1717 -370 1733 -300 c 2,34,-1
 1802 0 l 1,35,-1
 110 0 l 2,0,1
EndSplineSet
EndChar

StartChar: afii10044
Encoding: 1066 1066 452
Width: 1746
GlyphClass: 2
Flags: W
AnchorPoint: "Anchor-3" 1062 1468 basechar 0
LayerCount: 2
Fore
SplineSet
263 1186 m 2,0,1
 188 1186 188 1186 203 1251 c 2,2,-1
 230 1369 l 2,3,4
 245 1434 245 1434 320 1434 c 2,5,-1
 989 1434 l 2,6,7
 1059 1434 1059 1434 1042 1359 c 2,8,-1
 929 870 l 1,9,-1
 1064 870 l 2,10,11
 1396 870 1396 870 1513.5 755 c 128,-1,12
 1631 640 1631 640 1631 474 c 0,13,14
 1631 267 1631 267 1449.5 133.5 c 128,-1,15
 1268 0 1268 0 903 0 c 2,16,-1
 506 0 l 2,17,18
 436 0 436 0 453 75 c 2,19,-1
 710 1186 l 1,20,-1
 263 1186 l 2,0,1
784 244 m 1,21,-1
 930 244 l 2,22,23
 1120 244 1120 244 1219.5 288 c 128,-1,24
 1319 332 1319 332 1319 457 c 0,25,26
 1319 555 1319 555 1253.5 590.5 c 128,-1,27
 1188 626 1188 626 979 626 c 2,28,-1
 873 626 l 1,29,-1
 784 244 l 1,21,-1
EndSplineSet
EndChar

StartChar: afii10046
Encoding: 1068 1068 454
Width: 1350
GlyphClass: 2
Flags: W
AnchorPoint: "Anchor-3" 927 1468 basechar 0
LayerCount: 2
Fore
SplineSet
110 0 m 2,0,1
 40 0 40 0 57 75 c 2,2,-1
 354 1359 l 2,3,4
 371 1434 371 1434 441 1434 c 2,5,-1
 593 1434 l 2,6,7
 663 1434 663 1434 646 1359 c 2,8,-1
 533 870 l 1,9,-1
 668 870 l 2,10,11
 1000 870 1000 870 1117.5 755 c 128,-1,12
 1235 640 1235 640 1235 474 c 0,13,14
 1235 267 1235 267 1053.5 133.5 c 128,-1,15
 872 0 872 0 507 0 c 2,16,-1
 110 0 l 2,0,1
388 244 m 1,17,-1
 534 244 l 2,18,19
 724 244 724 244 823.5 288 c 128,-1,20
 923 332 923 332 923 457 c 0,21,22
 923 555 923 555 857.5 590.5 c 128,-1,23
 792 626 792 626 583 626 c 2,24,-1
 477 626 l 1,25,-1
 388 244 l 1,17,-1
EndSplineSet
EndChar

StartChar: afii10047
Encoding: 1069 1069 455
Width: 1388
GlyphClass: 2
Flags: W
AnchorPoint: "Anchor-3" 747 1468 basechar 0
LayerCount: 2
Fore
SplineSet
86 156 m 0,0,1
 41 225 41 225 91 268 c 2,2,-1
 176 342 l 2,3,4
 229 388 229 388 293 318 c 0,5,6
 347 258 347 258 434.5 230 c 128,-1,7
 522 202 522 202 594 202 c 0,8,9
 801 202 801 202 907.5 329 c 128,-1,10
 1014 456 1014 456 1044 622 c 1,11,-1
 523 622 l 2,12,13
 448 622 448 622 463 687 c 2,14,-1
 490 805 l 2,15,16
 505 870 505 870 580 870 c 2,17,-1
 1067 870 l 1,18,19
 1067 1053 1067 1053 986.5 1142.5 c 128,-1,20
 906 1232 906 1232 724 1232 c 0,21,22
 624 1232 624 1232 544.5 1199.5 c 128,-1,23
 465 1167 465 1167 407 1107 c 0,24,25
 363 1062 363 1062 320 1095 c 2,26,-1
 221 1172 l 2,27,28
 161 1219 161 1219 203 1270 c 0,29,30
 293 1378 293 1378 437.5 1423 c 128,-1,31
 582 1468 582 1468 747 1468 c 0,32,33
 1066 1468 1066 1468 1220 1308.5 c 128,-1,34
 1374 1149 1374 1149 1374 846 c 0,35,36
 1374 474 1374 474 1174.5 220 c 128,-1,37
 975 -34 975 -34 570 -34 c 0,38,39
 380 -34 380 -34 264.5 12 c 128,-1,40
 149 58 149 58 86 156 c 0,0,1
EndSplineSet
EndChar

StartChar: afii10048
Encoding: 1070 1070 456
Width: 2096
GlyphClass: 2
Flags: W
AnchorPoint: "Anchor-3" 1313 1468 basechar 0
LayerCount: 2
Fore
SplineSet
110 0 m 2,0,1
 40 0 40 0 57 75 c 2,2,-1
 354 1359 l 2,3,4
 371 1434 371 1434 441 1434 c 2,5,-1
 593 1434 l 2,6,7
 663 1434 663 1434 646 1359 c 2,8,-1
 533 870 l 1,9,-1
 703 870 l 1,10,11
 746 1068 746 1068 934 1268 c 128,-1,12
 1122 1468 1122 1468 1444 1468 c 0,13,14
 1744 1468 1744 1468 1913 1312.5 c 128,-1,15
 2082 1157 2082 1157 2082 847 c 0,16,17
 2082 477 2082 477 1869 221.5 c 128,-1,18
 1656 -34 1656 -34 1306 -34 c 0,19,20
 1006 -34 1006 -34 837 121.5 c 128,-1,21
 668 277 668 277 668 587 c 0,22,23
 668 605 668 605 669 622 c 1,24,-1
 476 622 l 1,25,-1
 349 75 l 2,26,27
 332 0 332 0 262 0 c 2,28,-1
 110 0 l 2,0,1
980 545 m 0,29,30
 980 385 980 385 1065 293.5 c 128,-1,31
 1150 202 1150 202 1320 202 c 0,32,33
 1520 202 1520 202 1645 390.5 c 128,-1,34
 1770 579 1770 579 1770 889 c 0,35,36
 1770 1049 1770 1049 1685 1140.5 c 128,-1,37
 1600 1232 1600 1232 1430 1232 c 0,38,39
 1230 1232 1230 1232 1105 1043.5 c 128,-1,40
 980 855 980 855 980 545 c 0,29,30
EndSplineSet
EndChar

StartChar: afii10049
Encoding: 1071 1071 457
Width: 1416
GlyphClass: 2
Flags: W
AnchorPoint: "Anchor-3" 980 1468 basechar 0
LayerCount: 2
Fore
SplineSet
31 0 m 2,0,1
 -63 0 -63 0 13 86 c 2,2,-1
 295 407 l 2,3,4
 359 480 359 480 425.5 532.5 c 128,-1,5
 492 585 492 585 580 636 c 1,6,-1
 580 638 l 1,7,8
 429 648 429 648 336 744 c 128,-1,9
 243 840 243 840 243 963 c 0,10,11
 243 1191 243 1191 412.5 1312.5 c 128,-1,12
 582 1434 582 1434 933 1434 c 2,13,-1
 1397 1434 l 2,14,15
 1467 1434 1467 1434 1450 1359 c 2,16,-1
 1153 75 l 2,17,18
 1136 0 1136 0 1066 0 c 2,19,-1
 914 0 l 2,20,21
 844 0 844 0 861 75 c 2,22,-1
 976 573 l 1,23,-1
 931 573 l 2,24,25
 843 573 843 573 776.5 525.5 c 128,-1,26
 710 478 710 478 627 382 c 2,27,-1
 347 59 l 2,28,29
 296 0 296 0 243 0 c 2,30,-1
 31 0 l 2,0,1
539 983 m 0,31,32
 539 897 539 897 614.5 857 c 128,-1,33
 690 817 690 817 851 817 c 2,34,-1
 1033 817 l 1,35,-1
 1119 1190 l 1,36,-1
 901 1190 l 2,37,38
 717 1190 717 1190 628 1138 c 128,-1,39
 539 1086 539 1086 539 983 c 0,31,32
EndSplineSet
EndChar

StartChar: afii10066
Encoding: 1073 1073 459
Width: 1214
GlyphClass: 2
Flags: W
AnchorPoint: "Anchor-3" 814 1476 basechar 0
LayerCount: 2
Fore
SplineSet
62 412 m 0,0,1
 62 663 62 663 121.5 837.5 c 128,-1,2
 181 1012 181 1012 224 1076 c 128,-1,3
 267 1140 267 1140 350.5 1232.5 c 128,-1,4
 434 1325 434 1325 537 1372 c 128,-1,5
 640 1419 640 1419 685 1426 c 0,6,7
 782 1440 782 1440 859 1446.5 c 128,-1,8
 936 1453 936 1453 1003 1464 c 0,9,10
 1082 1478 1082 1478 1094 1496 c 128,-1,11
 1106 1514 1106 1514 1140 1514 c 2,12,-1
 1215 1514 l 2,13,14
 1251 1514 1251 1514 1243 1469 c 0,15,16
 1229 1390 1229 1390 1181.5 1342 c 128,-1,17
 1134 1294 1134 1294 1045 1272 c 0,18,19
 997 1260 997 1260 930.5 1254 c 128,-1,20
 864 1248 864 1248 765.5 1232.5 c 128,-1,21
 667 1217 667 1217 573 1186 c 0,22,23
 390 1124 390 1124 307 845 c 1,24,-1
 314 841 l 1,25,26
 351 915 351 915 467 992.5 c 128,-1,27
 583 1070 583 1070 716 1070 c 0,28,29
 970 1070 970 1070 1062 941.5 c 128,-1,30
 1154 813 1154 813 1154 638 c 0,31,32
 1154 413 1154 413 990 196.5 c 128,-1,33
 826 -20 826 -20 522 -20 c 0,34,35
 250 -20 250 -20 156 108.5 c 128,-1,36
 62 237 62 237 62 412 c 0,0,1
358 387 m 0,37,38
 358 287 358 287 406.5 231.5 c 128,-1,39
 455 176 455 176 540 176 c 0,40,41
 665 176 665 176 761.5 304.5 c 128,-1,42
 858 433 858 433 858 663 c 0,43,44
 858 763 858 763 809 818.5 c 128,-1,45
 760 874 760 874 680 874 c 0,46,47
 562 874 562 874 460 743 c 128,-1,48
 358 612 358 612 358 387 c 0,37,38
EndSplineSet
EndChar

StartChar: afii10067
Encoding: 1074 1074 460
Width: 1120
GlyphClass: 2
Flags: W
AnchorPoint: "Anchor-3" 672 1070 basechar 0
LayerCount: 2
Fore
SplineSet
58 404 m 0,0,1
 58 632 58 632 217 851 c 128,-1,2
 376 1070 376 1070 672 1070 c 0,3,4
 842 1070 842 1070 946 1007 c 128,-1,5
 1050 944 1050 944 1050 834 c 0,6,7
 1050 728 1050 728 985 670 c 128,-1,8
 920 612 920 612 770 568 c 1,9,-1
 770 566 l 1,10,11
 880 554 880 554 935 474 c 128,-1,12
 990 394 990 394 990 324 c 0,13,14
 990 146 990 146 858 63 c 128,-1,15
 726 -20 726 -20 482 -20 c 0,16,17
 288 -20 288 -20 173 93 c 128,-1,18
 58 206 58 206 58 404 c 0,0,1
355 356 m 0,19,20
 355 284 355 284 391.5 230 c 128,-1,21
 428 176 428 176 524 176 c 0,22,23
 614 176 614 176 654 214 c 128,-1,24
 694 252 694 252 694 320 c 0,25,26
 694 398 694 398 650 426 c 128,-1,27
 606 454 606 454 532 454 c 0,28,29
 488 454 488 454 446 443 c 128,-1,30
 404 432 404 432 361 422 c 1,31,32
 355 384 355 384 355 356 c 0,19,20
382 614 m 1,33,34
 612 666 612 666 694 697 c 128,-1,35
 776 728 776 728 776 794 c 0,36,37
 776 836 776 836 747 855 c 128,-1,38
 718 874 718 874 654 874 c 0,39,40
 594 874 594 874 518 823 c 128,-1,41
 442 772 442 772 382 614 c 1,33,34
EndSplineSet
EndChar

StartChar: afii10068
Encoding: 1075 1075 461
Width: 980
GlyphClass: 2
Flags: W
AnchorPoint: "Anchor-3" 649 1070 basechar 0
LayerCount: 2
Fore
SplineSet
33 253 m 0,0,1
 33 331 33 331 60.5 384.5 c 128,-1,2
 88 438 88 438 151.5 487 c 128,-1,3
 215 536 215 536 299 570 c 0,4,5
 378 602 378 602 439.5 627 c 128,-1,6
 501 652 501 652 549 673 c 0,7,8
 586 689 586 689 605.5 710.5 c 128,-1,9
 625 732 625 732 630 750.5 c 128,-1,10
 635 769 635 769 635 794 c 0,11,12
 635 815 635 815 623.5 834.5 c 128,-1,13
 612 854 612 854 591 864 c 128,-1,14
 570 874 570 874 522 874 c 0,15,16
 469 874 469 874 413.5 859 c 128,-1,17
 358 844 358 844 311 816 c 0,18,19
 260 785 260 785 234 824 c 2,20,-1
 181 904 l 2,21,22
 156 942 156 942 193 968 c 0,23,24
 255 1012 255 1012 365 1041 c 128,-1,25
 475 1070 475 1070 588 1070 c 0,26,27
 698 1070 698 1070 771 1040 c 128,-1,28
 844 1010 844 1010 879.5 946 c 128,-1,29
 915 882 915 882 915 801 c 0,30,31
 915 722 915 722 884.5 666 c 128,-1,32
 854 610 854 610 803 572 c 128,-1,33
 752 534 752 534 651 492 c 0,34,35
 585 464 585 464 536.5 445 c 128,-1,36
 488 426 488 426 429 400 c 0,37,38
 384 380 384 380 364 364 c 128,-1,39
 344 348 344 348 336.5 327.5 c 128,-1,40
 329 307 329 307 329 282 c 0,41,42
 329 259 329 259 340.5 233 c 128,-1,43
 352 207 352 207 380 191.5 c 128,-1,44
 408 176 408 176 465 176 c 0,45,46
 520 176 520 176 603.5 205 c 128,-1,47
 687 234 687 234 733 262 c 0,48,49
 785 293 785 293 805 262 c 2,50,-1
 863 174 l 2,51,52
 898 121 898 121 857 98 c 0,53,54
 760 42 760 42 654.5 11 c 128,-1,55
 549 -20 549 -20 423 -20 c 0,56,57
 262 -20 262 -20 185.5 23 c 128,-1,58
 109 66 109 66 71 122 c 128,-1,59
 33 178 33 178 33 253 c 0,0,1
EndSplineSet
Substitution2: "'locl' Localized Forms in Cyrillic lookup 6 subtable" ghe.ital
EndChar

StartChar: afii10069
Encoding: 1076 1076 462
Width: 1224
GlyphClass: 2
Flags: W
AnchorPoint: "Anchor-3" 827 1476 basechar 0
LayerCount: 2
Fore
SplineSet
58 412 m 0,0,1
 58 636 58 636 222.5 847 c 128,-1,2
 387 1058 387 1058 670 1058 c 0,3,4
 756 1058 756 1058 820.5 1016.5 c 128,-1,5
 885 975 885 975 919 903 c 1,6,-1
 923 903 l 1,7,8
 927 937 927 937 927 984 c 0,9,10
 927 1128 927 1128 871.5 1214 c 128,-1,11
 816 1300 816 1300 711 1300 c 0,12,13
 651 1300 651 1300 586.5 1286 c 128,-1,14
 522 1272 522 1272 472 1247 c 0,15,16
 415 1218 415 1218 388 1271 c 2,17,-1
 358 1329 l 2,18,19
 327 1389 327 1389 373 1416 c 0,20,21
 441 1455 441 1455 533.5 1475.5 c 128,-1,22
 626 1496 626 1496 730 1496 c 0,23,24
 942 1496 942 1496 1068 1352.5 c 128,-1,25
 1194 1209 1194 1209 1194 876 c 0,26,27
 1194 507 1194 507 1008 243.5 c 128,-1,28
 822 -20 822 -20 518 -20 c 0,29,30
 249 -20 249 -20 153.5 108.5 c 128,-1,31
 58 237 58 237 58 412 c 0,0,1
354 387 m 0,32,33
 354 273 354 273 402.5 224.5 c 128,-1,34
 451 176 451 176 536 176 c 0,35,36
 661 176 661 176 757.5 307 c 128,-1,37
 854 438 854 438 854 647 c 0,38,39
 854 747 854 747 805.5 804.5 c 128,-1,40
 757 862 757 862 672 862 c 0,41,42
 547 862 547 862 450.5 735.5 c 128,-1,43
 354 609 354 609 354 387 c 0,32,33
EndSplineSet
Substitution2: "'locl' Localized Forms in Cyrillic lookup 6 subtable" de.ital
EndChar

StartChar: afii10072
Encoding: 1078 1078 464
Width: 1574
GlyphClass: 2
Flags: W
AnchorPoint: "Anchor-3" 911 1070 basechar 0
LayerCount: 2
Fore
SplineSet
-28 0 m 2,0,1
 -101 0 -101 0 -42 74 c 2,2,-1
 196 372 l 2,3,4
 258 450 258 450 309.5 493 c 128,-1,5
 361 536 361 536 438 552 c 1,6,-1
 439 554 l 1,7,8
 379 570 379 570 339 629 c 128,-1,9
 299 688 299 688 288 716 c 2,10,-1
 188 976 l 2,11,12
 160 1050 160 1050 236 1050 c 2,13,-1
 372 1050 l 2,14,15
 426 1050 426 1050 441 1009 c 2,16,-1
 521 776 l 2,17,18
 537 729 537 729 573 688.5 c 128,-1,19
 609 648 609 648 661 648 c 2,20,-1
 677 648 l 1,21,-1
 756 990 l 2,22,23
 770 1050 770 1050 829 1050 c 2,24,-1
 989 1050 l 2,25,26
 1049 1050 1049 1050 1036 990 c 2,27,-1
 957 648 l 1,28,-1
 973 648 l 2,29,30
 1003 648 1003 648 1037 677 c 128,-1,31
 1071 706 1071 706 1127 776 c 2,32,-1
 1315 1009 l 2,33,34
 1348 1050 1348 1050 1402 1050 c 2,35,-1
 1582 1050 l 2,36,37
 1659 1050 1659 1050 1596 976 c 2,38,-1
 1376 716 l 2,39,40
 1332 664 1332 664 1275.5 617 c 128,-1,41
 1219 570 1219 570 1151 554 c 1,42,-1
 1150 552 l 1,43,44
 1220 536 1220 536 1255.5 482.5 c 128,-1,45
 1291 429 1291 429 1310 372 c 2,46,-1
 1410 74 l 2,47,48
 1435 0 1435 0 1362 0 c 2,49,-1
 1219 0 l 2,50,51
 1164 0 1164 0 1149 52 c 2,52,-1
 1064 338 l 2,53,54
 1054 372 1054 372 1027.5 410 c 128,-1,55
 1001 448 1001 448 927 448 c 2,56,-1
 910 448 l 1,57,-1
 821 60 l 2,58,59
 807 0 807 0 747 0 c 2,60,-1
 587 0 l 2,61,62
 527 0 527 0 541 60 c 2,63,-1
 630 448 l 1,64,-1
 613 448 l 2,65,66
 583 448 583 448 556.5 433 c 128,-1,67
 530 418 530 418 470 338 c 2,68,-1
 253 52 l 2,69,70
 214 0 214 0 159 0 c 2,71,-1
 -28 0 l 2,0,1
EndSplineSet
EndChar

StartChar: afii10073
Encoding: 1079 1079 465
Width: 1038
GlyphClass: 2
Flags: W
AnchorPoint: "Anchor-3" 536 1070 basechar 0
LayerCount: 2
Fore
SplineSet
72 102 m 0,0,1
 25 149 25 149 65 184 c 2,2,-1
 153 263 l 2,3,4
 206 311 206 311 248 266 c 0,5,6
 278 234 278 234 314 205 c 128,-1,7
 350 176 350 176 430 176 c 0,8,9
 524 176 524 176 569.5 230 c 128,-1,10
 615 284 615 284 615 337 c 0,11,12
 615 380 615 380 587.5 414 c 128,-1,13
 560 448 560 448 475 448 c 2,14,-1
 335 448 l 2,15,16
 274 448 274 448 286 498 c 2,17,-1
 310 598 l 2,18,19
 322 648 322 648 381 648 c 2,20,-1
 513 648 l 2,21,22
 596 648 596 648 645.5 686 c 128,-1,23
 695 724 695 724 695 777 c 0,24,25
 695 829 695 829 643.5 851.5 c 128,-1,26
 592 874 592 874 518 874 c 0,27,28
 454 874 454 874 411 857 c 128,-1,29
 368 840 368 840 325 807 c 0,30,31
 277 770 277 770 248 810 c 2,32,-1
 180 905 l 2,33,34
 147 951 147 951 187 980 c 0,35,36
 234 1014 234 1014 319 1042 c 128,-1,37
 404 1070 404 1070 536 1070 c 0,38,39
 740 1070 740 1070 854.5 1005.5 c 128,-1,40
 969 941 969 941 969 822 c 0,41,42
 969 725 969 725 904.5 655.5 c 128,-1,43
 840 586 840 586 750 559 c 1,44,-1
 749 556 l 1,45,46
 854 506 854 506 882.5 454 c 128,-1,47
 911 402 911 402 911 342 c 0,48,49
 911 187 911 187 774.5 83.5 c 128,-1,50
 638 -20 638 -20 410 -20 c 0,51,52
 268 -20 268 -20 192 19 c 128,-1,53
 116 58 116 58 72 102 c 0,0,1
EndSplineSet
EndChar

StartChar: afii10076
Encoding: 1082 1082 468
Width: 1085
GlyphClass: 2
Flags: W
AnchorPoint: "Anchor-3" 715 1070 basechar 0
LayerCount: 2
Fore
SplineSet
76 0 m 2,0,1
 16 0 16 0 30 60 c 2,2,-1
 245 990 l 2,3,4
 259 1050 259 1050 318 1050 c 2,5,-1
 478 1050 l 2,6,7
 539 1050 539 1050 525 990 c 2,8,-1
 446 648 l 1,9,-1
 469 648 l 2,10,11
 498 648 498 648 531 672.5 c 128,-1,12
 564 697 564 697 629 776 c 2,13,-1
 821 1009 l 2,14,15
 855 1050 855 1050 908 1050 c 2,16,-1
 1092 1050 l 2,17,18
 1170 1050 1170 1050 1106 976 c 2,19,-1
 882 716 l 2,20,21
 826 651 826 651 773 610.5 c 128,-1,22
 720 570 720 570 655 554 c 1,23,-1
 654 552 l 1,24,25
 712 542 712 542 752 492.5 c 128,-1,26
 792 443 792 443 817 372 c 2,27,-1
 921 74 l 2,28,29
 947 0 947 0 873 0 c 2,30,-1
 726 0 l 2,31,32
 672 0 672 0 656 52 c 2,33,-1
 567 338 l 2,34,35
 547 401 547 401 510.5 424.5 c 128,-1,36
 474 448 474 448 423 448 c 2,37,-1
 399 448 l 1,38,-1
 310 60 l 2,39,40
 296 0 296 0 236 0 c 2,41,-1
 76 0 l 2,0,1
EndSplineSet
EndChar

StartChar: afii10077
Encoding: 1083 1083 469
Width: 1194
GlyphClass: 2
Flags: W
AnchorPoint: "Anchor-3" 977 1070 basechar 0
LayerCount: 2
Fore
SplineSet
-52 -5 m 0,0,1
 -76 6 -76 6 -67 36 c 2,2,-1
 -32 158 l 2,3,4
 -23 190 -23 190 7 183 c 0,5,6
 36 176 36 176 67 176 c 0,7,8
 208 176 208 176 257 283.5 c 128,-1,9
 306 391 306 391 384 698 c 2,10,-1
 400 761 l 2,11,12
 439 915 439 915 528.5 982.5 c 128,-1,13
 618 1050 618 1050 825 1050 c 2,14,-1
 1120 1050 l 2,15,16
 1181 1050 1181 1050 1167 990 c 2,17,-1
 952 60 l 2,18,19
 938 0 938 0 878 0 c 2,20,-1
 718 0 l 2,21,22
 658 0 658 0 672 60 c 2,23,-1
 854 850 l 1,24,-1
 828 850 l 2,25,26
 710 850 710 850 674.5 829.5 c 128,-1,27
 639 809 639 809 619 730 c 2,28,-1
 604 671 l 2,29,30
 490 224 490 224 391 102 c 128,-1,31
 292 -20 292 -20 53 -20 c 0,32,33
 -19 -20 -19 -20 -52 -5 c 0,0,1
EndSplineSet
EndChar

StartChar: afii10078
Encoding: 1084 1084 470
Width: 1500
GlyphClass: 2
Flags: W
AnchorPoint: "Anchor-3" 877 1070 basechar 0
LayerCount: 2
Fore
SplineSet
76 0 m 2,0,1
 16 0 16 0 30 60 c 2,2,-1
 245 990 l 2,3,4
 259 1050 259 1050 318 1050 c 2,5,-1
 571 1050 l 2,6,7
 637 1050 637 1050 641 985 c 2,8,-1
 676 383 l 2,9,10
 678 348 678 348 676.5 300.5 c 128,-1,11
 675 253 675 253 668 224 c 1,12,-1
 672 224 l 1,13,14
 679 253 679 253 698 298 c 128,-1,15
 717 343 717 343 738 383 c 2,16,-1
 1047 985 l 2,17,18
 1080 1050 1080 1050 1147 1050 c 2,19,-1
 1426 1050 l 2,20,21
 1487 1050 1487 1050 1473 990 c 2,22,-1
 1258 60 l 2,23,24
 1244 0 1244 0 1184 0 c 2,25,-1
 1024 0 l 2,26,27
 964 0 964 0 978 60 c 2,28,-1
 1094 565 l 2,29,30
 1103 604 1103 604 1123 645 c 1,31,-1
 1113 645 l 1,32,-1
 805 61 l 2,33,34
 773 0 773 0 737 0 c 2,35,-1
 523 0 l 2,36,37
 487 0 487 0 483 61 c 2,38,-1
 445 645 l 1,39,-1
 435 645 l 1,40,41
 435 604 435 604 426 565 c 2,42,-1
 310 60 l 2,43,44
 296 0 296 0 236 0 c 2,45,-1
 76 0 l 2,0,1
EndSplineSet
EndChar

StartChar: afii10079
Encoding: 1085 1085 471
Width: 1191
GlyphClass: 2
Flags: W
AnchorPoint: "Anchor-3" 723 1070 basechar 0
LayerCount: 2
Fore
SplineSet
76 0 m 2,0,1
 16 0 16 0 30 60 c 2,2,-1
 245 990 l 2,3,4
 259 1050 259 1050 318 1050 c 2,5,-1
 478 1050 l 2,6,7
 538 1050 538 1050 525 990 c 2,8,-1
 446 648 l 1,9,-1
 806 648 l 1,10,-1
 885 990 l 2,11,12
 899 1050 899 1050 958 1050 c 2,13,-1
 1118 1050 l 2,14,15
 1178 1050 1178 1050 1165 990 c 2,16,-1
 950 60 l 2,17,18
 936 0 936 0 876 0 c 2,19,-1
 716 0 l 2,20,21
 656 0 656 0 670 60 c 2,22,-1
 759 448 l 1,23,-1
 399 448 l 1,24,-1
 310 60 l 2,25,26
 296 0 296 0 236 0 c 2,27,-1
 76 0 l 2,0,1
EndSplineSet
EndChar

StartChar: afii10086
Encoding: 1092 1092 478
Width: 1738
GlyphClass: 2
Flags: W
AnchorPoint: "Anchor-3" 1090 1476 basechar 0
LayerCount: 2
Fore
SplineSet
63 414 m 0,0,1
 63 627 63 627 221 848.5 c 128,-1,2
 379 1070 379 1070 591 1070 c 0,3,4
 657 1070 657 1070 721 1052 c 128,-1,5
 785 1034 785 1034 826 937 c 1,6,-1
 835 937 l 1,7,8
 835 978 835 978 844 1017 c 2,9,-1
 936 1416 l 2,10,11
 950 1476 950 1476 1010 1476 c 2,12,-1
 1170 1476 l 2,13,14
 1230 1476 1230 1476 1216 1416 c 2,15,-1
 1121 1004 l 2,16,17
 1112 965 1112 965 1093 924 c 1,18,-1
 1102 924 l 1,19,20
 1169 1015 1169 1015 1229.5 1042.5 c 128,-1,21
 1290 1070 1290 1070 1343 1070 c 0,22,23
 1524 1070 1524 1070 1601 955 c 128,-1,24
 1678 840 1678 840 1678 636 c 0,25,26
 1678 423 1678 423 1520 201.5 c 128,-1,27
 1362 -20 1362 -20 1150 -20 c 0,28,29
 1084 -20 1084 -20 1020 -2 c 128,-1,30
 956 16 956 16 915 113 c 1,31,-1
 906 113 l 1,32,33
 906 72 906 72 897 33 c 2,34,-1
 811 -340 l 2,35,36
 797 -400 797 -400 737 -400 c 2,37,-1
 577 -400 l 2,38,39
 517 -400 517 -400 531 -340 c 2,40,-1
 620 46 l 1,41,42
 620 46 620 46 648 126 c 1,43,-1
 639 126 l 1,44,45
 572 35 572 35 511.5 7.5 c 128,-1,46
 451 -20 451 -20 398 -20 c 0,47,48
 217 -20 217 -20 140 95 c 128,-1,49
 63 210 63 210 63 414 c 0,0,1
359 396 m 0,50,51
 359 292 359 292 379 234 c 128,-1,52
 399 176 399 176 460 176 c 0,53,54
 543 176 543 176 620.5 280 c 128,-1,55
 698 384 698 384 723 493 c 2,56,-1
 764 672 l 1,57,58
 764 762 764 762 731.5 818 c 128,-1,59
 699 874 699 874 630 874 c 0,60,61
 511 874 511 874 435 718 c 128,-1,62
 359 562 359 562 359 396 c 0,50,51
977 378 m 1,63,64
 977 288 977 288 1009.5 232 c 128,-1,65
 1042 176 1042 176 1111 176 c 0,66,67
 1230 176 1230 176 1306 332 c 128,-1,68
 1382 488 1382 488 1382 654 c 0,69,70
 1382 758 1382 758 1362 816 c 128,-1,71
 1342 874 1342 874 1281 874 c 0,72,73
 1198 874 1198 874 1120.5 770 c 128,-1,74
 1043 666 1043 666 1018 557 c 2,75,-1
 977 378 l 1,63,64
EndSplineSet
EndChar

StartChar: afii10088
Encoding: 1094 1094 480
Width: 1256
GlyphClass: 2
Flags: W
AnchorPoint: "Anchor-3" 723 1070 basechar 0
LayerCount: 2
Fore
SplineSet
115 436 m 2,0,-1
 243 990 l 2,1,2
 257 1050 257 1050 316 1050 c 2,3,-1
 476 1050 l 2,4,5
 537 1050 537 1050 523 990 c 2,6,-1
 411 508 l 2,7,8
 362 296 362 296 386 236 c 128,-1,9
 410 176 410 176 491 176 c 0,10,11
 592 176 592 176 674 295.5 c 128,-1,12
 756 415 756 415 806 635 c 2,13,-1
 887 990 l 2,14,15
 901 1050 901 1050 960 1050 c 2,16,-1
 1120 1050 l 2,17,18
 1181 1050 1181 1050 1167 990 c 2,19,-1
 1013 325 l 2,20,21
 1002 280 1002 280 1002 240 c 128,-1,22
 1002 200 1002 200 1048 200 c 2,23,-1
 1070 200 l 2,24,25
 1130 200 1130 200 1116 140 c 2,26,-1
 1017 -290 l 2,27,28
 1003 -350 1003 -350 948 -350 c 2,29,-1
 828 -350 l 2,30,31
 773 -350 773 -350 787 -290 c 2,32,-1
 854 0 l 1,33,-1
 842 0 l 2,34,35
 788 0 788 0 747.5 32 c 128,-1,36
 707 64 707 64 695 147 c 1,37,-1
 691 147 l 1,38,39
 611 53 611 53 538.5 16.5 c 128,-1,40
 466 -20 466 -20 366 -20 c 0,41,42
 224 -20 224 -20 141.5 87 c 128,-1,43
 59 194 59 194 115 436 c 2,0,-1
EndSplineSet
EndChar

StartChar: afii10089
Encoding: 1095 1095 481
Width: 1130
GlyphClass: 2
Flags: W
AnchorPoint: "Anchor-3" 674 1070 basechar 0
LayerCount: 2
Fore
SplineSet
150 736 m 2,0,-1
 209 990 l 2,1,2
 223 1050 223 1050 282 1050 c 2,3,-1
 442 1050 l 2,4,5
 503 1050 503 1050 489 990 c 2,6,-1
 427 724 l 2,7,8
 406 634 406 634 435 605 c 128,-1,9
 464 576 464 576 537 576 c 0,10,11
 576 576 576 576 634.5 583.5 c 128,-1,12
 693 591 693 591 743 646 c 1,13,-1
 823 990 l 2,14,15
 837 1050 837 1050 896 1050 c 2,16,-1
 1056 1050 l 2,17,18
 1117 1050 1117 1050 1103 990 c 2,19,-1
 888 60 l 2,20,21
 874 0 874 0 814 0 c 2,22,-1
 654 0 l 2,23,24
 594 0 594 0 608 60 c 2,25,-1
 676 356 l 2,26,27
 686 398 686 398 699 436 c 1,28,-1
 693 436 l 1,29,30
 626 406 626 406 547 393 c 128,-1,31
 468 380 468 380 400 380 c 0,32,33
 244 380 244 380 179 481 c 128,-1,34
 114 582 114 582 150 736 c 2,0,-1
EndSplineSet
EndChar

StartChar: afii10090
Encoding: 1096 1096 482
Width: 1750
GlyphClass: 2
Flags: W
AnchorPoint: "Anchor-3" 1001 1070 basechar 0
LayerCount: 2
Fore
SplineSet
118 450 m 2,0,-1
 243 990 l 2,1,2
 257 1050 257 1050 317 1050 c 2,3,-1
 477 1050 l 2,4,5
 537 1050 537 1050 523 990 c 2,6,-1
 417 530 l 2,7,8
 374 342 374 342 384 259 c 128,-1,9
 394 176 394 176 469 176 c 0,10,11
 539 176 539 176 616 257.5 c 128,-1,12
 693 339 693 339 762 638 c 2,13,-1
 843 990 l 2,14,15
 857 1050 857 1050 917 1050 c 2,16,-1
 1077 1050 l 2,17,18
 1137 1050 1137 1050 1123 990 c 2,19,-1
 1022 550 l 2,20,21
 975 345 975 345 984.5 260.5 c 128,-1,22
 994 176 994 176 1069 176 c 0,23,24
 1138 176 1138 176 1222 286 c 128,-1,25
 1306 396 1306 396 1362 638 c 2,26,-1
 1443 990 l 2,27,28
 1457 1050 1457 1050 1517 1050 c 2,29,-1
 1677 1050 l 2,30,31
 1737 1050 1737 1050 1723 990 c 2,32,-1
 1508 60 l 2,33,34
 1494 0 1494 0 1435 0 c 2,35,-1
 1277 0 l 2,36,37
 1217 0 1217 0 1230 60 c 2,38,-1
 1251 150 l 1,39,-1
 1247 150 l 1,40,41
 1201 81 1201 81 1129 30.5 c 128,-1,42
 1057 -20 1057 -20 981 -20 c 0,43,44
 856 -20 856 -20 801.5 51.5 c 128,-1,45
 747 123 747 123 747 211 c 1,46,-1
 743 211 l 1,47,48
 670 99 670 99 580 39.5 c 128,-1,49
 490 -20 490 -20 361 -20 c 0,50,51
 226 -20 226 -20 142 86 c 128,-1,52
 58 192 58 192 118 450 c 2,0,-1
EndSplineSet
EndChar

StartChar: afii10091
Encoding: 1097 1097 483
Width: 1812
GlyphClass: 2
Flags: W
AnchorPoint: "Anchor-3" 1001 1070 basechar 0
LayerCount: 2
Fore
SplineSet
118 450 m 2,0,-1
 243 990 l 2,1,2
 257 1050 257 1050 317 1050 c 2,3,-1
 477 1050 l 2,4,5
 537 1050 537 1050 523 990 c 2,6,-1
 417 530 l 2,7,8
 374 343 374 343 384 259.5 c 128,-1,9
 394 176 394 176 469 176 c 0,10,11
 539 176 539 176 616 258 c 128,-1,12
 693 340 693 340 762 638 c 2,13,-1
 843 990 l 2,14,15
 857 1050 857 1050 917 1050 c 2,16,-1
 1077 1050 l 2,17,18
 1137 1050 1137 1050 1123 990 c 2,19,-1
 1022 550 l 2,20,21
 975 345 975 345 984.5 260.5 c 128,-1,22
 994 176 994 176 1069 176 c 0,23,24
 1138 176 1138 176 1222 286.5 c 128,-1,25
 1306 397 1306 397 1362 638 c 2,26,-1
 1443 990 l 2,27,28
 1457 1050 1457 1050 1517 1050 c 2,29,-1
 1677 1050 l 2,30,31
 1737 1050 1737 1050 1723 990 c 2,32,-1
 1569 325 l 2,33,34
 1558 279 1558 279 1558 239.5 c 128,-1,35
 1558 200 1558 200 1604 200 c 2,36,-1
 1626 200 l 2,37,38
 1686 200 1686 200 1672 140 c 2,39,-1
 1573 -290 l 2,40,41
 1559 -350 1559 -350 1504 -350 c 2,42,-1
 1384 -350 l 2,43,44
 1329 -350 1329 -350 1343 -290 c 2,45,-1
 1410 0 l 1,46,-1
 1398 0 l 2,47,48
 1344 0 1344 0 1303.5 33.5 c 128,-1,49
 1263 67 1263 67 1251 150 c 1,50,-1
 1247 150 l 1,51,52
 1201 81 1201 81 1129 30.5 c 128,-1,53
 1057 -20 1057 -20 981 -20 c 0,54,55
 856 -20 856 -20 801.5 51.5 c 128,-1,56
 747 123 747 123 747 211 c 1,57,-1
 743 211 l 1,58,59
 670 99 670 99 580 39.5 c 128,-1,60
 490 -20 490 -20 361 -20 c 0,61,62
 226 -20 226 -20 142 86 c 128,-1,63
 58 192 58 192 118 450 c 2,0,-1
EndSplineSet
EndChar

StartChar: afii10092
Encoding: 1098 1098 484
Width: 1309
GlyphClass: 2
Flags: W
AnchorPoint: "Anchor-3" 780 1070 basechar 0
LayerCount: 2
Fore
SplineSet
183 850 m 2,0,1
 123 850 123 850 135 900 c 2,2,-1
 158 1000 l 2,3,4
 170 1050 170 1050 229 1050 c 2,5,-1
 726 1050 l 2,6,7
 787 1050 787 1050 773 990 c 2,8,-1
 698 667 l 2,9,10
 687 620 687 620 675 587 c 1,11,-1
 680 587 l 1,12,13
 713 628 713 628 780.5 646 c 128,-1,14
 848 664 848 664 904 664 c 0,15,16
 1033 664 1033 664 1123 580 c 128,-1,17
 1213 496 1213 496 1213 359 c 256,18,19
 1213 222 1213 222 1089 101 c 128,-1,20
 965 -20 965 -20 698 -20 c 0,21,22
 473 -20 473 -20 397.5 116 c 128,-1,23
 322 252 322 252 357 405 c 2,24,-1
 460 850 l 1,25,-1
 183 850 l 2,0,1
620 336 m 0,26,27
 602 260 602 260 637.5 218 c 128,-1,28
 673 176 673 176 734 176 c 0,29,30
 820 176 820 176 868.5 222 c 128,-1,31
 917 268 917 268 917 358 c 0,32,33
 917 415 917 415 882.5 441.5 c 128,-1,34
 848 468 848 468 806 468 c 0,35,36
 741 468 741 468 688.5 436 c 128,-1,37
 636 404 636 404 620 336 c 0,26,27
EndSplineSet
EndChar

StartChar: afii10094
Encoding: 1100 1100 486
Width: 1062
GlyphClass: 2
Flags: W
AnchorPoint: "Anchor-3" 701 1070 basechar 0
LayerCount: 2
Fore
SplineSet
110 405 m 2,0,-1
 245 990 l 2,1,2
 259 1050 259 1050 318 1050 c 2,3,-1
 478 1050 l 2,4,5
 539 1050 539 1050 525 990 c 2,6,-1
 451 667 l 2,7,8
 440 620 440 620 428 587 c 1,9,-1
 433 587 l 1,10,11
 466 628 466 628 533.5 646 c 128,-1,12
 601 664 601 664 657 664 c 0,13,14
 786 664 786 664 876 580 c 128,-1,15
 966 496 966 496 966 359 c 256,16,17
 966 222 966 222 842 101 c 128,-1,18
 718 -20 718 -20 451 -20 c 0,19,20
 226 -20 226 -20 150.5 116 c 128,-1,21
 75 252 75 252 110 405 c 2,0,-1
373 336 m 0,22,23
 355 260 355 260 390.5 218 c 128,-1,24
 426 176 426 176 487 176 c 0,25,26
 573 176 573 176 621.5 222 c 128,-1,27
 670 268 670 268 670 358 c 0,28,29
 670 415 670 415 635.5 441.5 c 128,-1,30
 601 468 601 468 559 468 c 0,31,32
 494 468 494 468 441.5 436 c 128,-1,33
 389 404 389 404 373 336 c 0,22,23
EndSplineSet
EndChar

StartChar: afii10095
Encoding: 1101 1101 487
Width: 1085
GlyphClass: 2
Flags: W
AnchorPoint: "Anchor-3" 539 1070 basechar 0
LayerCount: 2
Fore
SplineSet
67 116 m 0,0,1
 27 159 27 159 72 197 c 2,2,-1
 161 272 l 2,3,4
 204 309 204 309 238 272 c 0,5,6
 265 243 265 243 309.5 209.5 c 128,-1,7
 354 176 354 176 417 176 c 0,8,9
 531 176 531 176 611 250 c 128,-1,10
 691 324 691 324 720 448 c 1,11,-1
 318 448 l 2,12,13
 257 448 257 448 269 498 c 2,14,-1
 293 598 l 2,15,16
 305 648 305 648 364 648 c 2,17,-1
 743 648 l 1,18,19
 747 756 747 756 692.5 815 c 128,-1,20
 638 874 638 874 539 874 c 0,21,22
 466 874 466 874 422 856 c 128,-1,23
 378 838 378 838 328 796 c 0,24,25
 279 755 279 755 251 788 c 2,26,-1
 180 873 l 2,27,28
 144 916 144 916 178 948 c 0,29,30
 232 998 232 998 324 1034 c 128,-1,31
 416 1070 416 1070 539 1070 c 0,32,33
 780 1070 780 1070 904.5 947.5 c 128,-1,34
 1029 825 1029 825 1029 615 c 0,35,36
 1029 360 1029 360 866.5 170 c 128,-1,37
 704 -20 704 -20 439 -20 c 0,38,39
 266 -20 266 -20 193 20 c 128,-1,40
 120 60 120 60 67 116 c 0,0,1
EndSplineSet
EndChar

StartChar: afii10096
Encoding: 1102 1102 488
Width: 1714
GlyphClass: 2
Flags: W
AnchorPoint: "Anchor-3" 1018 1070 basechar 0
LayerCount: 2
Fore
SplineSet
76 0 m 2,0,1
 16 0 16 0 30 60 c 2,2,-1
 245 990 l 2,3,4
 259 1050 259 1050 318 1050 c 2,5,-1
 478 1050 l 2,6,7
 538 1050 538 1050 525 990 c 2,8,-1
 446 648 l 1,9,-1
 613 648 l 1,10,11
 634 744 634 744 781 907 c 128,-1,12
 928 1070 928 1070 1198 1070 c 0,13,14
 1458 1070 1458 1070 1558 941.5 c 128,-1,15
 1658 813 1658 813 1658 638 c 0,16,17
 1658 413 1658 413 1492 196.5 c 128,-1,18
 1326 -20 1326 -20 1026 -20 c 0,19,20
 766 -20 766 -20 666 108.5 c 128,-1,21
 566 237 566 237 566 412 c 0,22,23
 566 430 566 430 567 448 c 1,24,-1
 399 448 l 1,25,-1
 310 60 l 2,26,27
 296 0 296 0 236 0 c 2,28,-1
 76 0 l 2,0,1
862 387 m 0,29,30
 862 287 862 287 910.5 231.5 c 128,-1,31
 959 176 959 176 1044 176 c 0,32,33
 1169 176 1169 176 1265.5 304.5 c 128,-1,34
 1362 433 1362 433 1362 663 c 0,35,36
 1362 763 1362 763 1313.5 818.5 c 128,-1,37
 1265 874 1265 874 1180 874 c 0,38,39
 1055 874 1055 874 958.5 745.5 c 128,-1,40
 862 617 862 617 862 387 c 0,29,30
EndSplineSet
EndChar

StartChar: afii10097
Encoding: 1103 1103 489
Width: 1148
GlyphClass: 2
Flags: W
AnchorPoint: "Anchor-3" 670 1070 basechar 0
LayerCount: 2
Fore
SplineSet
1 0 m 2,0,1
 -76 0 -76 0 -13 74 c 2,2,-1
 194 319 l 2,3,4
 240 373 240 373 280 401.5 c 128,-1,5
 320 430 320 430 376 460 c 1,6,-1
 377 462 l 1,7,8
 285 480 285 480 223.5 549 c 128,-1,9
 162 618 162 618 162 707 c 0,10,11
 162 846 162 846 268.5 948 c 128,-1,12
 375 1050 375 1050 623 1050 c 2,13,-1
 1074 1050 l 2,14,15
 1135 1050 1135 1050 1121 990 c 2,16,-1
 906 60 l 2,17,18
 892 0 892 0 832 0 c 2,19,-1
 672 0 l 2,20,21
 612 0 612 0 626 60 c 2,22,-1
 705 402 l 1,23,-1
 637 402 l 2,24,25
 592 402 592 402 552 372 c 128,-1,26
 512 342 512 342 475 294 c 2,27,-1
 289 52 l 2,28,29
 249 0 249 0 195 0 c 2,30,-1
 1 0 l 2,0,1
458 720 m 256,31,32
 458 648 458 648 499 623 c 128,-1,33
 540 598 540 598 658 598 c 2,34,-1
 750 598 l 1,35,-1
 809 854 l 1,36,-1
 698 854 l 2,37,38
 575 854 575 854 516.5 823 c 128,-1,39
 458 792 458 792 458 720 c 256,31,32
EndSplineSet
EndChar

StartChar: afii10099
Encoding: 1106 1106 491
Width: 1216
GlyphClass: 2
Flags: W
LayerCount: 2
Fore
SplineSet
188 870 m 2,0,1
 128 870 128 870 139 920 c 2,2,-1
 162 1020 l 2,3,4
 174 1070 174 1070 234 1070 c 2,5,-1
 325 1070 l 1,6,-1
 405 1416 l 2,7,8
 419 1476 419 1476 479 1476 c 2,9,-1
 639 1476 l 2,10,11
 699 1476 699 1476 685 1416 c 2,12,-1
 605 1070 l 1,13,-1
 968 1070 l 2,14,15
 1028 1070 1028 1070 1016 1020 c 2,16,-1
 993 920 l 2,17,18
 981 870 981 870 922 870 c 2,19,-1
 559 870 l 1,20,-1
 512 667 l 2,21,22
 502 624 502 624 490 587 c 1,23,-1
 496 587 l 1,24,25
 567 664 567 664 637.5 694.5 c 128,-1,26
 708 725 708 725 782 725 c 0,27,28
 918 725 918 725 1002.5 631 c 128,-1,29
 1087 537 1087 537 1087 349 c 0,30,31
 1088 118 1088 118 903 -97 c 128,-1,32
 718 -312 718 -312 514 -396 c 0,33,34
 453 -421 453 -421 436 -378 c 2,35,-1
 405 -300 l 2,36,37
 387 -255 387 -255 435 -228 c 0,38,39
 580 -148 580 -148 685.5 18 c 128,-1,40
 791 184 791 184 791 354 c 0,41,42
 791 434 791 434 767 481.5 c 128,-1,43
 743 529 743 529 680 529 c 0,44,45
 591 529 591 529 508.5 415.5 c 128,-1,46
 426 302 426 302 392 149 c 2,47,-1
 372 60 l 2,48,49
 359 0 359 0 298 0 c 2,50,-1
 138 0 l 2,51,52
 78 0 78 0 92 60 c 2,53,-1
 279 870 l 1,54,-1
 188 870 l 2,0,1
EndSplineSet
EndChar

StartChar: afii10101
Encoding: 1108 1108 493
Width: 1070
GlyphClass: 2
Flags: W
AnchorPoint: "Anchor-3" 673 1070 basechar 0
LayerCount: 2
Fore
SplineSet
58 412 m 0,0,1
 58 644 58 644 218 857 c 128,-1,2
 378 1070 378 1070 673 1070 c 0,3,4
 816 1070 816 1070 894 1031 c 128,-1,5
 972 992 972 992 1027 923 c 0,6,7
 1056 886 1056 886 1010 850 c 2,8,-1
 908 771 l 2,9,10
 877 747 877 747 831 801 c 0,11,12
 810 826 810 826 770 850 c 128,-1,13
 730 874 730 874 663 874 c 0,14,15
 546 874 546 874 477.5 790 c 128,-1,16
 409 706 409 706 396 648 c 1,17,-1
 749 648 l 2,18,19
 809 648 809 648 797 598 c 2,20,-1
 774 498 l 2,21,22
 762 448 762 448 702 448 c 2,23,-1
 356 448 l 1,24,25
 354 418 354 418 354 387 c 0,26,27
 354 282 354 282 403 229 c 128,-1,28
 452 176 452 176 536 176 c 0,29,30
 610 176 610 176 663 202 c 128,-1,31
 716 228 716 228 765 282 c 0,32,33
 807 329 807 329 846 287 c 2,34,-1
 916 212 l 2,35,36
 955 171 955 171 914 124 c 0,37,38
 874 78 874 78 778 29 c 128,-1,39
 682 -20 682 -20 518 -20 c 0,40,41
 258 -20 258 -20 158 108.5 c 128,-1,42
 58 237 58 237 58 412 c 0,0,1
EndSplineSet
EndChar

